#N canvas 4227 1072 1440 679 10;
#X text 54 53 —————————————————————————————, f 61;
#X obj 54 219 dac~ 1 2;
#X text 120 218 Audio Outputs;
#X obj 54 133 osc~ 220;
#X obj 54 162 *~ 0.3;
#X text 54 43 Daisy Pod – Hello World;
#X connect 3 0 4 0 32.................E.........PA.........n.....;
#X connect 4 0 1 1 32.................T....r1+++OE....q8+++iB....;
#X connect 4 0 1 0 32.................T....bz+++OE....G8+++iB....;
