#N canvas 4227 1072 1440 679 10;
#X obj 125 180 s led1 @hv_param;
#X obj 48 118 r button1_press @hv_param;
#X obj 887 180 dac~ 1 2;
#X obj 697 630 send~ amplitude;
#X obj 697 514 lop~ 10;
#X obj 48 630 send~ frequency;
#X obj 492 514 *~ 100;
#X obj 304 630 send~ harmonicity;
#X obj 492 630 send~ ratio;
#X obj 304 516 *~ 10;
#X obj 492 434 adc~ 7;
#X obj 697 434 adc~ 9;
#X obj 304 547 +~ 0.1;
#X obj 48 516 *~ 200;
#X obj 48 547 +~ 20;
#X obj 887 630 send~ rate;
#X obj 1062 630 send~ depth;
#X obj 887 514 *~ 100;
#X obj 887 433 adc~ 8;
#X obj 1062 433 adc~ 10;
#X obj 51 308 hsl 128 17 0 1 0 0 empty empty empty -2 -8 0 10 #ebebeb #000000 #e1e1e1 0 0;
#X obj 255 308 hsl 128 17 0 1 0 0 empty empty empty -2 -8 0 10 #ebebeb #000000 #e1e1e1 0 0;
#X obj 48 435 line~;
#X msg 48 402 \$1 100;
#X obj 252 435 line~;
#X msg 252 402 \$1 100;
#X obj 442 308 hsl 128 17 0 1 0 0 empty empty empty -2 -8 0 10 #ebebeb #000000 #e1e1e1 0 0;
#X obj 439 433 line~;
#X msg 439 400 \$1 100;
#X obj 641 308 hsl 128 17 0 1 0 0 empty empty empty -2 -8 0 10 #ebebeb #000000 #e1e1e1 0 0;
#X obj 638 435 line~;
#X msg 638 402 \$1 100;
#X obj 830 308 hsl 128 17 0 1 0 0 empty empty empty -2 -8 0 10 #ebebeb #000000 #e1e1e1 0 0;
#X obj 827 435 line~;
#X msg 827 402 \$1 100;
#X obj 999 308 hsl 128 17 0 1 0 0 empty empty empty -2 -8 0 10 #ebebeb #000000 #e1e1e1 0 0;
#X obj 996 434 line~;
#X msg 996 401 \$1 100;
#X text 48 50 —————————————————————————————, f 61;
#X text 48 40 FM synthesizer;
#N canvas 733 172 450 300 fm 0;
#X obj 272 288 +~;
#X obj 345 188 osc~;
#X obj 345 237 *~;
#X obj 345 135 *~;
#X obj 425 188 *~;
#X obj 272 325 osc~;
#X obj 319 325 receive~ amplitude;
#X obj 272 399 *~;
#X obj 75 151 line~;
#X obj 272 536 *~;
#X msg 75 116 \$1 200;
#X obj 272 48 receive~ frequency;
#X obj 356 85 receive~ harmonicity;
#X obj 436 135 receive~ ratio;
#X obj 506 242 osc~;
#X obj 506 188 receive~ rate, f 14;
#X obj 506 325 *~;
#X obj 558 242 receive~ depth;
#X obj 506 366 *~ 0.5;
#X obj 506 399 +~ 0.5;
#X obj 272 472 *~;
#X obj 75 48 inlet;
#X obj 272 591 outlet~;
#X obj 125 48 receive PUSH;
#X connect 0 0 5 0 32.................D..........A.........b.....;
#X connect 1 0 2 0 32.................O.........vC.........3A....;
#X connect 2 0 0 1 32.................P....L7+++OD....C++++CB....;
#X connect 3 0 1 0 32.................Q.........PD.........HB....;
#X connect 3 0 4 0 32.................Q.....E...PD....PA...HB....;
#X connect 4 0 2 1 32.................O....v6++++C....79+++6A....;
#X connect 5 0 7 0 32.................g.........PH.........HD....;
#X connect 6 0 7 1 32.................g....z8+++eH....c++++KD....;
#X connect 7 0 20 0 32.................a.........vF.........XC....;
#X connect 8 0 9 1 32.................VE....M...fUA...PC...3V....;
#X connect 9 0 22 0 32.................R.........fD.........PB....;
#X connect 10 0 8 0 32.................H..........B..........A....;
#X connect 11 0 0 0 32.................uA........va.........zM....;
#X connect 11 0 3 0 32.................y....jD...vL....IA...PD....;
#X connect 12 0 3 1 32.................P..........D.........7A....;
#X connect 13 0 4 1 32.................Q.........PD.........HB....;
#X connect 14 0 16 0 32.................a.........vF.........TC....;
#X connect 15 0 14 0 32.................R.........fD.........LB....;
#X connect 16 0 18 0 32.................Q.........PD.........DB....;
#X connect 17 0 16 1 32.................a....f8++++F....X++++WC....;
#X connect 18 0 19 0 32.................G.........vA.........3.....;
#X connect 19 0 20 1 32.................a....Hx++++F....h7+++aC....;
#X connect 20 0 9 0 32.................W.........vE.........zB....;
#X connect 21 0 10 0 32.................Y.........PF.........DC....;
#X connect 23 0 10 0 32.................Y....77+++eF....O++++GC....;
#X restore 887 118 pd fm;
#X text 878 40 on/off;
#X text 48 282 frequency;
#X text 252 282 harmonicity;
#X text 439 282 ratio;
#X text 637 282 amplitude;
#X text 827 282 rate (amplitude);
#X text 995 282 depth (amplitude);
#X obj 1062 514 *~ 1;
#X obj 304 435 r PUSH1;
#X obj 268 118 r Knob1 @hv_param;
#X obj 438 118 r Knob2 @hv_param;
#X obj 48 180 s PUSH1;
#X obj 268 180 s CV1;
#X obj 438 180 s CV2;
#X obj 302 342 r CV1;
#X obj 613 41 r Encoder @hv_param;
#X obj 613 180 s CV3;
#N canvas 733 172 450 300 multiplier 0;
#X obj 81 194 f;
#X obj 58 157 +;
#X obj 58 51 inlet;
#X obj 58 244 outlet;
#X obj 58 108 * 1;
#X obj 114 51 inlet;
#X connect 0 0 1 1 48.................J....DB...fB....g....36+++e8++++99+++W++++ex++++;
#X connect 1 0 0 0 32.................I....bA...PB....W....HA....;
#X connect 1 0 3 0;
#X connect 2 0 4 0;
#X connect 4 0 1 0;
#X connect 5 0 4 1 32.................S....P8++++D....T++++aB....;
#X restore 613 118 pd multiplier;
#X obj 763 41 loadbang;
#X obj 938 68 r PUSH1;
#X msg 763 68 0.01;
#X msg 1156 308 0.4;
#X msg 1202 333 0.8;
#X obj 1156 247 loadbang;
#X obj 191 247 loadbang;
#X msg 193 308 0;
#X obj 891 68 tgl 18 0 empty empty empty 0 -9 0 10 #fcfcfc #000000 #000000 0 1;
#X obj 489 342 r CV3;
#X obj 687 342 r CV2;
#X connect 1 0 0 0 32.................V....zD...fE....MA...rB....;
#X connect 1 0 52 0 32.................V.........fE.........rB....;
#X connect 4 0 3 0 32.................w.........PL.........DF....;
#X connect 6 0 8 0 32.................w.........PL.........DF....;
#X connect 9 0 12 0 32.................F.........fA.........v.....;
#X connect 10 0 6 0 32.................e.........vG.........zC....;
#X connect 11 0 4 0 32.................e.........vG.........zC....;
#X connect 12 0 7 0 32.................f..........H..........D....;
#X connect 13 0 14 0 32.................F.........fA.........v.....;
#X connect 14 0 5 0 32.................f..........H..........D....;
#X connect 17 0 15 0 32.................w.........PL.........DF....;
#X connect 18 0 17 0 32.................e.........vG.........3C....;
#X connect 19 0 48 0 32.................e.........vG.........3C....;
#X connect 20 0 23 0 32.................m.........vI.........zD....;
#X connect 21 0 25 0 32.................m.........vI.........zD....;
#X connect 22 0 13 0 32.................e.........vG.........3C....;
#X connect 23 0 22 0 32.................G.........vA.........3.....;
#X connect 24 0 9 0 32.................e....PC...vG....z....3C....;
#X connect 25 0 24 0 32.................G.........vA.........3.....;
#X connect 26 0 28 0 32.................l.........fI.........rD....;
#X connect 27 0 6 0 32.................e....TC...vG....0....3C....;
#X connect 28 0 27 0 32.................G.........vA.........3.....;
#X connect 29 0 31 0 32.................m.........vI.........zD....;
#X connect 30 0 4 0 32.................d....rC...fG....6....vC....;
#X connect 31 0 30 0 32.................G.........vA.........3.....;
#X connect 32 0 34 0 32.................m.........vI.........zD....;
#X connect 33 0 17 0 32.................d....vC...fG....7....vC....;
#X connect 34 0 33 0 32.................G.........vA.........3.....;
#X connect 35 0 37 0 32.................l.........fI.........vD....;
#X connect 36 0 48 0 32.................e....HD...vG....BA...zC....;
#X connect 37 0 36 0 32.................G.........vA.........3.....;
#X connect 40 0 2 1 32.................V....PB...fE....j....rB....;
#X connect 40 0 2 0 32.................V.........fE.........rB....;
#X connect 48 0 16 0 32.................w.........PL.........DF....;
#X connect 49 0 9 0 32.................e.........vG.........3C....;
#X connect 50 0 53 0 32.................V.........fE.........rB....;
#X connect 51 0 54 0 32.................V.........fE.........rB....;
#X connect 55 0 25 0 32.................U....77+++eE....O++++mB....;
#X connect 56 0 58 0 32.................c.........PG.........jC....;
#X connect 58 0 57 0 32.................V.........fE.........rB....;
#X connect 59 0 61 0 32.................D..........A.........b.....;
#X connect 60 0 40 0 32.................P....37+++OD....N+++++A....;
#X connect 61 0 58 1 32.................P....X5+++OD....l9++++A....;
#X connect 62 0 34 0 32.................Y....fq+++eF....35+++uD....;
#X connect 63 0 37 0 32.................Y....Ly+++eF....y7+++GC....;
#X connect 64 0 63 0 32.................h....3B...fH....t....LD....;
#X connect 64 0 62 0 32.................U.........PE.........nB....;
#X connect 65 0 66 0 32.................U.........PE.........nB....;
#X connect 66 0 23 0 32.................Y....H2+++eF....x8+++uD....;
#X connect 67 0 40 0 32.................P..........D..........B....;
#X connect 68 0 28 0 32.................T....77+++OE....O++++eB....;
#X connect 69 0 31 0 32.................U.....8+++eE....P++++mB....;
