#N canvas 675 60 572 757 12;
#X obj 252 785 outlet~;
#X obj 252 487 +~, f 6;
#X obj 252 547 *~ 44.1;
#X obj 269 443 *~ 50, f 6;
#X obj 252 650 *~;
#X obj 91 590 tabread~ wndw;
#X obj 91 550 *~ 1;
#X obj 145 507 r trisize;
#X text 125 465 gain multiplided by tri window, f 15;
#X obj 269 338 oneshot~ 20;
#X obj 252 176 unpack 0 0 0;
#X floatatom 429 256 5 0 0 0 - - - 0;
#X floatatom 252 256 5 0 0 0 - - - 0;
#X floatatom 364 256 5 0 0 0 - - - 0;
#X text 279 255 position;
#X text 252 68 Trigger gain with message: position (ms) \, grandur \, transposition (cts), f 58;
#X obj 333 366 tgl 19 0 empty empty empty 0 -10 0 12 #fcfcfc #000000 #000000 0 1;
#X obj 654 443 spigot;
#X obj 654 786 outlet;
#X text 707 784 overflow;
#X obj 252 93 inlet;
#X obj 252 745 *~ 0.5;
#X text 364 744 set gain for each grain here;
#N canvas 306 163 438 417 ramp-calc 0;
#X floatatom 246 197 0 0 0 0 - - - 0;
#X floatatom 193 199 0 0 0 0 - - - 0;
#X floatatom 193 309 5 0 0 0 - - - 0;
#X floatatom 246 69 5 0 0 0 - - - 0;
#X obj 246 86 / 1200;
#X obj 246 151 pow;
#X obj 246 107 t b f;
#X msg 246 128 2;
#X text 287 69 cents;
#X text 286 152 12th root of 2;
#X text 276 197 frequency multiple;
#X text 145 24 gran dur (ms);
#X obj 193 342 outlet;
#X obj 128 341 outlet;
#X text 249 24 basepitch;
#X obj 246 47 inlet;
#X obj 190 45 inlet;
#X obj 246 220 t b f;
#X obj 128 278 *;
#X text 30 368 pitch adjusted gran dur;
#X connect 0 0 17 0;
#X connect 1 0 18 0;
#X connect 1 0 2 0;
#X connect 2 0 12 0;
#X connect 3 0 4 0;
#X connect 4 0 6 0;
#X connect 5 0 0 0;
#X connect 6 0 7 0;
#X connect 6 1 5 1;
#X connect 7 0 5 0;
#X connect 15 0 3 0;
#X connect 16 0 1 0;
#X connect 17 0 18 0;
#X connect 17 1 18 1;
#X connect 18 0 13 0;
#X restore 364 230 pd ramp-calc;
#X obj 564 149 samplerate~;
#X obj 564 176 / 1000;
#X floatatom 564 213 5 0 0 0 - - - 0;
#X obj 564 93 loadbang;
#X obj 145 550 print triangle;
#X obj 252 149 spigot;
#X obj 330 443 flip 1;
#X obj 333 487 tgl 19 0 empty empty empty 0 -10 0 12 #fcfcfc #000000 #000000 0 1;
#X obj 720 243 float \$1;
#X obj 723 213 bng 19 250 50 0 empty empty empty 17 7 0 10 #dfdfdf #000000 #000000;
#X text 746 212 instance number;
#X obj 720 185 loadbang;
#X obj 314 786 outlet~;
#X obj 314 746 *~ 0.5;
#X obj 252 702 pan1~;
#X text 300 700 pan -1 - 1;
#X obj 252 590 tabread~ doublebuf;
#X floatatom 720 269 5 0 0 0 - - - 0;
#X floatatom 769 324 5 0 0 0 - - - 0;
#X obj 769 300 % 2;
#X obj 720 300 / 2;
#X floatatom 720 348 5 0 0 0 - - - 0;
#X obj 720 324 i;
#X obj 769 347 sel 1;
#X msg 770 395 -1;
#X msg 798 395 1;
#X obj 720 443 *;
#X floatatom 720 466 5 0 0 0 - - - 0;
#X obj 720 371 * 0.15;
#X obj 720 395 + 0.2;
#X text 769 450 pan wider \, the higher the instange number. Odd to the left \, even to the right, f 23;
#X text 395 255 dur;
#X text 459 255 ramp time;
#X connect 1 0 2 0 32.................g.........PH.........HD....;
#X connect 2 0 40 0 32.................W.........vE.........zB....;
#X connect 3 0 1 1 32.................M.........PC.........jA....;
#X connect 4 0 38 0 32.................Q.........PD.........DB....;
#X connect 5 0 4 1 32.................V....vJ...fE....rB...jB....;
#X connect 6 0 5 0 32.................M.........PC.........jA....;
#X connect 7 0 28 0 32.................L..........C.........fA....;
#X connect 7 0 6 1 32.................L....X8+++OC....V++++iA....;
#X connect 9 0 3 0 32.................q.........vJ.........XE....;
#X connect 9 0 6 0 32.................a....f1++++F....n8+++uV....;
#X connect 9 1 16 0 32.................E.........PA.........j.....;
#X connect 10 0 12 0 32.................R.........fD.........PB....;
#X connect 10 1 23 0 32.................R....nC...fD....5....LB....;
#X connect 10 2 23 1 32.................R....rE...fD....aA...LB....;
#X connect 11 0 9 0 32.................g....b1+++eH....m8+++mE....;
#X connect 12 0 1 0 32.................2A........vc.........3N....;
#X connect 13 0 3 1 32.................TB...v7+++Ok....L++++mJ....;
#X connect 16 0 30 0 32.................c.........PG.........nC....;
#X connect 16 0 17 1 32.................T....rU....E....aE...nC....;
#X connect 17 0 18 0 32.................aC........v1.........Xa....;
#X connect 20 0 29 0 32.................S.........vD.........TB....;
#X connect 20 0 17 0 64.................P....rK....D....6B....A...f5....P....nN....D....1E....A...fcA...AF....;
#X connect 21 0 0 0 32.................K.........vB.........TA....;
#X connect 23 0 13 0 32.................D..........A.........b.....;
#X connect 23 1 11 0 32.................D.....A....A....P....b.....;
#X connect 24 0 25 0 32.................C.........v..........T.....;
#X connect 25 0 26 0 32.................C.........v..........T.....;
#X connect 26 0 2 1 32.................sD...Tt+++eKA...k6+++yS....;
#X connect 27 0 24 0 32.................P..........D.........7A....;
#X connect 29 0 10 0 32.................D..........A.........f.....;
#X connect 30 0 31 0 32.................M.........PC.........jA....;
#X connect 31 0 29 1 48.................M....fL...PC....HC...Do+++ux++++Q5+++q7+++Om9+++;
#X connect 32 0 41 0 32.................D..........A.........b.....;
#X connect 33 0 32 0 32.................F.........fA.........r.....;
#X connect 35 0 33 0 32.................E.........PA.........j.....;
#X connect 37 0 36 0 32.................K.........vB.........TA....;
#X connect 38 0 21 0 32.................L..........C.........fA....;
#X connect 38 1 37 0 32.................M....jB...PC....o....jA....;
#X connect 40 0 4 0 32.................g.........PH.........HD....;
#X connect 41 0 44 0 32.................G.........vA.........z.....;
#X connect 41 0 43 0 32.................G....DC...vA....w....z.....;
#X connect 42 0 47 0 32.................C.........v..........T.....;
#X connect 43 0 42 0 32.................C.........v..........T.....;
#X connect 44 0 46 0 32.................C.........v..........T.....;
#X connect 45 0 52 0 32.................C.........v..........T.....;
#X connect 46 0 45 0 32.................C.........v..........T.....;
#X connect 47 0 48 0 32.................O.........vC.........zA....;
#X connect 47 1 49 0 32.................O....3....vC....N....zA....;
#X connect 48 0 50 1 32.................O....r8++++C....a++++2A....;
#X connect 49 0 50 1 32.................O....D7++++C....A++++2A....;
#X connect 50 0 51 0 32.................B.........f..........P.....;
#X connect 51 0 38 1 32.................GC...Hj++++w....B4+++qM....;
#X connect 52 0 53 0 32.................C.........v..........T.....;
#X connect 53 0 50 0 32.................O.........vC.........zA....;
