#N canvas 75 267 281 265 10;
#X obj 28 103 samphold~;
#X obj 25 19 inlet~;
#X obj 99 5 inlet~;
#X obj 99 73 *~ -1;
#X obj 25 231 outlet~;
#X obj 71 172 snapshot~;
#X obj 166 125 tgl 15 0 empty empty empty 20 8 0 8 -262144 -1 -1 1
1;
#X obj 71 143 metro 0;
#X obj 172 73 loadbang;
#X obj 107 232 outlet;
#X obj 100 26 snapshot~;
#X obj 119 49 > 0;
#X connect 0 0 5 0;
#X connect 0 0 4 0;
#X connect 1 0 0 0;
#X connect 2 0 10 0;
#X connect 3 0 0 1;
#X connect 5 0 9 0;
#X connect 6 0 7 0;
#X connect 7 0 5 0;
#X connect 7 0 10 0;
#X connect 8 0 6 0;
#X connect 10 0 11 0;
#X connect 11 0 3 0;
