#N canvas 3 93 293 170 10;
#X obj 175 76 - \$1;
#X obj 175 98 abs;
#X floatatom 175 119 5 0 0 0 - - -;
#X floatatom 175 59 5 0 0 0 - - -;
#X obj 175 137 outlet;
#X obj 175 38 inlet;
#X connect 0 0 1 0;
#X connect 1 0 2 0;
#X connect 2 0 4 0;
#X connect 3 0 0 0;
#X connect 5 0 3 0;
