#N canvas 423 38 562 766 12;
#X obj 68 613 r gain;
#X obj 43 14 r gfreq;
#X obj 27 687 *~;
#X obj 27 726 outlet~;
#X obj 25 354 +~, f 6;
#X text 119 716 sample and hold (change value only when wave~ outputs signal 0 __for avoiding noises when play position is changed );
#X obj 110 14 inlet;
#X obj 261 57 inlet~;
#X obj 26 426 tabread~ playobject;
#X obj 350 60 inlet~;
#X text 261 228 play position in sample (ms);
#X obj 25 231 samphold~;
#X obj 117 229 samphold~;
#X obj 117 284 snapshot~;
#X obj 340 170 metro 0;
#X obj 340 131 tgl 19 0 empty empty empty 0 -10 0 12 #fcfcfc #000000 #000000 0 1;
#X obj 340 100 loadbang;
#X text 261 255 sync envelope of grain with phasor~;
#X text 160 13 different phase for each grain;
#X obj 43 70 phasor~ 20;
#X obj 26 387 *~ 44.1;
#X obj 64 316 *~ 50, f 8;
#X text 260 32 control;
#X text 352 37 gdur;
#X obj 26 608 *~;
#X obj 45 564 tabread~ wndw;
#X obj 44 520 *~ 1;
#X obj 70 482 r trisize;
#X text 150 564 gain multiplided by tri window;
#X obj 46 656 sig~;
#X connect 0 0 29 0;
#X connect 1 0 19 0;
#X connect 2 0 3 0;
#X connect 4 0 20 0;
#X connect 6 0 19 1;
#X connect 7 0 11 0;
#X connect 8 0 24 0;
#X connect 9 0 12 0;
#X connect 11 0 4 0;
#X connect 12 0 13 0;
#X connect 13 0 21 1;
#X connect 14 0 13 0;
#X connect 15 0 14 0;
#X connect 16 0 15 0;
#X connect 19 0 11 1;
#X connect 19 0 12 1;
#X connect 19 0 26 0;
#X connect 19 0 21 0;
#X connect 20 0 8 0;
#X connect 21 0 4 1;
#X connect 24 0 2 0;
#X connect 25 0 24 1;
#X connect 26 0 25 0;
#X connect 27 0 26 1;
#X connect 29 0 2 1;
