#N canvas 0 171 827 612 12;
#X obj 275 431 r gain;
#X obj 251 26 r gfreq;
#X obj 235 466 *~;
#X obj 236 501 outlet~;
#X obj 252 61 phasor~ 20;
#X obj 256 275 *~ 50;
#X obj 234 305 +~;
#X obj 235 409 *~;
#X text 412 13 defferent phase for each grain;
#X text 67 525 sample and hold (change value only when wave~ outputs
signal 0 __for avoiding noises when play position is changed );
#X obj 309 150 tabread~ wndw;
#X obj 351 14 inlet;
#X text 438 147 sync envelope of grain with reading sample;
#X obj 269 121 *~ 1;
#X obj 457 38 inlet~;
#X obj 234 373 tabread~ playobject;
#X obj 546 41 inlet~;
#X obj 329 91 r trisize;
#X obj 235 333 mstosamps~;
#X obj 131 83 -~ 1;
#X obj 135 136 max~ -0.01;
#X obj 131 111 min~ 1.01;
#X obj 258 85 +~ 0.1;
#X text 11 15 play position in sample (ms);
#X obj 226 189 exsah~ 0;
#X obj 316 221 exsah~ 0;
#X obj 132 59 *~ 2;
#X connect 0 0 2 1;
#X connect 1 0 4 0;
#X connect 2 0 3 0;
#X connect 4 0 22 0;
#X connect 5 0 6 1;
#X connect 6 0 18 0;
#X connect 7 0 2 0;
#X connect 10 0 7 1;
#X connect 10 0 24 1;
#X connect 10 0 25 1;
#X connect 11 0 4 1;
#X connect 13 0 10 0;
#X connect 14 0 24 0;
#X connect 15 0 7 0;
#X connect 16 0 25 0;
#X connect 17 0 13 1;
#X connect 18 0 15 0;
#X connect 19 0 21 0;
#X connect 20 0 13 0;
#X connect 20 0 5 0;
#X connect 21 0 20 0;
#X connect 22 0 26 0;
#X connect 24 0 6 0;
#X connect 25 1 5 1;
#X connect 26 0 19 0;
