#N canvas 0 22 635 580 10;
#X obj 245 37 inlet;
#X obj 106 6 inlet;
#X obj 221 -11 inlet;
#X obj 245 67 sel 1;
#X msg 245 88 0;
#X obj 206 155 spigot;
#X obj 168 85 sel;
#X obj 186 47 i;
#X msg 168 113 1;
#X obj 149 49 i;
#X obj 206 199 outlet;
#X text 355 197 comment;
#X text 22 40 input 1;
#X text 233 13 input 2;
#X text 41 269 one turns latch on \; input switches from input 2 to
input 1;
#X floatatom 373 91 5 0 0 0 - - -;
#X floatatom 80 162 5 0 0 0 - - -;
#X obj 283 160 outlet;
#X connect 0 0 3 0;
#X connect 1 0 5 0;
#X connect 1 0 9 0;
#X connect 2 0 10 0;
#X connect 2 0 7 0;
#X connect 3 0 4 0;
#X connect 4 0 5 1;
#X connect 4 0 17 0;
#X connect 5 0 10 0;
#X connect 6 0 8 0;
#X connect 7 0 6 1;
#X connect 7 0 15 0;
#X connect 8 0 5 1;
#X connect 8 0 17 0;
#X connect 9 0 6 0;
#X connect 9 0 16 0;
