#N canvas 162 22 1033 720 10;
#X obj -277 130 roll -ve and x +ve quad 1;
#X obj -278 170 both -ve quad 3;
#X obj -283 192 roll +ve and x -ve quad 4;
#X obj -279 149 both +ve quad 2;
#X obj -341 131 x 0 to 1;
#X obj -339 150 x 1 to 0;
#X obj -345 172 x 0 to -1;
#X obj -348 193 x -1 to 0;
#X text -117 60 roll;
#X obj 24 63 inlet;
#X text 8 62 x;
#X text -507 215 so \, make quad 2 go from 1 to 2 if x and r are both
above 0 calculate 2 - x make quad 3 -1 to -2 if x and r are both below
0 \, -2 - x;
#X obj -48 197 +;
#X obj -48 242 tgl 15 0 empty empty empty 17 7 0 10 -262144 -1 -1 1
1;
#X obj -87 313 spigot;
#X obj -35 286 == 0;
#X obj 6 362 spigot;
#X obj -87 340 t b f;
#X obj -87 398 -;
#X obj 68 170 +;
#X obj 68 230 tgl 15 0 empty empty empty 17 7 0 10 -262144 -1 -1 0
1;
#X obj 5 429 spigot;
#X obj 67 260 == 0;
#X obj 5 395 spigot;
#X floatatom 8 530 5 0 0 0 - - -;
#X obj 68 142 tgl 15 0 empty empty empty 17 7 0 10 -262144 -1 -1 0
1;
#X obj 68 200 == 2;
#X obj 134 143 tgl 15 0 empty empty empty 17 7 0 10 -262144 -1 -1 0
1;
#X obj -44 157 tgl 15 0 empty empty empty 17 7 0 10 -262144 -1 -1 1
1;
#X obj 14 158 tgl 15 0 empty empty empty 17 7 0 10 -262144 -1 -1 1
1;
#X obj -48 219 == 2;
#X obj 252 106 f \$1;
#X obj 253 142 -;
#X obj 252 79 inlet;
#X obj 9 579 + 2;
#X obj 9 605 * 10000;
#X obj 9 628 mod 40000;
#X obj 9 654 / 10000;
#X floatatom 9 678 5 0 0 0 - - -;
#X obj 273 33 bng 15 250 50 0 empty empty empty 17 7 0 10 -262144 -1
-1;
#X obj 9 549 + 0;
#X floatatom 152 805 5 0 0 0 - - -;
#X obj 9 706 - 1;
#X obj 6 732 abs;
#X obj 7 758 - 1;
#X floatatom 7 784 5 0 0 0 - - -;
#X obj 6 802 moses 1;
#X obj 51 825 sel 1;
#X floatatom 6 889 5 0 0 0 - - -;
#X msg 50 854 1;
#X obj 83 861 t b f;
#X msg 89 887 1;
#X obj 97 913 -;
#X obj 113 831 - 1;
#X obj 6 947 outlet;
#X obj 197 75 inlet;
#X obj 20 117 > 0;
#X obj -48 116 > 0;
#X obj 67 116 <= 0;
#X obj 135 117 <= 0;
#X floatatom -101 104 5 0 0 0 - - -;
#X floatatom 123 36 5 0 0 0 - - -;
#X obj -26 346 tgl 15 0 empty empty empty 17 7 0 10 -262144 -1 -1 0
1;
#X obj -55 65 inlet;
#X obj -87 369 f;
#X obj -119 328 f;
#X obj -103 274 * 2;
#X obj -150 272 sel 1;
#X obj -41 472 f;
#X obj -43 447 * 2;
#X obj -83 446 sel 1;
#X obj 7 455 t b f;
#X obj 8 475 f;
#X obj 8 502 -;
#X obj -66 710 - 1;
#X obj -66 806 outlet;
#X connect 9 0 16 0;
#X connect 9 0 14 0;
#X connect 9 0 32 1;
#X connect 9 0 41 0;
#X connect 9 0 56 0;
#X connect 9 0 59 0;
#X connect 9 0 61 0;
#X connect 9 0 66 0;
#X connect 9 0 69 0;
#X connect 12 0 30 0;
#X connect 13 0 14 1;
#X connect 13 0 15 0;
#X connect 13 0 67 0;
#X connect 14 0 17 0;
#X connect 15 0 16 1;
#X connect 15 0 62 0;
#X connect 16 0 21 0;
#X connect 16 0 23 0;
#X connect 17 0 64 0;
#X connect 17 1 18 1;
#X connect 18 0 21 0;
#X connect 18 0 23 0;
#X connect 19 0 26 0;
#X connect 20 0 21 1;
#X connect 20 0 22 0;
#X connect 20 0 70 0;
#X connect 21 0 71 0;
#X connect 22 0 23 1;
#X connect 23 0 24 0;
#X connect 24 0 40 0;
#X connect 25 0 19 0;
#X connect 26 0 20 0;
#X connect 27 0 19 1;
#X connect 28 0 12 0;
#X connect 29 0 12 1;
#X connect 30 0 13 0;
#X connect 31 0 32 0;
#X connect 32 0 40 1;
#X connect 33 0 31 0;
#X connect 34 0 35 0;
#X connect 35 0 36 0;
#X connect 36 0 37 0;
#X connect 37 0 38 0;
#X connect 38 0 42 0;
#X connect 38 0 74 0;
#X connect 39 0 31 0;
#X connect 40 0 34 0;
#X connect 42 0 43 0;
#X connect 43 0 44 0;
#X connect 44 0 45 0;
#X connect 45 0 46 0;
#X connect 46 0 48 0;
#X connect 46 1 47 0;
#X connect 47 0 49 0;
#X connect 47 1 53 0;
#X connect 48 0 54 0;
#X connect 49 0 48 0;
#X connect 50 0 51 0;
#X connect 50 1 52 1;
#X connect 51 0 52 0;
#X connect 52 0 48 0;
#X connect 53 0 50 0;
#X connect 55 0 31 1;
#X connect 56 0 29 0;
#X connect 57 0 28 0;
#X connect 58 0 25 0;
#X connect 59 0 27 0;
#X connect 63 0 57 0;
#X connect 63 0 58 0;
#X connect 63 0 60 0;
#X connect 64 0 18 0;
#X connect 65 0 64 1;
#X connect 66 0 65 1;
#X connect 67 0 65 0;
#X connect 68 0 72 1;
#X connect 69 0 68 1;
#X connect 70 0 68 0;
#X connect 71 0 72 0;
#X connect 71 1 73 1;
#X connect 72 0 73 0;
#X connect 73 0 24 0;
#X connect 74 0 75 0;
