#N canvas 296 137 391 415 10;
#X obj 69 50 inlet~;
#X obj 175 50 inlet;
#X obj 175 72 clip -1 1;
#X obj 175 146 pack 0 100;
#X obj 175 173 line~;
#X obj 85 234 cos~;
#X obj 69 274 *~;
#X obj 69 305 outlet~;
#X obj 175 201 +~ 0.75;
#X obj 175 234 cos~;
#X obj 159 274 *~;
#X obj 159 305 outlet~;
#X text 5 1 pan1~;
#X text 214 48 pan (-1 = L : 1 = R);
#X text 88 321 L;
#X text 178 321 R;
#X text 9 357 xjimmies lib. z. settel/jm dumas 2003-2007;
#X obj 175 94 + 1;
#X obj 175 121 * 0.125;
#X text 68 2 mono paning unit;
#X connect 0 0 6 0;
#X connect 0 0 10 0;
#X connect 1 0 2 0;
#X connect 2 0 17 0;
#X connect 3 0 4 0;
#X connect 4 0 8 0;
#X connect 4 0 5 0;
#X connect 5 0 6 1;
#X connect 6 0 7 0;
#X connect 8 0 9 0;
#X connect 9 0 10 1;
#X connect 10 0 11 0;
#X connect 17 0 18 0;
#X connect 18 0 3 0;
