#N canvas 1099 250 1188 766 10;
#X text 883 364 Audio inputs;
#X text 883 413 Audio outputs;
#X text 614 70 Initialise LEDs \, buttons and trigger inputs;
#X text 869 115 Analog (CV) inputs;
#X text 869 165 Analog (CV) outputs;
#X text 65 80 —————————————————————————————, f 61;
#X text 66 70 Template – Bela Pepper;
#X obj 700 415 throw~ outL;
#X obj 795 416 throw~ outR;
#X obj 523 534 s screenLine1;
#X msg 522 506 1: Attack \$1 ms;
#X obj 828 486 loadbang;
#X obj 828 534 s screenLine4;
#X msg 828 509 blah blah;
#X msg 637 506 Two here;
#X obj 643 539 s screenLine2;
#X obj 737 539 s screenLine3;
#X msg 730 506 Three here;
#X text 947 533 OLED screen;
#X obj 515 114 r knob1;
#X obj 571 115 r knob2;
#X obj 625 114 r knob3;
#X obj 631 235 r notes;
#X obj 631 257 unpack;
#X floatatom 631 279 5 0 0 0 - - - 0;
#X obj 631 300 mtof;
#X floatatom 632 325 5 0 0 0 - - - 0;
#X obj 683 278 sel 0;
#X text 879 256 Keyboard (wooden button) input as MIDI;
#X obj 677 115 r knob4;
#X connect 10 0 9 0;
#X connect 11 0 13 0;
#X connect 13 0 12 0;
#X connect 14 0 15 0;
#X connect 17 0 16 0;
#X connect 22 0 23 0;
#X connect 23 0 24 0;
#X connect 23 1 27 0;
#X connect 24 0 25 0;
#X connect 25 0 26 0;
