#N canvas 79 22 1134 537 10;
#X text 968 679 LEDs;
#X obj 63 379 adc~ 3 4 5 6 7 8 9 10, f 60;
#X obj 63 429 dac~ 3 4 5 6 7 8 9 10, f 60;
#X obj 63 631 adc~ 1 2, f 11;
#X obj 63 680 dac~ 1 2, f 11;
#X text 136 630 Audio inputs;
#X text 136 679 Audio outputs;
#X obj 63 501 buttons, f 58;
#X obj 63 553 print Button 1:;
#X obj 171 553 print Button 2:;
#X obj 279 680 bela_scope~;
#X text 368 679 Bela scope;
#X obj 65 334 initialise_digitals;
#X text 176 333 Initialise LEDs \, buttons and trigger inputs;
#X text 418 500 Read from all buttons;
#X text 431 378 Analog (CV) inputs;
#X text 431 428 Analog (CV) outputs;
#X obj 283 554 print Button 3:;
#X obj 393 554 print Button 4:;
#X text 65 80 —————————————————————————————, f 61;
#X obj 63 524 tgl 25 0 empty empty empty 17 7 0 10 #191919 #e1e1e1 #e1e1e1 0 1;
#X obj 171 524 tgl 25 0 empty empty empty 17 7 0 10 #191919 #e1e1e1 #e1e1e1 0 1;
#X obj 283 524 tgl 25 0 empty empty empty 17 7 0 10 #191919 #e1e1e1 #e1e1e1 0 1;
#X obj 393 524 tgl 25 0 empty empty empty 17 7 0 10 #191919 #e1e1e1 #e1e1e1 0 1;
#X text 65 70 Template – Bela Pepper;
#X obj 596 680 led-bargraph, f 60;
#X obj 596 536 loadbang;
#X obj 596 578 f;
#X obj 625 578 + 1;
#X obj 596 622 flasher, f 60;
#X text 672 556 Flash LEDs in sequence;
#X obj 596 557 metro 150;
#X obj 596 599 % 10;
#X text 65 114 This patch contains everything you need to get started with;
#X text 65 204 We initialise the buttons and LEDs \, print when a button is;
#X text 65 224 pushed \, flash leds in sequence \, pass CV in to CV out \, pass;
#X text 65 244 audio in to audio out \, and generate a test tone.;
#X text 65 134 PEPPER and is a good starting point when building your own, f 60;
#X text 65 154 patches.;
#X text 65 264 Also try sending a signal to bela_scope~ to visualise it \,;
#X text 65 284 click the scope button in the Bela IDE to see the signals.;
#X obj 672 648 tgl 25 0 empty empty empty 0 -10 0 10 #191919 #e1e1e1 #e1e1e1 0 1;
#X obj 596 648 tgl 25 0 empty empty empty 0 -10 0 10 #191919 #e1e1e1 #e1e1e1 0 1;
#X obj 634 648 tgl 25 0 empty empty empty 0 -10 0 10 #191919 #e1e1e1 #e1e1e1 0 1;
#X obj 711 648 tgl 25 0 empty empty empty 0 -10 0 10 #191919 #e1e1e1 #e1e1e1 0 1;
#X obj 749 648 tgl 25 0 empty empty empty 0 -10 0 10 #191919 #e1e1e1 #e1e1e1 0 1;
#X obj 787 648 tgl 25 0 empty empty empty 0 -10 0 10 #191919 #e1e1e1 #e1e1e1 0 1;
#X obj 826 648 tgl 25 0 empty empty empty 0 -10 0 10 #191919 #e1e1e1 #e1e1e1 0 1;
#X obj 864 648 tgl 25 0 empty empty empty 0 -10 0 10 #191919 #e1e1e1 #e1e1e1 0 1;
#X obj 902 648 tgl 25 0 empty empty empty 0 -10 0 10 #191919 #e1e1e1 #e1e1e1 0 1;
#X obj 941 648 tgl 25 0 empty empty empty 0 -10 0 10 #191919 #e1e1e1 #e1e1e1 0 1;
#X connect 3 0 4 0;
#X connect 3 1 4 1;
#X connect 7 0 20 0;
#X connect 7 1 21 0;
#X connect 7 2 22 0;
#X connect 7 3 23 0;
#X connect 20 0 8 0;
#X connect 21 0 9 0;
#X connect 22 0 17 0;
#X connect 23 0 18 0;
#X connect 26 0 31 0;
#X connect 27 0 28 0;
#X connect 27 0 32 0;
#X connect 28 0 27 1;
#X connect 29 0 42 0;
#X connect 29 1 43 0;
#X connect 29 2 41 0;
#X connect 29 3 44 0;
#X connect 29 4 45 0;
#X connect 29 5 46 0;
#X connect 29 6 47 0;
#X connect 29 7 48 0;
#X connect 29 8 49 0;
#X connect 29 9 50 0;
#X connect 31 0 27 0;
#X connect 32 0 29 0;
#X connect 41 0 25 2;
#X connect 42 0 25 0;
#X connect 43 0 25 1;
#X connect 44 0 25 3;
#X connect 45 0 25 4;
#X connect 46 0 25 5;
#X connect 47 0 25 6;
#X connect 48 0 25 7;
#X connect 49 0 25 8;
#X connect 50 0 25 9;
