#N canvas 532 390 461 570 12;
#X obj 154 37 loadbang;
#X obj 154 61 bng 19 250 50 0 empty empty empty 0 -10 0 12 #fcfcfc #000000 #000000;
#X obj 291 149 * 0.5;
#X msg 290 120 1000;
#X floatatom 291 297 10 0 0 0 - - - 0;
#X obj 239 54 inlet;
#X text 237 29 Density;
#X floatatom 239 78 5 0 0 0 - - - 0;
#X obj 242 318 *;
#X floatatom 242 495 10 0 0 0 - - - 0;
#X obj 90 324 random 1000;
#X obj 86 161 tgl 19 0 empty empty empty 0 -10 0 12 #fcfcfc #000000 #000000 0 1;
#X obj 85 186 metro 1;
#X obj 186 568 select 1;
#X obj 186 643 bng 19 250 50 0 empty empty empty 0 -10 0 12 #fcfcfc #000000 #000000;
#X obj 90 348 / 1000;
#X floatatom 61 528 5 0 0 0 - - - 0;
#X obj 186 544 >;
#X obj 186 667 outlet;
#X obj 186 621 spigot;
#X obj 225 593 > 0;
#X obj 291 220 1;
#X obj 292 262 /;
#X obj 291 186 t b f;
#X text 367 203 expr 1/\$1;
#X text 362 393 expr 1 - \$1;
#X obj 250 396 1;
#X obj 250 362 t b f;
#X obj 251 438 -;
#X connect 0 0 1 0;
#X connect 1 0 11 0;
#X connect 1 0 3 0;
#X connect 2 0 23 0;
#X connect 3 0 2 0;
#X connect 4 0 8 1;
#X connect 5 0 7 0;
#X connect 7 0 8 0;
#X connect 7 0 20 0;
#X connect 8 0 27 0;
#X connect 9 0 17 1;
#X connect 10 0 15 0;
#X connect 11 0 12 0;
#X connect 12 0 10 0;
#X connect 13 0 19 0;
#X connect 14 0 18 0;
#X connect 15 0 16 0;
#X connect 15 0 17 0;
#X connect 17 0 13 0;
#X connect 19 0 14 0;
#X connect 20 0 19 1;
#X connect 21 0 22 0;
#X connect 22 0 4 0;
#X connect 23 0 21 0;
#X connect 23 1 22 1;
#X connect 26 0 28 0;
#X connect 27 0 26 0;
#X connect 27 1 28 1;
#X connect 28 0 9 0;
