#N canvas 0 0 780 590 10;
#X obj 40 20 inlet~;
#X obj 40 80 wrap~;
#X obj 220 20 r grain_pos;
#X obj 220 45 pack f 80;
#X obj 220 70 line~;
#X obj 284 155 samphold~;
#X obj 360 20 r grain_size;
#X obj 360 45 pack f 80;
#X obj 360 70 line~;
#X obj 40 120 /~;
#X obj 40 145 clip~ 0 1;
#X obj 40 170 *~ 511;
#X obj 40 195 tabread4~ wndw;
#X obj 520 20 r transpose;
#X obj 520 45 pack f 80;
#X obj 520 70 line~;
#X obj 520 95 sig~;
#X obj 520 120 *~;
#X obj 520 155 r grain_rate;
#X obj 520 180 pack f 80;
#X obj 520 205 line~;
#X obj 520 240 r table_size;
#X obj 520 265 sig~;
#X obj 520 290 max~ 4;
#X obj 520 315 *~;
#X obj 520 340 max~ 1e-06;
#X obj 520 365 /~;
#X obj 220 140 *~;
#X obj 220 165 +~;
#X obj 220 190 wrap~;
#X obj 380 245 sig~ 3;
#X obj 380 270 -~;
#X obj 380 295 max~ 1;
#X obj 220 215 *~;
#X obj 220 240 +~ 1;
#X obj 220 265 tabread4~ sample;
#X obj 220 295 *~;
#X obj 220 345 outlet~;
#X obj 40 50 +~ \$1;
#X obj 440 95 r sample_rate;
#X connect 0 0 38 0;
#X connect 1 0 5 1;
#X connect 1 0 27 0;
#X connect 1 0 9 0;
#X connect 2 0 3 0;
#X connect 3 0 4 0;
#X connect 4 0 5 0;
#X connect 5 0 28 1;
#X connect 6 0 7 0;
#X connect 7 0 8 0;
#X connect 8 0 9 1;
#X connect 9 0 10 0;
#X connect 10 0 11 0;
#X connect 11 0 12 0;
#X connect 12 0 36 1;
#X connect 13 0 14 0;
#X connect 14 0 15 0;
#X connect 15 0 17 0;
#X connect 16 0 17 1;
#X connect 17 0 26 0;
#X connect 18 0 19 0;
#X connect 19 0 20 0;
#X connect 20 0 24 1;
#X connect 21 0 22 0;
#X connect 22 0 23 0;
#X connect 23 0 24 0;
#X connect 23 0 31 0;
#X connect 24 0 25 0;
#X connect 25 0 26 1;
#X connect 26 0 27 1;
#X connect 27 0 28 0;
#X connect 28 0 29 0;
#X connect 29 0 33 0;
#X connect 30 0 31 1;
#X connect 31 0 32 0;
#X connect 32 0 33 1;
#X connect 33 0 34 0;
#X connect 34 0 35 0;
#X connect 35 0 36 0;
#X connect 36 0 37 0;
#X connect 38 0 1 0;
#X connect 39 0 16 0;
