#N canvas 64 96 750 640 12;
#X obj 50 30 table sample 441000;
#X obj 50 80 r grain_rate;
#X obj 50 105 pack f 80;
#X obj 50 130 line~;
#X obj 500 387 r amp;
#X obj 500 412 pack f 80;
#X obj 500 437 line~;
#X obj 380 280 r gate;
#X obj 380 305 sel 0 1;
#X msg 340 330 0 300;
#X msg 420 330 1 50;
#X obj 380 360 line~;
#X obj 50 170 phasor~;
#X obj 50 220 grain 0;
#X obj 130 220 grain 0.25;
#X obj 210 220 grain 0.5;
#X obj 290 220 grain 0.75;
#X obj 50 270 *~ 0.5;
#X obj 50 310 *~;
#X obj 50 350 *~;
#X obj 50 390 hip~ 5;
#X obj 50 420 clip~ -1 1;
#X obj 50 450 dac~;
#X obj 222 30 loadbang;
#X obj 309 30 table wndw 512;
#X msg 222 67 \; wndw cosinesum 512 0.5 -0.5;
#X connect 1 0 2 0;
#X connect 2 0 3 0;
#X connect 3 0 12 0;
#X connect 4 0 5 0;
#X connect 5 0 6 0;
#X connect 6 0 19 1;
#X connect 7 0 8 0;
#X connect 8 0 9 0;
#X connect 8 1 10 0;
#X connect 9 0 11 0;
#X connect 10 0 11 0;
#X connect 11 0 18 1;
#X connect 12 0 13 0;
#X connect 12 0 14 0;
#X connect 12 0 15 0;
#X connect 12 0 16 0;
#X connect 13 0 17 0;
#X connect 14 0 17 0;
#X connect 15 0 17 0;
#X connect 16 0 17 0;
#X connect 17 0 18 0;
#X connect 18 0 19 0;
#X connect 19 0 20 0;
#X connect 20 0 21 0;
#X connect 21 0 22 0;
#X connect 21 0 22 1;
#X connect 23 0 25 0;
