#N canvas 100 50 560 480 8;
#X text 10 10 Granular desktop test — open alongside granular.pd, f 63;
#X text 10 29 chiko.aiff must be in the same folder as this patch., f 61;
#X obj 10 66 loadbang;
#X msg 10 161 \; pd dsp 1;
#X obj 130 181 soundfiler;
#X obj 130 201 s table_size;
#X msg 370 161 0.5;
#X obj 370 181 s amp;
#X text 10 226 position (0–1);
#X obj 10 241 hsl 200 20 0 1 0 0 grain_pos empty empty 0 -10 0 12 #b0b0b0 #000000 #000000 0 0;
#X text 10 268 rate Hz (1–20);
#X obj 10 283 hsl 200 20 1 20 0 0 grain_rate empty empty 0 -10 0 12 #b0b0b0 #000000 #000000 0 0;
#X text 10 310 grain size (0.05–0.5);
#X obj 10 325 hsl 200 20 0.05 0.5 0 0 grain_size empty empty 0 -10 0 12 #b0b0b0 #000000 #000000 0 0;
#X text 10 352 transpose (0.5–2.0);
#X obj 10 367 hsl 200 20 0.5 2 0 0 transpose empty empty 0 -10 0 12 #b0b0b0 #000000 #000000 0 0;
#X text 10 400 gate;
#X obj 10 415 tgl 20 1 gate empty empty 0 -10 0 12 #dfdfdf #000000 #000000 0 1;
#X text 50 415 toggle on/off;
#X text 156 65 reload sample;
#X obj 132 66 bng 20 250 50 0 empty empty empty 0 -10 0 12 #dfdfdf #000000 #000000;
#X msg 130 161 read -resize chiko.aiff sample;
#X msg 420 161 10;
#X obj 420 181 s grain_rate;
#X msg 420 201 0.1;
#X obj 420 221 s grain_size;
#X msg 420 241 0;
#X obj 420 261 s grain_pos;
#X msg 420 281 1;
#X obj 420 301 s transpose;
#X msg 420 321 44100;
#X obj 420 341 s sample_rate;
#X connect 2 0 3 0;
#X connect 2 0 21 0;
#X connect 2 0 22 0;
#X connect 2 0 24 0;
#X connect 2 0 26 0;
#X connect 2 0 28 0;
#X connect 2 0 30 0;
#X connect 2 0 6 0;
#X connect 4 0 5 0;
#X connect 6 0 7 0;
#X connect 20 0 21 0;
#X connect 21 0 4 0;
#X connect 22 0 23 0;
#X connect 24 0 25 0;
#X connect 26 0 27 0;
#X connect 28 0 29 0;
#X connect 30 0 31 0;
