#N canvas 316 580 896 193 10;
#X obj 44 142 outlet;
#X obj 73 68 delay 3;
#X text 705 84 Read buttons with debounce;
#X obj 184 142 outlet;
#X obj 213 68 delay 3;
#X obj 45 36 r bela_digitalIn26;
#X obj 185 36 r bela_digitalIn25;
#X obj 334 141 outlet;
#X obj 363 68 delay 3;
#X obj 474 141 outlet;
#X obj 503 68 delay 3;
#X obj 335 36 r bela_digitalIn24;
#X obj 475 36 r bela_digitalIn23;
#X obj 44 107 change;
#X obj 184 107 change;
#X obj 334 105 change;
#X obj 474 105 change;
#X obj 44 69 i;
#X obj 184 69 i;
#X obj 334 69 i;
#X obj 474 69 i;
#X connect 1 0 17 0;
#X connect 4 0 18 0;
#X connect 5 0 1 0;
#X connect 5 0 17 1;
#X connect 6 0 4 0;
#X connect 6 0 18 1;
#X connect 8 0 19 0;
#X connect 10 0 20 0;
#X connect 11 0 8 0;
#X connect 11 0 19 1;
#X connect 12 0 10 0;
#X connect 12 0 20 1;
#X connect 13 0 0 0;
#X connect 14 0 3 0;
#X connect 15 0 7 0;
#X connect 16 0 9 0;
#X connect 17 0 13 0;
#X connect 18 0 14 0;
#X connect 19 0 15 0;
#X connect 20 0 16 0;
