#N canvas 97 371 770 815 12;
#X obj 281 395 phasor~ 20;
#X obj 428 567 *~ 50;
#X obj 396 609 +~, f 5;
#X obj 396 721 *~;
#X obj 151 471 tabread~ wndw;
#X obj 396 665 tabread~ playobject;
#X text 217 628 play position in sample (ms);
#X floatatom 193 272 0 0 0 0 - - - 0;
#X floatatom 151 272 0 0 0 0 - - - 0;
#N canvas 0 23 831 413 exprA 0;
#X floatatom 479 86 5 0 0 0 - - - 0;
#X floatatom 373 50 5 0 0 0 - - - 0;
#X obj 301 120 t b f;
#X msg 304 170 1000;
#X obj 304 210 *;
#X obj 302 266 /;
#X floatatom 302 303 5 0 0 0 - - - 0;
#X obj 248 149 f;
#X obj 249 124 t b;
#X obj 372 7 inlet;
#X obj 475 7 inlet;
#X obj 301 342 outlet;
#X connect 0 0 2 0;
#X connect 0 0 7 1;
#X connect 1 0 5 1;
#X connect 1 0 8 0;
#X connect 2 0 3 0;
#X connect 2 1 4 1;
#X connect 3 0 4 0;
#X connect 4 0 5 0;
#X connect 5 0 6 0;
#X connect 6 0 11 0;
#X connect 7 0 2 0;
#X connect 8 0 7 0;
#X connect 9 0 1 0;
#X connect 10 0 0 0;
#X restore 151 318 pd exprA;
#X floatatom 151 353 5 0 0 0 - - - 0;
#X floatatom 190 100 5 0 0 0 - - - 0;
#X obj 190 128 / 1200;
#X obj 190 214 pow;
#X obj 190 156 t b f;
#X msg 192 184 2;
#X obj 190 243 * 1;
#X text 219 99 cents;
#X text 229 213 12th root of 2;
#X text 58 271 gran dur (ms);
#X obj 561 318 sig~;
#X msg 151 72 90;
#X obj 151 442 *~ 512;
#X text 106 352 gfreq;
#X text 332 40 phase;
#X text 380 40 catch~ control;
#X obj 190 72 inlet;
#X text 102 441 trisize;
#X obj 335 72 inlet;
#X obj 396 72 inlet~;
#X obj 396 749 outlet~;
#X obj 396 471 samphold~;
#X obj 561 471 samphold~;
#X obj 561 518 snapshot~;
#X obj 653 471 metro 0;
#X obj 653 390 loadbang;
#X obj 151 45 loadbang;
#X obj 396 637 *~ 22.05;
#X text 237 648 this sample = 22050 Hz;
#X obj 655 429 tgl 21 0 empty empty empty 0 -11 0 12 #fcfcfc #000000 #000000 0 1;
#X connect 0 0 31 1 32.................R....bJ...fD....mB...TC....;
#X connect 0 0 32 1 32.................R....vT...fD....LE...TC....;
#X connect 0 0 22 0 32.................N....72+++uC....+8+++yA....;
#X connect 0 0 1 0 32.................EB...LI...Pg....SB...jI....;
#X connect 1 0 2 1 32.................L....v9+++OC....r++++eA....;
#X connect 2 0 37 0 32.................E.........PA.........j.....;
#X connect 3 0 30 0 32.................E.........PA.........j.....;
#X connect 4 0 3 1 32.................XC....P....1.....D...rN....;
#X connect 5 0 3 0 32.................Q.........PD.........HB....;
#X connect 7 0 9 1 32.................P..........D..........B....;
#X connect 8 0 9 0 32.................P..........D..........B....;
#X connect 8 0 20 0 32.................K....nY...vB....ZF....B....;
#X connect 9 0 10 0 32.................F.........fA.........v.....;
#X connect 10 0 0 0 32.................L....HH....C....BB...fA....;
#X connect 11 0 12 0 32.................E.........PA.........n.....;
#X connect 12 0 14 0 32.................E.........PA.........j.....;
#X connect 13 0 16 0 32.................E.........PA.........n.....;
#X connect 14 0 15 0 32.................E.........PA.........j.....;
#X connect 14 1 13 1 32.................T..........E.........bB....;
#X connect 15 0 13 0 32.................F.........fA.........r.....;
#X connect 16 0 7 0 32.................E.........PA.........n.....;
#X connect 20 0 32 0 32.................+.........vO.........3G....;
#X connect 21 0 8 0 32.................aA........vV.........TK....;
#X connect 22 0 4 0 32.................C.........v..........X.....;
#X connect 26 0 11 0 32.................E.........PA.........j.....;
#X connect 28 0 0 1 32.................XB.........l..........S....;
#X connect 29 0 31 0 32.................7B.........u.........fW....;
#X connect 31 0 2 0 32.................9.........fO.........rG....;
#X connect 32 0 33 0 32.................N.........fC.........vA....;
#X connect 33 0 1 1 32.................Q.....4+++eD....P9+++KB....;
#X connect 34 0 33 0 32.................N....T5+++uC....k9+++yA....;
#X connect 35 0 39 0 32.................H..........B..........A....;
#X connect 36 0 21 0 32.................D..........A.........f.....;
#X connect 37 0 5 0 32.................E.........PA.........j.....;
#X connect 39 0 34 0 32.................K.........vB.........TA....;
