#N canvas 604 22 1076 704 10;
#X obj 72 741 dac~ 1 2;
#X obj 603 557 send~ amplitude;
#X obj 603 441 lop~ 10;
#X obj 656 176 led-bargraph, f 30;
#X obj 544 108 buttons, f 12;
#X obj 145 741 bela_scope~;
#X obj 544 64 initialise_digitals;
#X text 655 59 Initialise LEDs \, buttons and trigger inputs;
#X text 619 103 Read from all buttons;
#X text 844 171 LEDs;
#X obj 130 362 adc~ 3;
#X obj 130 557 send~ frequency;
#X obj 439 441 *~ 100;
#X obj 281 557 send~ harmonicity;
#X obj 439 557 send~ ratio;
#X obj 281 443 *~ 10;
#X obj 281 362 adc~ 5;
#X obj 439 361 adc~ 7;
#X obj 603 361 adc~ 9;
#X obj 281 474 +~ 0.1;
#X obj 130 443 *~ 200;
#X obj 130 474 +~ 20;
#X obj 761 557 send~ rate;
#X obj 925 557 send~ depth;
#X obj 761 441 *~ 100;
#X obj 761 360 adc~ 8;
#X obj 925 360 adc~ 10;
#X obj 75 285 hsl 128 17 0 1 0 0 empty empty empty -2 -8 0 10 #191919 #e1e1e1 #e1e1e1 0 0;
#X obj 232 285 hsl 128 17 0 1 0 0 empty empty empty -2 -8 0 10 #191919 #e1e1e1 #e1e1e1 0 0;
#X obj 72 627 tgl 25 0 empty empty empty 17 7 0 10 #191919 #e1e1e1 #e1e1e1 0 1;
#X obj 72 362 line~;
#X msg 72 329 \$1 100;
#X obj 229 362 line~;
#X msg 229 329 \$1 100;
#X obj 389 285 hsl 128 17 0 1 0 0 empty empty empty -2 -8 0 10 #191919 #e1e1e1 #e1e1e1 0 0;
#X obj 386 360 line~;
#X msg 386 327 \$1 100;
#X obj 547 285 hsl 128 17 0 1 0 0 empty empty empty -2 -8 0 10 #191919 #e1e1e1 #e1e1e1 0 0;
#X obj 544 362 line~;
#X msg 544 329 \$1 100;
#X obj 704 285 hsl 128 17 0 1 0 0 empty empty empty -2 -8 0 10 #191919 #e1e1e1 #e1e1e1 0 0;
#X obj 701 362 line~;
#X msg 701 329 \$1 100;
#X obj 862 285 hsl 128 17 0 1 0 0 empty empty empty -2 -8 0 10 #191919 #e1e1e1 #e1e1e1 0 0;
#X obj 859 361 line~;
#X msg 859 328 \$1 100;
#X text 69 70 —————————————————————————————, f 61;
#X text 69 60 FM synthesizer;
#N canvas 733 172 450 300 fm 0;
#X obj 272 313 +~;
#X obj 345 213 osc~;
#X obj 345 262 *~;
#X obj 345 135 *~;
#X obj 425 213 *~;
#X obj 272 339 osc~;
#X obj 318 375 receive~ amplitude;
#X obj 272 452 *~;
#X obj 75 151 line~;
#X obj 272 589 *~;
#X msg 75 116 \$1 200;
#X obj 272 48 receive~ frequency;
#X obj 356 85 receive~ harmonicity;
#X obj 436 135 receive~ ratio;
#X obj 506 267 osc~;
#X obj 506 213 receive~ rate, f 14;
#X obj 506 347 *~;
#X obj 558 267 receive~ depth;
#X obj 506 391 *~ 0.5;
#X obj 506 424 +~ 0.5;
#X obj 272 525 *~;
#X obj 75 48 inlet;
#X obj 272 644 outlet~;
#X obj 125 48 receive PUSH;
#X connect 0 0 5 0 32.................D..........A.........b.....;
#X connect 1 0 2 0 32.................O.........vC.........3A....;
#X connect 2 0 0 1 32.................P....L7+++OD....C++++CB....;
#X connect 3 0 1 0 32.................d.........fG.........rC....;
#X connect 3 0 4 0 32.................T.....E....E....PA...rC....;
#X connect 4 0 2 1 32.................O....v6++++C....79+++6A....;
#X connect 5 0 7 0 32.................u.........vK.........3E....;
#X connect 6 0 7 1 32.................c....38+++eG....d++++qC....;
#X connect 7 0 20 0 32.................a.........vF.........XC....;
#X connect 8 0 9 1 32.................QF....M...PjA...PC...LZ....;
#X connect 9 0 22 0 32.................R.........fD.........PB....;
#X connect 10 0 8 0 32.................H..........B..........A....;
#X connect 11 0 0 0 32.................6A........vd.........XO....;
#X connect 11 0 3 0 32.................h....jD...fH....IA...PD....;
#X connect 12 0 3 1 32.................P..........D.........7A....;
#X connect 13 0 4 1 32.................d.........fG.........rC....;
#X connect 14 0 16 0 32.................e.........vG.........zC....;
#X connect 15 0 14 0 32.................R.........fD.........LB....;
#X connect 16 0 18 0 32.................M.........PC.........jA....;
#X connect 17 0 16 1 32.................e....f8++++G....X++++2C....;
#X connect 18 0 19 0 32.................G.........vA.........3.....;
#X connect 19 0 20 1 32.................1....Hx+++uM....h7+++KE....;
#X connect 20 0 9 0 32.................W.........vE.........zB....;
#X connect 21 0 10 0 32.................Y.........PF.........DC....;
#X connect 23 0 10 0 32.................Y....77+++eF....O++++GC....;
#X restore 72 679 pd fm;
#X text 105 629 on/off;
#X text 69 253 frequency;
#X text 226 253 harmonicity;
#X text 383 253 ratio;
#X text 540 253 amplitude;
#X text 698 253 rate (amplitude);
#X text 855 253 depth (amplitude);
#X obj 925 441 *~ 1;
#X obj 544 176 send PUSH1;
#X connect 2 0 1 0 32.................v..........L.........7E....;
#X connect 4 0 3 4 32.................Y....XK...PF....1B...DC....;
#X connect 4 0 3 5 32.................Y....fL...PF....HC...DC....;
#X connect 4 0 57 0 32.................Y.........PF.........DC....;
#X connect 10 0 20 0 32.................e.........vG.........3C....;
#X connect 12 0 14 0 32.................v..........L.........7E....;
#X connect 15 0 19 0 32.................F.........fA.........v.....;
#X connect 16 0 15 0 32.................e.........vG.........3C....;
#X connect 17 0 12 0 32.................e.........vG.........zC....;
#X connect 18 0 2 0 32.................e.........vG.........zC....;
#X connect 19 0 13 0 32.................f..........H..........D....;
#X connect 20 0 21 0 32.................F.........fA.........v.....;
#X connect 21 0 11 0 32.................f..........H..........D....;
#X connect 24 0 22 0 32.................v..........L.........7E....;
#X connect 25 0 24 0 32.................e.........vG.........3C....;
#X connect 26 0 56 0 32.................e.........vG.........3C....;
#X connect 27 0 31 0 32.................N.........fC.........rA....;
#X connect 28 0 33 0 32.................N.........fC.........rA....;
#X connect 29 0 48 0 32.................N.........fC.........rA....;
#X connect 30 0 20 0 32.................e....nC...vG....5....3C....;
#X connect 31 0 30 0 32.................G.........vA.........3.....;
#X connect 32 0 15 0 32.................e....PC...vG....z....3C....;
#X connect 33 0 32 0 32.................G.........vA.........3.....;
#X connect 34 0 36 0 32.................M.........PC.........jA....;
#X connect 35 0 12 0 32.................e....TC...vG....0....3C....;
#X connect 36 0 35 0 32.................G.........vA.........3.....;
#X connect 37 0 39 0 32.................N.........fC.........rA....;
#X connect 38 0 2 0 32.................d....rC...fG....6....vC....;
#X connect 39 0 38 0 32.................G.........vA.........3.....;
#X connect 40 0 42 0 32.................N.........fC.........rA....;
#X connect 41 0 24 0 32.................d....vC...fG....7....vC....;
#X connect 42 0 41 0 32.................G.........vA.........3.....;
#X connect 43 0 45 0 32.................M.........PC.........nA....;
#X connect 44 0 56 0 32.................e....HD...vG....BA...zC....;
#X connect 45 0 44 0 32.................G.........vA.........3.....;
#X connect 48 0 5 0 32.................V....jD...fE....IA...rB....;
#X connect 48 0 5 1 32.................V....zE...fE....cA...rB....;
#X connect 48 0 0 0 32.................V.........fE.........rB....;
#X connect 48 0 0 1 32.................V....PB...fE....j....rB....;
#X connect 56 0 23 0 32.................v..........L.........7E....;
