#N canvas 64 96 700 450 12;
#X obj 50 30 r carrier;
#X obj 50 80 line~;
#X obj 50 105 osc~;
#X obj 220 30 r modulator;
#X obj 220 80 line~;
#X obj 220 105 osc~;
#X obj 50 140 *~;
#X obj 390 30 r amp;
#X obj 390 80 line~;
#X obj 50 175 *~;
#X obj 540 30 r gate;
#X obj 540 55 sel 0 1;
#X msg 490 80 0 300;
#X msg 590 80 1 50;
#X obj 540 110 line~;
#X obj 50 210 *~;
#X obj 50 270 clip~ -1 1;
#X obj 50 337 dac~;
#X obj 50 55 pack f 80;
#X obj 220 55 pack f 80;
#X obj 390 55 pack f 80;
#X obj 50 245 hip~ 10;
#X connect 0 0 18 0;
#X connect 1 0 2 0;
#X connect 2 0 6 0;
#X connect 3 0 19 0;
#X connect 4 0 5 0;
#X connect 5 0 6 1;
#X connect 6 0 9 0;
#X connect 7 0 20 0;
#X connect 8 0 9 1;
#X connect 9 0 15 0;
#X connect 10 0 11 0;
#X connect 11 0 12 0;
#X connect 11 1 13 0;
#X connect 12 0 14 0;
#X connect 13 0 14 0;
#X connect 14 0 15 1;
#X connect 15 0 21 0;
#X connect 16 0 17 0;
#X connect 16 0 17 1;
#X connect 18 0 1 0;
#X connect 19 0 4 0;
#X connect 20 0 8 0;
#X connect 21 0 16 0;
