#N canvas 112 388 181 243 10;
#X obj 65 75 samplerate~;
#X floatatom 12 33 5 0 0 0 - - - 0;
#X floatatom 13 172 12 0 0 0 - - - 0;
#X msg 65 52 bang;
#X obj 13 76 * 1000;
#X obj 13 9 inlet;
#X obj 14 198 outlet;
#X text 68 11 samps to ms;
#X obj 13 147 / 44100;
#X floatatom 65 105 5 0 0 0 - - - 0;
#X connect 0 0 9 0;
#X connect 1 0 3 0;
#X connect 1 0 4 0;
#X connect 2 0 6 0;
#X connect 3 0 0 0;
#X connect 4 0 8 0;
#X connect 5 0 1 0;
#X connect 8 0 2 0;
#X connect 9 0 8 1;
