#N canvas 827 239 527 327 12;
#X obj 333 175 inlet;
#X obj 114 80 hsl 128 17 0 1 0 0 empty empty empty -2 -8 0 10 #e4e4e4 #4d4d4d #373737 0 1;
#X obj 333 380 /;
#X obj 397 215 loadbang;
#X floatatom 398 380 5 0 0 0 - - - 12;
#X obj 397 326 -;
#X obj 397 244 bng 25 250 50 0 empty empty empty 17 7 0 10 #e4e4e4 #4d4d4d #373737;
#X obj 333 539 *;
#X floatatom 590 382 5 0 0 0 - - - 12;
#X obj 589 326 -;
#X floatatom 332 628 9 0 0 0 - - - 16;
#X obj 324 675 outlet;
#X obj 397 290 f \$2;
#X obj 439 290 f \$1;
#X obj 589 288 f \$4;
#X obj 631 288 f \$3;
#X obj 376 431 f \$5;
#X obj 332 578 +;
#X obj 407 559 f \$3;
#X obj 333 215 -;
#X obj 386 151 f \$1;
#X floatatom 462 351 5 0 0 0 - - - 12;
#X floatatom 513 329 5 0 0 0 - - - 12;
#X obj 333 470 pow 1;
#X connect 0 0 19 0;
#X connect 1 0 19 0;
#X connect 2 0 23 0;
#X connect 3 0 6 0;
#X connect 5 0 4 0;
#X connect 5 0 2 1;
#X connect 6 0 12 0;
#X connect 6 0 13 0;
#X connect 6 0 16 0;
#X connect 6 0 18 0;
#X connect 6 0 14 0;
#X connect 6 0 15 0;
#X connect 6 0 20 0;
#X connect 7 0 17 0;
#X connect 9 0 8 0;
#X connect 9 0 7 1;
#X connect 10 0 11 0;
#X connect 12 0 5 0;
#X connect 12 0 21 0;
#X connect 13 0 5 1;
#X connect 13 0 22 0;
#X connect 14 0 9 0;
#X connect 15 0 9 1;
#X connect 16 0 23 1;
#X connect 17 0 10 0;
#X connect 18 0 17 1;
#X connect 19 0 2 0;
#X connect 20 0 19 1;
#X connect 23 0 7 0;
