#N canvas 150 137 1058 720 12;
#X declare -path .;
#X declare -path rj;
#X declare -path abs;
#X declare -path sounds;
#N canvas 0 23 588 274 LICENSE 0;
#X text 79 84 (c) 2008 Reality Jockey;
#X text 57 36 Released under the GNU General Public License ver. 3 or later. See the file LICENSE.txt for the full text.;
#X restore 11 25 pd LICENSE;
#X obj 11 100 declare -path .;
#X obj 639 191 s rndm;
#X floatatom 639 131 4 0 0 0 - - - 0;
#X text 696 591 msp Granular Synthesis;
#N canvas 0 22 450 300 (subpatch) 0;
#X array playobject 80170 float 0;
#X coords 0 1 80169 -1 200 140 1;
#X restore 171 73 graph;
#X floatatom 770 161 10 0 0 0 - - - 0;
#N canvas 322 126 958 530 sampleloader 1;
#X obj 803 174 s raw_length;
#X obj 721 168 r rndm;
#X obj 690 257 s sample_length;
#X obj 696 69 soundfiler;
#N canvas 45 436 678 310 windowstuff 0;
#X text 445 103 window shape;
#X obj 20 26 loadbang;
#X obj 20 85 soundfiler;
#N canvas 179 217 450 300 (subpatch) 0;
#X array wndw 512 float 0;
#X coords 0 1 511 -1 200 140 1 0 0;
#X restore 399 126 graph;
#X obj 21 122 s trisize;
#X msg 20 55 read -resize tri wndw;
#X connect 1 0 5 0;
#X connect 2 0 4 0;
#X connect 5 0 2 0;
#X restore 22 220 pd windowstuff;
#X obj 690 226 -;
#X obj 722 190 t b f;
#X obj 663 165 f;
#X msg 696 38 read -resize mouse.wav playobject;
#X obj 627 36 r sfiler;
#X obj 282 105 inlet;
#X obj 636 344 list split 2;
#X obj 676 372 list split 1;
#X msg 676 398 set \$1;
#X obj 676 424 outlet;
#X obj 636 317 r sfiler;
#X obj 298 299 select 0 1 2 3 4 5;
#X obj 292 498 s sfiler;
#X floatatom 277 182 5 0 0 0 - - - 0;
#X text 80 138 load in sample #;
#X text 19 196 TRIANGLE WINDOW HERE;
#X obj 115 93 r loadbang;
#X msg 317 362 read -resize chiko.wav playobject;
#X msg 297 330 read -resize mj1-44.wav playobject;
#X msg 340 396 read -resize seek1-44.wav playobject;
#X msg 359 428 read -resize NuAge-44.wav playobject;
#X msg 380 461 read -resize tongue_aiff playobject;
#X msg 115 117 1;
#X obj 696 102 sampstoms;
#X obj 394 13 r notes;
#X msg 385 153 0;
#X msg 426 155 1;
#X msg 460 158 2;
#X msg 492 156 3;
#X msg 529 154 4;
#X obj 394 44 route 61 63 66 68 70;
#X obj 393 74 > 0;
#X obj 390 103 sel 1;
#X obj 129 419 s mute;
#X msg 174 332 1;
#X msg 127 333 0;
#X obj 437 77 > 0;
#X obj 434 106 sel 1;
#X obj 485 78 > 0;
#X obj 482 107 sel 1;
#X obj 529 81 > 0;
#X obj 526 110 sel 1;
#X obj 588 83 > 0;
#X obj 585 112 sel 1;
#X obj 301 259 pipe 200;
#X obj 127 271 del 500;
#X obj 276 212 t b f b;
#X connect 1 0 6 0;
#X connect 3 0 28 0;
#X connect 5 0 2 0;
#X connect 6 0 7 0;
#X connect 6 1 5 1;
#X connect 7 0 5 0;
#X connect 8 0 3 0;
#X connect 9 0 3 0;
#X connect 10 0 18 0;
#X connect 11 1 12 0;
#X connect 12 0 13 0;
#X connect 13 0 14 0;
#X connect 15 0 11 0;
#X connect 16 0 23 0;
#X connect 16 1 22 0;
#X connect 16 2 24 0;
#X connect 16 3 25 0;
#X connect 16 4 26 0;
#X connect 18 0 51 0;
#X connect 21 0 27 0;
#X connect 22 0 17 0;
#X connect 23 0 17 0;
#X connect 24 0 17 0;
#X connect 25 0 17 0;
#X connect 26 0 17 0;
#X connect 27 0 18 0;
#X connect 28 0 7 1;
#X connect 28 0 0 0;
#X connect 28 0 5 0;
#X connect 29 0 35 0;
#X connect 30 0 18 0;
#X connect 31 0 18 0;
#X connect 32 0 18 0;
#X connect 33 0 18 0;
#X connect 34 0 18 0;
#X connect 35 0 36 0;
#X connect 35 1 41 0;
#X connect 35 2 43 0;
#X connect 35 3 45 0;
#X connect 35 4 47 0;
#X connect 36 0 37 0;
#X connect 37 0 30 0;
#X connect 39 0 38 0;
#X connect 40 0 38 0;
#X connect 41 0 42 0;
#X connect 42 0 31 0;
#X connect 43 0 44 0;
#X connect 44 0 32 0;
#X connect 45 0 46 0;
#X connect 46 0 33 0;
#X connect 47 0 48 0;
#X connect 47 0 34 0;
#X connect 48 0 34 0;
#X connect 49 0 16 0;
#X connect 50 0 40 0;
#X connect 51 0 50 0;
#X connect 51 1 49 0;
#X connect 51 2 39 0;
#X restore 262 51 pd sampleloader;
#X obj 238 303 fx;
#N canvas 413 231 709 381 granular 0;
#X obj 603 26 catch~ gdur;
#X obj 365 24 catch~ control;
#X msg 155 141 0;
#X msg 285 141 0.25;
#X msg 524 138 0.375;
#X msg 400 140 0.125;
#X msg 155 196 0.5;
#X msg 285 194 0.75;
#X msg 397 193 0.625;
#X msg 526 194 0.875;
#X obj 161 17 loadbang;
#X obj 40 90 snapshot~;
#X obj 5 33 tgl 15 0 empty empty empty 17 7 0 10 #fcfcfc #000000 #000000 0 1;
#X obj 39 27 loadbang;
#X obj 40 117 s trackpoint;
#X obj 311 335 outlet~;
#X obj 370 335 outlet~;
#X obj 160 43 bng 19 250 50 0 empty empty empty 0 -10 0 12 #fcfcfc #000000 #000000;
#X obj 39 48 metro 100;
#X obj 311 299 *~ 0.5;
#X obj 370 298 *~ 0.5;
#X obj 156 165 grain~;
#X obj 285 164 grain~;
#X obj 399 165 grain~;
#X obj 524 163 grain~;
#X obj 524 218 grain~;
#X obj 396 220 grain~;
#X obj 286 221 grain~;
#X obj 156 220 grain~;
#X connect 0 0 21 2;
#X connect 0 0 22 2;
#X connect 0 0 23 2;
#X connect 0 0 24 2;
#X connect 0 0 25 2;
#X connect 0 0 26 2;
#X connect 0 0 27 2;
#X connect 0 0 28 2;
#X connect 1 0 11 0;
#X connect 1 0 21 1;
#X connect 1 0 22 1;
#X connect 1 0 23 1;
#X connect 1 0 24 1;
#X connect 1 0 25 1;
#X connect 1 0 26 1;
#X connect 1 0 27 1;
#X connect 1 0 28 1;
#X connect 2 0 21 0;
#X connect 3 0 22 0;
#X connect 4 0 24 0;
#X connect 5 0 23 0;
#X connect 6 0 28 0;
#X connect 7 0 27 0;
#X connect 8 0 26 0;
#X connect 9 0 25 0;
#X connect 10 0 17 0;
#X connect 11 0 14 0;
#X connect 12 0 18 0;
#X connect 13 0 18 0;
#X connect 17 0 2 0;
#X connect 17 0 6 0;
#X connect 17 0 3 0;
#X connect 17 0 5 0;
#X connect 17 0 4 0;
#X connect 17 0 7 0;
#X connect 17 0 8 0;
#X connect 17 0 9 0;
#X connect 18 0 11 0;
#X connect 19 0 15 0;
#X connect 20 0 16 0;
#X connect 21 0 19 0;
#X connect 22 0 19 0;
#X connect 23 0 20 0;
#X connect 24 0 20 0;
#X connect 25 0 20 0;
#X connect 26 0 20 0;
#X connect 27 0 19 0;
#X connect 28 0 19 0;
#X restore 182 271 pd granular;
#N canvas 0 23 545 181 LOADBANGS 0;
#X obj 172 140 s gain;
#X msg 172 119 1;
#X msg 290 121 0;
#X obj 290 142 s mode;
#X text 322 116 start in Play mode;
#X text 322 127 not Freeze mode;
#X obj 154 14 loadbang;
#X obj 154 57 s loadbang;
#X obj 154 36 bng 15 250 50 0 empty empty empty 17 7 0 10 #fcfcfc #000000 #000000;
#X obj 290 100 r loadbang;
#X obj 172 98 r loadbang;
#X obj 108 13 inlet;
#X connect 1 0 0 0;
#X connect 2 0 3 0;
#X connect 6 0 8 0;
#X connect 8 0 7 0;
#X connect 9 0 2 0;
#X connect 10 0 1 0;
#X connect 11 0 8 0;
#X restore 12 76 pd LOADBANGS;
#N canvas 5 38 498 255 time_stretcher 0;
#X obj 270 158 r rndm;
#X obj 158 197 +~;
#X obj 158 218 throw~ control;
#N canvas 133 170 915 461 seq_engine 0;
#X obj 178 184 sel 0;
#X obj 220 422 outlet~;
#X obj 345 66 r sample_length;
#X obj 220 394 *~ 1000;
#X obj 178 162 * 1;
#X obj 218 274 phasor~;
#X obj 178 138 t b f;
#X obj 106 51 sel 0;
#X obj 106 26 inlet;
#X obj 210 209 t b f;
#X obj 218 254 /;
#X obj 138 76 t b f;
#X obj 138 120 /;
#X msg 138 98 1;
#X msg 216 231 1000;
#X obj 327 307 snapshot~;
#X floatatom 327 328 5 0 0 0 - - - 0;
#X obj 309 354 f;
#X obj 327 261 r mode;
#X obj 327 282 sel 1 0;
#X obj 264 122 r bangz;
#X msg 264 166 0;
#X obj 264 144 sel 1;
#X obj 433 249 inlet;
#X obj 451 305 r raw_length;
#X obj 433 338 /;
#X text 430 222 helps make sure sample starts;
#X text 430 232 at right place when switching modes;
#X text 295 166 reset to sample start;
#X text 314 241 Play/Freeze;
#X text 153 27 stretch factor;
#X text 173 98 reciprocal;
#X text 61 265 MASTER CLOCK;
#X text 60 277 FOR SAMPLE PLAYBACK;
#X connect 0 1 9 0;
#X connect 2 0 6 0;
#X connect 2 0 3 1;
#X connect 3 0 1 0;
#X connect 4 0 0 0;
#X connect 5 0 3 0;
#X connect 5 0 15 0;
#X connect 6 0 4 0;
#X connect 6 1 4 1;
#X connect 7 1 11 0;
#X connect 8 0 7 0;
#X connect 9 0 14 0;
#X connect 9 1 10 1;
#X connect 10 0 5 0;
#X connect 11 0 13 0;
#X connect 11 1 12 1;
#X connect 12 0 4 0;
#X connect 13 0 12 0;
#X connect 14 0 10 0;
#X connect 15 0 16 0;
#X connect 16 0 17 1;
#X connect 17 0 5 1;
#X connect 18 0 19 0;
#X connect 19 0 15 0;
#X connect 19 1 17 0;
#X connect 20 0 22 0;
#X connect 21 0 5 1;
#X connect 22 0 21 0;
#X connect 23 0 25 0;
#X connect 24 0 25 1;
#X connect 25 0 17 1;
#X restore 194 123 pd seq_engine;
#X floatatom 123 31 0 0 0 0 - - - 0;
#N canvas 378 62 450 300 switch 0;
#X obj 116 135 *~;
#X obj 121 181 +~;
#X obj 156 137 *~;
#X obj 135 27 inlet;
#X obj 128 78 < 1;
#X obj 123 249 outlet~;
#X obj 241 26 inlet~;
#X obj 180 26 inlet~;
#X connect 0 0 1 0;
#X connect 1 0 5 0;
#X connect 2 0 1 1;
#X connect 3 0 4 0;
#X connect 3 0 2 1;
#X connect 4 0 0 1;
#X connect 6 0 2 0;
#X connect 7 0 0 0;
#X restore 158 169 pd switch;
#X obj 136 145 tgl 15 0 empty empty empty 17 7 0 10 #fcfcfc #000000 #000000 0 1;
#X obj 136 124 r mode;
#X obj 122 4 r stretch;
#N canvas 58 80 262 182 pos_rndm 0;
#X obj 60 83 +~ 1;
#X obj 60 108 *~ 0;
#X obj 60 60 noise~;
#X obj 102 82 / 2;
#X obj 108 31 inlet;
#X obj 60 143 outlet~;
#X connect 0 0 1 0;
#X connect 1 0 5 0;
#X connect 2 0 0 0;
#X connect 3 0 1 1;
#X connect 4 0 3 0;
#X restore 270 178 pd pos_rndm;
#X text 274 219 to Granvoice;
#X obj 314 25 inlet;
#X text 152 31 Stretch factor;
#X text 72 98 PLAY mode;
#X text 358 128 FREEZE position;
#X text 63 137 Play (0);
#X text 60 148 Freeze (1);
#X obj 313 126 line~;
#X msg 314 80 \$1 5;
#X connect 0 0 9 0;
#X connect 1 0 2 0;
#X connect 3 0 5 1;
#X connect 4 0 3 0;
#X connect 5 0 1 0;
#X connect 6 0 5 0;
#X connect 7 0 6 0;
#X connect 8 0 4 0;
#X connect 9 0 1 1;
#X connect 11 0 3 1;
#X connect 11 0 18 0;
#X connect 17 0 5 2;
#X connect 18 0 17 0;
#X restore 770 192 pd time_stretcher;
#X text 847 161 freeze position (ms);
#N canvas 799 253 681 481 gran_pitch 0;
#X floatatom 405 313 0 0 0 0 - - - 0;
#N canvas 832 313 680 446 random_pitch 0;
#X obj 47 58 loadbang;
#X floatatom 431 165 0 0 0 0 - - - 0;
#X msg 500 244 2;
#X msg 500 223 bang;
#X msg 431 239 1;
#X obj 431 201 sel 0;
#X floatatom 240 77 0 0 0 0 - - - 0;
#X obj 431 340 * 1;
#X text 78 19 duration;
#X text 257 58 random width;
#X text 240 104 0 ~ 3;
#X text 470 167 0 ~1.0;
#X text 326 182 pitch quantize;
#N canvas 192 270 548 310 switch 0;
#X obj 41 187 spigot;
#X obj 132 188 spigot;
#X obj 240 187 spigot;
#X obj 361 187 spigot;
#X obj 44 19 inlet;
#X obj 78 106 i 1;
#X obj 400 105 i 1;
#X obj 278 106 i 1;
#X obj 169 105 i 1;
#X obj 247 6 inlet;
#X obj 89 136 i 0;
#X obj 180 135 i 0;
#X obj 289 136 i 0;
#X obj 411 135 i 0;
#X obj 45 236 outlet;
#X obj 133 232 outlet;
#X obj 240 233 outlet;
#X obj 361 236 outlet;
#X obj 247 56 select 1 2 3 4;
#X connect 0 0 14 0;
#X connect 1 0 15 0;
#X connect 2 0 16 0;
#X connect 3 0 17 0;
#X connect 4 0 0 0;
#X connect 4 0 1 0;
#X connect 4 0 2 0;
#X connect 4 0 3 0;
#X connect 5 0 0 1;
#X connect 6 0 3 1;
#X connect 7 0 2 1;
#X connect 8 0 1 1;
#X connect 9 0 18 0;
#X connect 10 0 0 1;
#X connect 11 0 1 1;
#X connect 12 0 2 1;
#X connect 13 0 3 1;
#X connect 18 0 5 0;
#X connect 18 0 11 0;
#X connect 18 0 12 0;
#X connect 18 0 13 0;
#X connect 18 1 8 0;
#X connect 18 1 10 0;
#X connect 18 1 12 0;
#X connect 18 1 13 0;
#X connect 18 2 7 0;
#X connect 18 2 10 0;
#X connect 18 2 11 0;
#X connect 18 2 13 0;
#X connect 18 3 6 0;
#X connect 18 3 10 0;
#X connect 18 3 11 0;
#X connect 18 3 12 0;
#X restore 433 275 pd switch;
#X obj 28 16 inlet;
#X obj 240 23 inlet;
#X obj 431 30 inlet;
#X obj 431 364 outlet;
#X obj 52 88 tgl 15 0 empty empty empty 20 8 0 8 #fcfcfc #000000 #000000 0 1;
#X obj 55 111 metro 0;
#N canvas 0 22 450 300 expr 0;
#X obj 310 132 /;
#X obj 308 194 *;
#X obj 331 164 int;
#X obj 273 94 inlet;
#X obj 351 99 inlet;
#X obj 313 263 outlet;
#X connect 0 0 2 0;
#X connect 1 0 5 0;
#X connect 2 0 1 0;
#X connect 3 0 0 0;
#X connect 4 0 0 1;
#X connect 4 0 1 1;
#X restore 459 311 pd expr;
#X obj 105 191 random 2000;
#X obj 105 215 - 1000;
#X obj 105 241 / 1000;
#X obj 116 271 *;
#X obj 99 306 t b f;
#X obj 104 371 pow;
#X msg 90 339 2;
#X connect 0 0 18 0;
#X connect 0 0 4 0;
#X connect 1 0 5 0;
#X connect 2 0 13 1;
#X connect 3 0 2 0;
#X connect 4 0 13 1;
#X connect 5 0 4 0;
#X connect 5 1 3 0;
#X connect 5 1 20 1;
#X connect 6 0 24 1;
#X connect 7 0 17 0;
#X connect 13 0 7 0;
#X connect 13 1 20 0;
#X connect 14 0 7 1;
#X connect 15 0 6 0;
#X connect 16 0 1 0;
#X connect 18 0 19 0;
#X connect 19 0 21 0;
#X connect 20 0 7 0;
#X connect 21 0 22 0;
#X connect 22 0 23 0;
#X connect 23 0 24 0;
#X connect 24 0 25 0;
#X connect 25 0 27 0;
#X connect 25 1 26 1;
#X connect 26 0 13 0;
#X connect 27 0 26 0;
#X restore 352 379 pd random_pitch;
#X obj 352 398 sig~;
#X obj 56 350 s gfreq;
#X floatatom 109 205 0 0 0 0 - - - 0;
#X floatatom 56 255 0 0 0 0 - - - 0;
#X obj 352 419 throw~ gdur;
#X obj 405 338 / 40;
#X floatatom 401 361 5 0 0 0 - - - 0;
#X obj 454 358 / 100;
#N canvas 0 38 831 413 exprA 0;
#X floatatom 479 86 5 0 0 0 - - - 0;
#X floatatom 373 50 5 0 0 0 - - - 0;
#X obj 301 120 t b f;
#X msg 304 170 1000;
#X obj 304 210 *;
#X obj 302 266 /;
#X floatatom 302 303 5 0 0 0 - - - 0;
#X obj 248 149 f;
#X obj 249 124 t b;
#X obj 372 7 inlet;
#X obj 475 7 inlet;
#X obj 301 342 outlet;
#X floatatom 244 252 5 0 0 0 - - - 0;
#X connect 0 0 2 0;
#X connect 0 0 7 1;
#X connect 1 0 5 1;
#X connect 1 0 8 0;
#X connect 2 0 3 0;
#X connect 2 1 4 1;
#X connect 3 0 4 0;
#X connect 4 0 5 0;
#X connect 4 0 12 0;
#X connect 5 0 6 0;
#X connect 6 0 11 0;
#X connect 7 0 2 0;
#X connect 8 0 7 0;
#X connect 9 0 1 0;
#X connect 10 0 0 0;
#X restore 56 286 pd exprA;
#X obj 56 234 r duration;
#X obj 109 55 r basepitch;
#X obj 405 272 r pitchrand;
#X obj 455 295 r pitchquant;
#X floatatom 56 317 5 0 0 0 - - - 0;
#X floatatom 109 77 5 0 0 0 - - - 0;
#X obj 109 94 / 1200;
#X obj 109 159 pow;
#X obj 109 115 t b f;
#X msg 109 136 2;
#X floatatom 455 317 0 0 0 0 - - - 0;
#X obj 224 55 r physics-reset;
#X msg 298 165 1;
#X obj 109 181 * 1;
#X msg 328 165 100;
#X obj 298 137 sel 0 1;
#X obj 343 54 r xtrmpitch;
#X obj 355 137 tgl 15 0 empty empty empty 17 7 0 10 #fcfcfc #000000 #000000 0 1;
#X text 150 77 cents;
#X text 149 160 12th root of 2;
#X text 174 208 frequency multiple;
#X text 83 255 gran dur (ms);
#X text 347 36 Extreme pitch button makes freq swing wider;
#X text 53 371 drives phasor~ in granvoice;
#X text 381 180 NEED TO LOOK AT DIVIDER (40) BELOW;
#X text 224 31 from INIT;
#X connect 0 0 7 0;
#X connect 1 0 2 0;
#X connect 2 0 6 0;
#X connect 4 0 10 1;
#X connect 5 0 1 0;
#X connect 5 0 10 0;
#X connect 7 0 8 0;
#X connect 8 0 1 1;
#X connect 9 0 1 2;
#X connect 10 0 15 0;
#X connect 11 0 5 0;
#X connect 12 0 16 0;
#X connect 13 0 0 0;
#X connect 14 0 21 0;
#X connect 15 0 3 0;
#X connect 16 0 17 0;
#X connect 17 0 19 0;
#X connect 18 0 24 0;
#X connect 19 0 20 0;
#X connect 19 1 18 1;
#X connect 20 0 18 0;
#X connect 21 0 9 0;
#X connect 22 0 23 0;
#X connect 23 0 24 1;
#X connect 24 0 4 0;
#X connect 25 0 24 1;
#X connect 26 0 23 0;
#X connect 26 1 25 0;
#X connect 27 0 26 0;
#X connect 27 0 28 0;
#X restore 268 271 pd gran_pitch;
#X obj 773 133 hsl 190 15 0 127 0 0 empty empty empty 20 8 0 8 #fcfcfc #000000 #000000 0 1;
#N canvas 53 236 693 556 slider_adjuster 0;
#X obj 130 450 * 1, f 6;
#X obj 28 305 inlet;
#X obj 129 503 outlet;
#X floatatom 173 165 6 0 0 0 - - - 0;
#X text 219 164 sample length;
#X obj 455 92 r mode;
#X text 473 32 Play/Freeze (0/1);
#X obj 133 57 r raw_length;
#X obj 454 123 sel 1;
#X text 514 122 Going into Freeze;
#X text 283 32 Sample position in Play;
#X text 514 134 captures position;
#X text 281 50 from "PD Granular";
#X obj 340 73 r trackpoint;
#X obj 341 136 /;
#X floatatom 364 121 5 0 0 0 - - - 0;
#X floatatom 339 99 5 0 0 0 - - - 0;
#X floatatom 346 160 5 0 0 0 - - - 0;
#X msg 435 272 set \$1;
#X obj 434 500 outlet;
#X obj 535 73 s-r mode;
#X obj 535 56 tgl 15 0 empty empty empty 17 7 0 10 #fcfcfc #000000 #000000 0 1;
#X obj 132 130 t b f;
#X obj 129 377 / 127;
#X obj 346 178 * 127;
#X obj 330 281 f;
#X text 25 282 slider (pos);
#X text 183 504 update pos (ms);
#X text 488 501 update slider (0-127);
#X connect 0 0 2 0;
#X connect 1 0 23 0;
#X connect 3 0 0 1;
#X connect 5 0 8 0;
#X connect 7 0 22 0;
#X connect 7 0 15 0;
#X connect 8 0 25 0;
#X connect 13 0 16 0;
#X connect 14 0 17 0;
#X connect 15 0 14 1;
#X connect 16 0 14 0;
#X connect 17 0 24 0;
#X connect 18 0 19 0;
#X connect 20 0 21 0;
#X connect 21 0 20 0;
#X connect 22 0 23 0;
#X connect 22 1 3 0;
#X connect 23 0 0 0;
#X connect 24 0 18 0;
#X connect 24 0 25 1;
#X connect 25 0 23 0;
#X restore 770 102 pd slider_adjuster;
#X obj 12 56 bng 15 250 50 0 empty empty empty 17 7 0 10 #fcfcfc #000000 #000000;
#X obj 398 189 s-r mode;
#X obj 398 171 tgl 15 0 empty empty empty 17 7 0 10 #fcfcfc #000000 #000000 0 1;
#X floatatom 828 484 0 0 0 0 - - - 0;
#X floatatom 502 170 0 0 0 0 - - - 0;
#X floatatom 502 318 5 0 0 0 - - - 0;
#X floatatom 827 443 0 0 0 0 - - - 0;
#X obj 828 525 tgl 15 0 empty empty empty 17 7 0 10 #fcfcfc #000000 #000000 0 1;
#X text 543 321 cents;
#X text 529 170 gran dur (ms);
#X obj 502 343 s-r basepitch;
#X obj 502 189 s-r duration;
#X obj 828 503 s-r pitchrand;
#X obj 827 462 s-r pitchquant;
#X obj 827 543 s-r xtrmpitch;
#X floatatom 442 493 8 0 0 0 - filterfreq - 0;
#X obj 445 458 hsl 128 15 0 1 0 1 filtercutoff empty filtercutoff 4 8 0 10 #fcfcfc #000000 #000000 12700 1;
#X floatatom 442 476 5 0 0 0 - - - 0;
#X obj 444 523 hsl 128 15 0 1 0 1 filterres empty filterres 4 8 0 10 #fcfcfc #000000 #000000 0 1;
#X floatatom 441 541 5 0 0 0 - - - 0;
#X text 509 493 Hz;
#X floatatom 741 322 5 0 0 0 - - - 0;
#X obj 742 342 s-r stretch;
#X obj 744 304 hsl 128 15 -4 4 0 0 empty empty empty -2 -8 0 10 #fcfcfc #000000 #000000 0 1;
#X text 803 287 |;
#X floatatom 238 624 5 0 0 0 - - gain 0;
#X obj 237 450 vsl 15 128 0 127 0 0 empty empty empty 0 -9 0 10 #fcfcfc #000000 #000000 0 1;
#X floatatom 238 584 5 0 0 0 - - - 0;
#X obj 238 603 m_autoscale 0 2;
#X obj 608 478 tgl 15 0 distoonoff empty disto_on/off 17 7 0 12 #fcfcfc #000000 #000000 0 1;
#X text 415 169 Play/Freeze;
#X text 286 625 GAIN;
#X floatatom 602 543 5 0 0 0 - - distodrive 0;
#X floatatom 602 500 5 0 0 0 - - - 0;
#X text 650 544 DISTORTION;
#X obj 238 333 distortion;
#X text 194 584 MUTE;
#X obj 173 586 tgl 15 0 empty empty empty 17 7 0 10 #fcfcfc #000000 #000000 0 1;
#N canvas 44 429 416 302 mute 1;
#X obj 115 31 inlet;
#X text 248 40 MUTE;
#X msg 247 94 \; gain 0;
#X msg 306 94 \; gain 1;
#X msg 114 201 \; gain \$1;
#X obj 115 77 flip 1;
#X obj 115 55 tgl 15 0 empty empty empty 17 7 0 10 #fcfcfc #000000 #000000 0 1;
#X obj 115 102 tgl 15 0 empty empty empty 17 7 0 10 #fcfcfc #000000 #000000 0 1;
#X obj 197 202 line;
#X msg 197 172 0 \, 1 1000 100;
#X obj 114 162 line;
#X msg 114 130 \$1 50;
#X connect 0 0 6 0;
#X connect 5 0 7 0;
#X connect 6 0 5 0;
#X connect 7 0 11 0;
#X connect 10 0 4 0;
#X connect 11 0 10 0;
#X restore 173 604 pd mute;
#X floatatom 262 30 5 0 0 0 - - - 0;
#X text 140 32 load in sample #;
#X obj 11 122 declare -path rj;
#X obj 11 144 declare -path abs;
#X obj 11 166 declare -path sounds;
#N canvas 107 392 1333 486 INIT 0;
#X obj 663 368 send basepitch;
#X obj 321 370 send min;
#X obj 321 266 spigot;
#X obj 116 212 r mode;
#X obj 206 265 spigot;
#X obj 388 349 + 0.01;
#X obj 388 371 send maxi;
#X obj 710 55 delay 300;
#X floatatom 445 291 5 0 0 0 - - - 0;
#X obj 427 249 spigot;
#X obj 427 271 + 1;
#X obj 427 310 * 5;
#X msg 631 155 0;
#X obj 321 288 + 1;
#X obj 321 307 * 64;
#X obj 663 338 r ppr;
#X obj 206 371 send stretch;
#X floatatom 206 355 5 0 0 0 - - - 0;
#X obj 206 288 * 2;
#X obj 206 311 + 1;
#X obj 697 4 inlet;
#X obj 697 98 bng 15 250 50 0 empty empty empty 17 7 0 10 #fcfcfc #000000 #000000;
#X obj 245 228 == 0;
#X obj 360 228 tgl 15 0 empty empty empty 17 7 0 10 #fcfcfc #000000 #000000 0 1;
#X obj 245 247 tgl 15 0 empty empty empty 17 7 0 10 #fcfcfc #000000 #000000 0 1;
#X text 207 392 Play mode;
#X text 328 405 Freeze mode;
#X text 329 390 0-127;
#X text 325 419 Position + loop end in Slider_Adjuster;
#X text 100 196 Play/Freeze;
#X obj 466 228 tgl 15 0 empty empty empty 17 7 0 10 #fcfcfc #000000 #000000 0 1;
#X obj 710 33 r loadbang;
#X msg 328 167 1;
#X obj 788 370 send pitchrand;
#X obj 967 282 * 100;
#X obj 967 372 send pitchquant;
#X obj 1174 370 send duration;
#X msg 967 160 0;
#X msg 788 161 0;
#X floatatom 891 239 5 0 0 0 - - - 0;
#X floatatom 1103 243 5 0 0 0 - - - 0;
#X obj 1103 261 / 100;
#X obj 891 258 / 100;
#X obj 735 253 / 100;
#X obj 1174 297 * 250;
#X obj 788 290 * 127;
#X obj 735 230 r rpr;
#X obj 891 217 r qpr;
#X obj 1103 222 r dpr;
#X msg 1174 160 0.36;
#X obj 1094 104 s physics-init;
#X text 1095 79 to gran_pitch;
#X connect 2 0 13 0;
#X connect 3 0 22 0;
#X connect 3 0 23 0;
#X connect 3 0 30 0;
#X connect 4 0 18 0;
#X connect 5 0 6 0;
#X connect 7 0 21 0;
#X connect 8 0 11 1;
#X connect 9 0 10 0;
#X connect 10 0 11 0;
#X connect 11 0 5 1;
#X connect 12 0 0 0;
#X connect 13 0 14 0;
#X connect 14 0 1 0;
#X connect 14 0 5 0;
#X connect 15 0 0 0;
#X connect 17 0 16 0;
#X connect 18 0 19 0;
#X connect 19 0 17 0;
#X connect 20 0 21 0;
#X connect 21 0 12 0;
#X connect 21 0 38 0;
#X connect 21 0 37 0;
#X connect 21 0 32 0;
#X connect 21 0 50 0;
#X connect 21 0 49 0;
#X connect 22 0 24 0;
#X connect 23 0 2 1;
#X connect 24 0 4 1;
#X connect 30 0 9 1;
#X connect 31 0 7 0;
#X connect 32 0 17 0;
#X connect 34 0 35 0;
#X connect 37 0 34 0;
#X connect 38 0 45 0;
#X connect 39 0 42 0;
#X connect 40 0 41 0;
#X connect 41 0 44 0;
#X connect 42 0 34 0;
#X connect 43 0 45 0;
#X connect 44 0 36 0;
#X connect 45 0 33 0;
#X connect 46 0 43 0;
#X connect 47 0 39 0;
#X connect 48 0 40 0;
#X connect 49 0 44 0;
#X restore 12 194 pd INIT;
#X text 135 304 Low Pass Filt:;
#X text 160 334 Overdrive:;
#N canvas 85 337 334 211 volume-init 0;
#X msg 121 68 input 0 127 \, 0;
#X obj 110 29 r loadbang;
#X msg 67 65 64;
#X obj 67 121 outlet;
#X obj 121 122 outlet;
#X connect 0 0 4 0;
#X connect 1 0 0 0;
#X connect 1 0 2 0;
#X connect 2 0 3 0;
#X restore 237 427 pd volume-init;
#N canvas 150 461 450 300 autoscale-init 0;
#X obj 64 47 inlet;
#X obj 64 151 outlet;
#X msg 201 76 input -1 1 \, 0;
#X obj 64 104 m_autoscale 0 100 dB;
#X obj 201 53 r loadbang;
#X connect 0 0 3 0;
#X connect 2 0 3 1;
#X connect 3 0 1 0;
#X connect 4 0 2 0;
#X restore 602 521 pd autoscale-init;
#X text 487 541 Q;
#X obj 605 457 hsl 128 15 -1 1 0 0 empty empty empty -2 -8 0 10 #fcfcfc #000000 #000000 0 1;
#X text 452 401 ________________ FX SECTION ________________;
#X text 441 421 ________LPF________ ______OVERDRIVE_____;
#X text 171 244 ________SYNTH ENGINE________;
#X obj 505 301 hsl 128 15 -1200 1200 0 0 empty empty empty -2 -8 0 10 #fcfcfc #000000 #000000 0 1;
#X msg 636 285 0;
#X text 564 284 |;
#X msg 875 288 1;
#X text 971 130 pos;
#X text 765 57 ______________SCRUB______________;
#X text 497 250 ________TRANSPOSE_________;
#X text 807 627 Adam Parkinson / RJDJ iOS / 2010;
#X text 807 609 nobuyasu sakodna / MaxMSP / 1999;
#X text 169 399 __________OUTPUT___________;
#X text 822 398 ______PITCH______;
#X text 857 442 quantization;
#X text 857 484 randomness;
#X text 855 524 extreme range;
#X text 740 249 _________STRETCH_________;
#X msg 262 8 0;
#X msg 293 8 1;
#X msg 327 8 2;
#X msg 358 8 3;
#X text 139 8 CLICK to select;
#X text 674 130 pos random;
#X text 899 193 --SEQ ENGINE HERE--;
#X msg 389 8 4;
#X msg 360 610 \; pd dsp \$1;
#X obj 360 585 tgl 15 0 empty empty empty 17 7 0 10 #fcfcfc #000000 #000000 0 1;
#X text 380 584 DSP on/off;
#X text 611 646 BBDMI \, Project ANR-21-CE38-0018 \, 2022-2025. Anne Sèdes \, Atau Tanaka \, Francesco Di Maggio (MSH Paris Nord) \, Alain Bonardi \, David Fierro (CICM / MUSIDANSE / Université Paris 8) \, Stephen Whitmarsh (ICM) / OWL & Organelle at 44.1k / 2023;
#X text 406 60 ______________PLAYBACK__________________________;
#X obj 639 68 loadbang;
#X obj 639 162 + 5;
#X obj 213 368 throw~ outL;
#X obj 308 369 throw~ outR;
#X obj 398 95 r aux;
#X obj 398 129 sel 1;
#X obj 47 296 r notes;
#X obj 47 327 route 83;
#X obj 48 358 / 100;
#X obj 50 391 sel 1;
#X obj 769 8 r knob1;
#X obj 770 39 * 127;
#X obj 606 38 * 1;
#X obj 605 7 r knob2;
#X obj 639 37 r sample_length;
#X obj 426 260 r knob3;
#X obj 426 290 * 2;
#X obj 426 318 - 1;
#X obj 426 347 * 1200;
#X obj 954 282 * 2;
#X obj 954 310 - 1;
#X obj 954 252 r knob4;
#X obj 954 338 * 4;
#X msg 638 98 0;
#X obj 137 429 loadbang;
#X msg 138 480 1;
#X obj 454 93 loadbang;
#X msg 454 131 1;
#X obj 28 688 s led;
#X obj 28 513 r aux;
#X msg 62 664 5;
#X msg 28 662 7;
#X obj 28 546 sel 1;
#X obj 27 571 tgl 15 0 empty empty empty 17 7 0 10 #fcfcfc #000000 #000000 0 1;
#X obj 28 634 sel 0 1;
#X obj 89 527 tgl 15 0 empty empty empty 17 7 0 10 #fcfcfc #000000 #000000 0 1;
#X msg 130 641 1;
#X obj 89 557 sel 1 0;
#X obj 26 602 i;
#X obj 170 515 r mute;
#X obj 136 455 del 100;
#X connect 3 0 99 0;
#X connect 6 0 11 0;
#X connect 8 0 51 0;
#X connect 8 1 51 1;
#X connect 9 0 8 0;
#X connect 9 1 8 1;
#X connect 14 0 15 0;
#X connect 15 0 6 0;
#X connect 15 1 14 0;
#X connect 16 0 10 0;
#X connect 17 0 18 0;
#X connect 18 0 17 0;
#X connect 19 0 28 0;
#X connect 20 0 27 0;
#X connect 21 0 26 0;
#X connect 22 0 29 0;
#X connect 23 0 30 0;
#X connect 26 0 70 0;
#X connect 27 0 20 0;
#X connect 28 0 19 0;
#X connect 29 0 22 0;
#X connect 30 0 23 0;
#X connect 32 0 33 0;
#X connect 34 0 35 0;
#X connect 37 0 38 0;
#X connect 38 0 39 0;
#X connect 39 0 37 0;
#X connect 42 0 43 0;
#X connect 43 0 44 0;
#X connect 44 0 41 0;
#X connect 49 0 64 0;
#X connect 51 0 100 0;
#X connect 51 1 101 0;
#X connect 53 0 54 0;
#X connect 55 0 7 0;
#X connect 63 0 42 0;
#X connect 63 1 44 1;
#X connect 64 0 48 0;
#X connect 66 0 49 0;
#X connect 70 0 21 0;
#X connect 71 0 70 0;
#X connect 73 0 39 0;
#X connect 85 0 55 0;
#X connect 86 0 55 0;
#X connect 87 0 55 0;
#X connect 88 0 55 0;
#X connect 92 0 55 0;
#X connect 94 0 93 0;
#X connect 98 0 121 0;
#X connect 99 0 2 0;
#X connect 102 0 103 0;
#X connect 103 0 18 0;
#X connect 104 0 105 0;
#X connect 105 0 106 0;
#X connect 106 0 107 0;
#X connect 107 0 53 0;
#X connect 107 0 133 0;
#X connect 108 0 109 0;
#X connect 109 0 14 0;
#X connect 110 0 3 0;
#X connect 111 0 110 0;
#X connect 112 0 110 1;
#X connect 113 0 114 0;
#X connect 114 0 115 0;
#X connect 115 0 116 0;
#X connect 116 0 70 0;
#X connect 117 0 118 0;
#X connect 118 0 120 0;
#X connect 119 0 117 0;
#X connect 120 0 39 0;
#X connect 121 0 3 0;
#X connect 121 0 14 0;
#X connect 122 0 138 0;
#X connect 123 0 53 0;
#X connect 124 0 125 0;
#X connect 125 0 18 0;
#X connect 127 0 130 0;
#X connect 128 0 126 0;
#X connect 129 0 126 0;
#X connect 130 0 131 0;
#X connect 131 0 136 0;
#X connect 131 0 136 1;
#X connect 132 0 129 0;
#X connect 132 1 128 0;
#X connect 133 0 135 0;
#X connect 134 0 126 0;
#X connect 135 0 136 0;
#X connect 135 1 134 0;
#X connect 136 0 132 0;
#X connect 137 0 53 0;
#X connect 138 0 123 0;
