#N canvas 72 418 823 385 12;
#X obj 554 364 s cv0;
#X obj 691 364 s cv1;
#X obj 554 61 r Knob1 @hv_param;
#X obj 691 61 r Knob2 @hv_param;
#X obj 60 61 r button1_press @hv_param, f 24;
#X obj 290 61 r button2_press @hv_param, f 24;
#X obj 1063 61 r EncSwitch @hv_param;
#X obj 882 61 r Encoder @hv_param;
#X obj 145 364 s led1 @hv_param;
#X obj 381 364 s led2 @hv_param;
#X obj 60 364 s button1;
#X obj 290 364 s button2;
#X obj 60 121 change;
#X obj 290 121 change;
#X obj 554 121 change;
#X obj 691 121 change;
#X connect 2 0 14 0;
#X connect 3 0 15 0;
#X connect 4 0 12 0;
#X connect 12 0 10 0;
#X connect 12 0 8 0;
#X connect 13 0 11 0;
#X connect 13 0 9 0;
