#N canvas 40 22 1021 720 10;
#X obj 427 469 rj_image p-slider20.png;
#X msg 429 404 move \$1 \$2;
#X obj 563 263 f \$1;
#X obj 555 194 loadbang;
#X obj 429 377 pack 0 0;
#X obj 564 307 * 32;
#X obj 558 342 + 16;
#X obj 528 224 t b b;
#X msg 485 307 160;
#X obj 255 250 / 320;
#X obj 213 582 outlet;
#X obj 325 119 inlet;
#X msg 419 207 visible \$1;
#X msg 416 122 1;
#X obj 417 95 t b;
#X obj 453 95 t b;
#X msg 452 122 0;
#X obj 325 148 * 320;
#X obj 418 58 sel 2;
#X obj 417 24 r souns;
#X obj 188 83 r \$1-mixer-slider;
#X connect 1 0 0 0;
#X connect 2 0 5 0;
#X connect 3 0 7 0;
#X connect 4 0 1 0;
#X connect 5 0 6 0;
#X connect 6 0 4 1;
#X connect 7 0 8 0;
#X connect 7 1 2 0;
#X connect 8 0 4 0;
#X connect 9 0 10 0;
#X connect 11 0 17 0;
#X connect 12 0 0 0;
#X connect 13 0 12 0;
#X connect 14 0 13 0;
#X connect 15 0 16 0;
#X connect 16 0 12 0;
#X connect 17 0 4 0;
#X connect 17 0 9 0;
#X connect 18 0 14 0;
#X connect 18 1 15 0;
#X connect 19 0 18 0;
#X connect 20 0 4 0;
#X connect 20 0 9 0;
