#N canvas 0 22 450 300 10;
#X obj -48 317 pack 0 0 0 0 0 0;
#X obj -23 340 unpack 0 0 0 0 0 0;
#X obj 82 375 +;
#X obj 64 398 +;
#X obj 44 426 +;
#X obj 26 449 +;
#X obj 7 475 +;
#X floatatom 5 499 5 0 0 0 - - -;
#X obj 3 519 / 5;
#X obj -59 282 inlet;
#X obj 34 553 outlet;
#X connect 0 0 1 0;
#X connect 1 0 0 1;
#X connect 1 0 6 0;
#X connect 1 1 0 2;
#X connect 1 1 5 0;
#X connect 1 2 0 3;
#X connect 1 2 4 0;
#X connect 1 3 0 4;
#X connect 1 3 3 0;
#X connect 1 4 0 5;
#X connect 1 4 2 0;
#X connect 1 5 2 1;
#X connect 2 0 3 1;
#X connect 3 0 4 1;
#X connect 4 0 5 1;
#X connect 5 0 6 1;
#X connect 6 0 7 0;
#X connect 7 0 8 0;
#X connect 8 0 10 0;
#X connect 9 0 0 0;
