#N canvas 95 34 1133 706 12;
#X declare -path .;
#X declare -path rj;
#X declare -path abs;
#X declare -path sounds;
#N canvas 0 23 588 274 LICENSE 0;
#X text 79 84 (c) 2008 Reality Jockey;
#X text 57 36 Released under the GNU General Public License ver. 3
or later. See the file LICENSE.txt for the full text.;
#X restore 30 43 pd LICENSE;
#X obj 30 118 declare -path .;
#X obj 682 209 s rndm;
#X floatatom 682 188 0 0 0 0 - - -;
#X text 715 610 msp Granular Synthesis;
#N canvas 0 22 450 300 (subpatch) 0;
#X array playobject 80170 float 0;
#X coords 0 1 80169 -1 200 140 1;
#X restore 190 91 graph;
#X floatatom 789 188 10 0 0 0 - - -;
#X obj 792 166 hsl 190 15 1 128 0 0 empty empty empty 20 8 0 8 -262144
-1 -1 0 1;
#X obj 792 146 hsl 190 15 1 128 0 0 empty empty empty 20 8 0 8 -262144
-1 -1 0 1;
#X text 987 145 min;
#X text 987 163 max;
#N canvas 789 517 957 483 sampleloader 0;
#X obj 803 174 s raw_length;
#X obj 721 168 r rndm;
#X obj 690 258 s sample_length;
#X obj 696 69 soundfiler;
#N canvas 72 242 678 310 windowstuff 0;
#X text 445 123 window shape;
#X obj 20 16 loadbang;
#X obj 20 65 soundfiler;
#N canvas 0 22 450 300 (subpatch) 0;
#X array wndw 512 float 0;
#X coords 0 1 511 -1 200 140 1;
#X restore 399 146 graph;
#X msg 21 40 read -resize tri wndw;
#X obj 20 95 s trisize;
#X connect 1 0 4 0;
#X connect 2 0 5 0;
#X connect 4 0 2 0;
#X restore 33 215 pd windowstuff;
#X obj 690 226 -;
#X obj 722 190 t b f;
#X obj 663 165 f;
#X msg 696 38 read -resize mouse.wav playobject;
#X obj 627 36 r sfiler;
#X obj 298 46 inlet;
#X obj 636 344 list split 2;
#X obj 676 372 list split 1;
#X msg 676 398 set \$1;
#X obj 676 424 outlet;
#X obj 636 317 r sfiler;
#X obj 297 111 select 0 1 2 3 4 5;
#X obj 291 310 s sfiler;
#X floatatom 297 88 5 0 0 0 - - -;
#X msg 210 69 0;
#X text 175 90 load in sample #;
#X text 30 191 TRIANGLE WINDOW HERE;
#X obj 210 45 r loadbang;
#X msg 316 174 read -resize chiko.wav playobject;
#X msg 296 142 read -resize mj1-44.wav playobject;
#X msg 339 208 read -resize seek1-44.wav playobject;
#X msg 354 249 read -resize NuAge-44.wav playobject;
#X text 791 98 Non abstraction with hack to get through whole buffer
AT FDM 2/23;
#N canvas 0 23 450 300 sampstoms2 0;
#X obj 65 75 samplerate~;
#X floatatom 12 33 5 0 0 0 - - -;
#X floatatom 13 172 12 0 0 0 - - -;
#X msg 65 52 bang;
#X obj 13 76 * 1000;
#X obj 13 9 inlet;
#X obj 14 198 outlet;
#X text 69 12 samps to ms;
#X obj 13 147 / 44100;
#X text 114 98 one half of sample rate problem;
#X text 77 148 setting to 22050 plays through whole buffer;
#X floatatom 60 125 5 0 0 0 - - -;
#X obj 65 101 / 2;
#X text 118 122 we don't understand why we need to do this;
#X text 228 18 Non abstraction version;
#X connect 0 0 12 0;
#X connect 1 0 3 0;
#X connect 1 0 4 0;
#X connect 2 0 6 0;
#X connect 3 0 0 0;
#X connect 4 0 8 0;
#X connect 5 0 1 0;
#X connect 8 0 2 0;
#X connect 11 0 8 1;
#X connect 12 0 11 0;
#X restore 696 102 pd sampstoms2;
#X connect 1 0 6 0;
#X connect 3 0 28 0;
#X connect 5 0 2 0;
#X connect 6 0 7 0;
#X connect 6 1 5 1;
#X connect 7 0 5 0;
#X connect 8 0 3 0;
#X connect 9 0 3 0;
#X connect 10 0 18 0;
#X connect 11 1 12 0;
#X connect 12 0 13 0;
#X connect 13 0 14 0;
#X connect 15 0 11 0;
#X connect 16 0 24 0;
#X connect 16 1 23 0;
#X connect 16 2 25 0;
#X connect 16 3 26 0;
#X connect 18 0 16 0;
#X connect 19 0 18 0;
#X connect 22 0 19 0;
#X connect 23 0 17 0;
#X connect 24 0 17 0;
#X connect 25 0 17 0;
#X connect 26 0 17 0;
#X connect 28 0 7 1;
#X connect 28 0 0 0;
#X connect 28 0 5 0;
#X restore 281 70 pd sampleloader;
#X obj 257 321 fx;
#N canvas 1 23 709 381 granular 0;
#X obj 156 220 grain2~;
#X obj 285 164 grain2~;
#X obj 156 165 grain2~;
#X obj 286 221 grain2~;
#X obj 524 218 grain2~;
#X obj 396 220 grain2~;
#X obj 524 163 grain2~;
#X obj 399 165 grain2~;
#X obj 571 26 catch~ gdur;
#X obj 365 24 catch~ control;
#X msg 155 141 0;
#X msg 285 141 0.25;
#X msg 524 138 0.375;
#X msg 400 140 0.125;
#X msg 155 196 0.5;
#X msg 285 194 0.75;
#X msg 397 193 0.625;
#X msg 526 194 0.875;
#X obj 209 22 loadbang;
#X obj 60 86 snapshot~;
#X obj 59 44 metro 100;
#X obj 42 44 tgl 15 0 empty empty empty 17 7 0 10 -262144 -1 -1 0 1
;
#X obj 59 23 loadbang;
#X obj 60 113 s trackpoint;
#X obj 329 299 thru;
#X obj 311 335 outlet~;
#X obj 370 335 outlet~;
#X connect 0 0 24 0;
#X connect 1 0 24 0;
#X connect 2 0 24 0;
#X connect 3 0 24 0;
#X connect 4 0 24 1;
#X connect 5 0 24 1;
#X connect 6 0 24 1;
#X connect 7 0 24 1;
#X connect 8 0 2 2;
#X connect 8 0 6 2;
#X connect 8 0 4 2;
#X connect 8 0 7 2;
#X connect 8 0 5 2;
#X connect 8 0 1 2;
#X connect 8 0 3 2;
#X connect 8 0 0 2;
#X connect 9 0 2 1;
#X connect 9 0 19 0;
#X connect 9 0 1 1;
#X connect 9 0 7 1;
#X connect 9 0 6 1;
#X connect 9 0 0 1;
#X connect 9 0 3 1;
#X connect 9 0 5 1;
#X connect 9 0 4 1;
#X connect 10 0 2 0;
#X connect 11 0 1 0;
#X connect 12 0 6 0;
#X connect 13 0 7 0;
#X connect 14 0 0 0;
#X connect 15 0 3 0;
#X connect 16 0 5 0;
#X connect 17 0 4 0;
#X connect 18 0 14 0;
#X connect 18 0 15 0;
#X connect 18 0 16 0;
#X connect 18 0 17 0;
#X connect 18 0 10 0;
#X connect 18 0 11 0;
#X connect 18 0 13 0;
#X connect 18 0 12 0;
#X connect 19 0 23 0;
#X connect 20 0 19 0;
#X connect 21 0 20 0;
#X connect 22 0 20 0;
#X connect 24 0 25 0;
#X connect 24 1 26 0;
#X restore 201 289 pd granular;
#N canvas 0 23 545 181 LOADBANGS 0;
#X obj 172 140 s gain;
#X msg 172 119 1;
#X msg 290 121 0;
#X obj 290 142 s mode;
#X text 322 116 start in Play mode;
#X text 322 127 not Freeze mode;
#X obj 154 14 loadbang;
#X obj 154 57 s loadbang;
#X obj 154 36 bng 15 250 50 0 empty empty empty 17 7 0 10 -262144 -1
-1;
#X obj 290 100 r loadbang;
#X obj 172 98 r loadbang;
#X obj 108 13 inlet;
#X connect 1 0 0 0;
#X connect 2 0 3 0;
#X connect 6 0 8 0;
#X connect 8 0 7 0;
#X connect 9 0 2 0;
#X connect 10 0 1 0;
#X connect 11 0 8 0;
#X restore 31 94 pd LOADBANGS;
#N canvas 16 605 452 280 time_stretcher 0;
#X msg 233 95 \$1 5;
#X obj 190 158 r rndm;
#X obj 78 197 +~;
#X obj 233 126 line~;
#X obj 78 218 throw~ control;
#N canvas 133 170 656 461 seq_engine 0;
#X obj -35 184 sel 0;
#X obj 7 422 outlet~;
#X obj 132 66 r sample_length;
#X obj 7 394 *~ 1000;
#X obj -35 162 * 1;
#X obj 5 274 phasor~;
#X obj -35 138 t b f;
#X obj -107 51 sel 0;
#X obj -107 26 inlet;
#X obj -3 209 t b f;
#X obj 5 254 /;
#X obj -75 76 t b f;
#X obj -75 120 /;
#X msg -75 98 1;
#X msg 3 231 1000;
#X obj 114 307 snapshot~;
#X floatatom 114 328 5 0 0 0 - - -;
#X obj 96 354 f;
#X obj 114 261 r mode;
#X obj 114 282 sel 1 0;
#X obj 51 122 r bangz;
#X msg 51 166 0;
#X obj 51 144 sel 1;
#X obj 220 249 inlet;
#X obj 238 305 r raw_length;
#X obj 220 338 /;
#X text 217 222 helps make sure sample starts;
#X text 217 232 at right place when switching modes;
#X text 82 166 reset to sample start;
#X text 101 241 Play/Freeze;
#X text -60 27 stretch factor;
#X text -40 98 reciprocal;
#X text -152 265 MASTER CLOCK;
#X text -153 277 FOR SAMPLE PLAYBACK;
#X connect 0 1 9 0;
#X connect 2 0 6 0;
#X connect 2 0 3 1;
#X connect 3 0 1 0;
#X connect 4 0 0 0;
#X connect 5 0 3 0;
#X connect 5 0 15 0;
#X connect 6 0 4 0;
#X connect 6 1 4 1;
#X connect 7 1 11 0;
#X connect 8 0 7 0;
#X connect 9 0 14 0;
#X connect 9 1 10 1;
#X connect 10 0 5 0;
#X connect 11 0 13 0;
#X connect 11 1 12 1;
#X connect 12 0 4 0;
#X connect 13 0 12 0;
#X connect 14 0 10 0;
#X connect 15 0 16 0;
#X connect 16 0 17 1;
#X connect 17 0 5 1;
#X connect 18 0 19 0;
#X connect 19 0 15 0;
#X connect 19 1 17 0;
#X connect 20 0 22 0;
#X connect 21 0 5 1;
#X connect 22 0 21 0;
#X connect 23 0 25 0;
#X connect 24 0 25 1;
#X connect 25 0 17 1;
#X restore 114 123 pd seq_engine;
#X floatatom 43 31 0 0 0 0 - - -;
#N canvas 378 62 450 300 switch 0;
#X obj 116 135 *~;
#X obj 121 181 +~;
#X obj 156 137 *~;
#X obj 135 27 inlet;
#X obj 128 78 < 1;
#X obj 123 249 outlet~;
#X obj 241 26 inlet~;
#X obj 180 26 inlet~;
#X connect 0 0 1 0;
#X connect 1 0 5 0;
#X connect 2 0 1 1;
#X connect 3 0 4 0;
#X connect 3 0 2 1;
#X connect 4 0 0 1;
#X connect 6 0 2 0;
#X connect 7 0 0 0;
#X restore 78 169 pd switch;
#X obj 56 145 tgl 15 0 empty empty empty 17 7 0 10 -262144 -1 -1 0
1;
#X obj 56 124 r mode;
#X obj 42 4 r stretch;
#N canvas 58 80 262 182 pos_rndm 0;
#X obj 60 83 +~ 1;
#X obj 60 108 *~ 0;
#X obj 60 60 noise~;
#X obj 102 82 / 2;
#X obj 108 31 inlet;
#X obj 60 143 outlet~;
#X connect 0 0 1 0;
#X connect 1 0 5 0;
#X connect 2 0 0 0;
#X connect 3 0 1 1;
#X connect 4 0 3 0;
#X restore 190 178 pd pos_rndm;
#X text 194 219 to Granvoice;
#X obj 234 25 inlet;
#X text 111 35 Stretch factor;
#X text -8 98 PLAY mode;
#X text 279 108 FREEZE position;
#X text -17 139 Play (0);
#X text -20 148 Freeze (1);
#X obj 43 56 * 2;
#X text 75 59 sample rate 22050-44100 correction hack;
#X text 74 74 don't understand why but look also in sampleloader AT
FDM 2/23;
#X connect 0 0 3 0;
#X connect 1 0 11 0;
#X connect 2 0 4 0;
#X connect 3 0 7 2;
#X connect 5 0 7 1;
#X connect 6 0 19 0;
#X connect 7 0 2 0;
#X connect 8 0 7 0;
#X connect 9 0 8 0;
#X connect 10 0 6 0;
#X connect 11 0 2 1;
#X connect 13 0 0 0;
#X connect 13 0 5 1;
#X connect 19 0 5 0;
#X restore 789 210 pd time_stretcher;
#X text 866 188 freeze position (ms);
#N canvas 108 233 681 481 gran_pitch 0;
#X floatatom 405 313 0 0 0 0 - - -;
#N canvas 329 117 680 446 random_pitch 0;
#X obj 47 58 loadbang;
#X floatatom 431 165 0 0 0 0 - - -;
#X msg 500 244 2;
#X msg 500 223 bang;
#X msg 431 239 1;
#X obj 431 201 sel 0;
#X floatatom 240 77 0 0 0 0 - - -;
#X obj 431 340 * 1;
#X text 78 19 duration;
#X text 257 58 random width;
#X text 240 104 0 ~ 3;
#X text 470 167 0 ~1.0;
#X text 326 182 pitch quantize;
#N canvas 192 270 548 310 switch 0;
#X obj 41 187 spigot;
#X obj 132 188 spigot;
#X obj 240 187 spigot;
#X obj 361 187 spigot;
#X obj 44 19 inlet;
#X obj 78 106 i 1;
#X obj 400 105 i 1;
#X obj 278 106 i 1;
#X obj 169 105 i 1;
#X obj 247 6 inlet;
#X obj 89 136 i 0;
#X obj 180 135 i 0;
#X obj 289 136 i 0;
#X obj 411 135 i 0;
#X obj 45 236 outlet;
#X obj 133 232 outlet;
#X obj 240 233 outlet;
#X obj 361 236 outlet;
#X obj 247 56 select 1 2 3 4;
#X connect 0 0 14 0;
#X connect 1 0 15 0;
#X connect 2 0 16 0;
#X connect 3 0 17 0;
#X connect 4 0 0 0;
#X connect 4 0 1 0;
#X connect 4 0 2 0;
#X connect 4 0 3 0;
#X connect 5 0 0 1;
#X connect 6 0 3 1;
#X connect 7 0 2 1;
#X connect 8 0 1 1;
#X connect 9 0 18 0;
#X connect 10 0 0 1;
#X connect 11 0 1 1;
#X connect 12 0 2 1;
#X connect 13 0 3 1;
#X connect 18 0 5 0;
#X connect 18 0 11 0;
#X connect 18 0 12 0;
#X connect 18 0 13 0;
#X connect 18 1 8 0;
#X connect 18 1 10 0;
#X connect 18 1 12 0;
#X connect 18 1 13 0;
#X connect 18 2 7 0;
#X connect 18 2 10 0;
#X connect 18 2 11 0;
#X connect 18 2 13 0;
#X connect 18 3 6 0;
#X connect 18 3 10 0;
#X connect 18 3 11 0;
#X connect 18 3 12 0;
#X restore 433 275 pd switch;
#X obj 28 16 inlet;
#X obj 240 23 inlet;
#X obj 431 30 inlet;
#X obj 431 364 outlet;
#X obj 52 88 tgl 15 0 empty empty empty 20 8 0 8 -262144 -1 -1 1 1
;
#X obj 55 111 metro 0;
#N canvas 0 22 450 300 expr 0;
#X obj 310 132 /;
#X obj 308 194 *;
#X obj 331 164 int;
#X obj 273 94 inlet;
#X obj 351 99 inlet;
#X obj 313 263 outlet;
#X connect 0 0 2 0;
#X connect 1 0 5 0;
#X connect 2 0 1 0;
#X connect 3 0 0 0;
#X connect 4 0 0 1;
#X connect 4 0 1 1;
#X restore 459 311 pd expr;
#X obj 105 191 random 2000;
#X obj 105 215 - 1000;
#X obj 105 241 / 1000;
#X obj 116 271 *;
#X obj 99 306 t b f;
#X obj 104 371 pow;
#X msg 90 339 2;
#X connect 0 0 18 0;
#X connect 0 0 4 0;
#X connect 1 0 5 0;
#X connect 2 0 13 1;
#X connect 3 0 2 0;
#X connect 4 0 13 1;
#X connect 5 0 4 0;
#X connect 5 1 3 0;
#X connect 5 1 20 1;
#X connect 6 0 24 1;
#X connect 7 0 17 0;
#X connect 13 0 7 0;
#X connect 13 1 20 0;
#X connect 14 0 7 1;
#X connect 15 0 6 0;
#X connect 16 0 1 0;
#X connect 18 0 19 0;
#X connect 19 0 21 0;
#X connect 20 0 7 0;
#X connect 21 0 22 0;
#X connect 22 0 23 0;
#X connect 23 0 24 0;
#X connect 24 0 25 0;
#X connect 25 0 27 0;
#X connect 25 1 26 1;
#X connect 26 0 13 0;
#X connect 27 0 26 0;
#X restore 352 379 pd random_pitch;
#X obj 352 398 sig~;
#X obj 56 350 s gfreq;
#X floatatom 109 205 0 0 0 0 - - -;
#X floatatom 56 255 0 0 0 0 - - -;
#X obj 352 419 throw~ gdur;
#X obj 405 338 / 40;
#X floatatom 401 361 5 0 0 0 - - -;
#X obj 454 358 / 100;
#N canvas 0 23 831 413 exprA 0;
#X floatatom 479 86 5 0 0 0 - - -;
#X floatatom 373 50 5 0 0 0 - - -;
#X obj 301 120 t b f;
#X msg 304 170 1000;
#X obj 304 210 *;
#X obj 302 266 /;
#X floatatom 302 303 5 0 0 0 - - -;
#X obj 248 149 f;
#X obj 249 124 t b;
#X obj 372 7 inlet;
#X obj 475 7 inlet;
#X obj 301 342 outlet;
#X connect 0 0 2 0;
#X connect 0 0 7 1;
#X connect 1 0 5 1;
#X connect 1 0 8 0;
#X connect 2 0 3 0;
#X connect 2 1 4 1;
#X connect 3 0 4 0;
#X connect 4 0 5 0;
#X connect 5 0 6 0;
#X connect 6 0 11 0;
#X connect 7 0 2 0;
#X connect 8 0 7 0;
#X connect 9 0 1 0;
#X connect 10 0 0 0;
#X restore 56 286 pd exprA;
#X obj 56 234 r duration;
#X obj 109 55 r basepitch;
#X obj 405 272 r pitchrand;
#X obj 455 295 r pitchquant;
#X floatatom 56 317 5 0 0 0 - - -;
#X floatatom 109 77 5 0 0 0 - - -;
#X obj 109 94 / 1200;
#X obj 109 159 pow;
#X obj 109 115 t b f;
#X msg 109 136 2;
#X floatatom 455 317 0 0 0 0 - - -;
#X obj 224 55 r physics-reset;
#X msg 298 165 1;
#X obj 109 181 * 1;
#X msg 328 165 100;
#X obj 298 137 sel 0 1;
#X obj 343 54 r xtrmpitch;
#X obj 355 137 tgl 15 0 empty empty empty 17 7 0 10 -262144 -1 -1 0
1;
#X text 150 77 cents;
#X text 149 160 12th root of 2;
#X text 174 208 frequency multiple;
#X text 83 255 gran dur (ms);
#X text 347 36 Extreme pitch button makes freq swing wider;
#X text 53 371 drives phasor~ in granvoice;
#X text 369 234 NEED TO LOOK AT DIVIDER (40) BELOW;
#X text 224 31 from INIT;
#X connect 0 0 7 0;
#X connect 1 0 2 0;
#X connect 2 0 6 0;
#X connect 4 0 10 1;
#X connect 5 0 1 0;
#X connect 5 0 10 0;
#X connect 7 0 8 0;
#X connect 8 0 1 1;
#X connect 9 0 1 2;
#X connect 10 0 15 0;
#X connect 11 0 5 0;
#X connect 12 0 16 0;
#X connect 13 0 0 0;
#X connect 14 0 21 0;
#X connect 15 0 3 0;
#X connect 16 0 17 0;
#X connect 17 0 19 0;
#X connect 18 0 24 0;
#X connect 19 0 20 0;
#X connect 19 1 18 1;
#X connect 20 0 18 0;
#X connect 21 0 9 0;
#X connect 22 0 23 0;
#X connect 23 0 24 1;
#X connect 24 0 4 0;
#X connect 25 0 24 1;
#X connect 26 0 23 0;
#X connect 26 1 25 0;
#X connect 27 0 26 0;
#X connect 27 0 28 0;
#X restore 287 289 pd gran_pitch;
#X obj 792 127 hsl 190 15 1 128 0 0 empty empty empty 20 8 0 8 -262144
-1 -1 17447 1;
#N canvas 42 23 1130 573 slider_adjuster 0;
#X obj 114 395 / 127;
#X obj 115 465 * 1;
#X obj 114 321 abs;
#X obj 114 300 -;
#X obj 46 465 * 1;
#X obj 45 398 / 127;
#X obj 45 223 inlet;
#X obj 46 514 outlet;
#X obj 115 515 outlet;
#X obj 132 246 inlet;
#X floatatom 410 435 5 0 0 0 - - -;
#X obj 114 275 bng 15 250 50 0 empty empty empty 20 8 0 8 -262144 -1
-1;
#X text 168 401 range 0-1.0;
#X text 456 434 sample length;
#X text 93 223 top slider (min);
#X text 177 247 bottom slider (max);
#X obj 712 488 outlet;
#X text 765 490 to bottom slider (max);
#X text 154 301 slider difference (loop length);
#X obj 463 383 spigot;
#X obj 481 337 f;
#X obj 502 256 r lock;
#X obj 534 300 sel 1;
#X obj 463 361 +;
#X obj 502 278 t f f;
#X obj 463 406 s lockdmax;
#X text 457 233 THIS IS THE OLD "PD LOCK";
#X obj 695 414 hsl 190 15 1 128 0 0 empty empty empty 20 8 0 8 -262144
-1 -1 0 1;
#X obj 695 397 hsl 190 15 1 128 0 0 empty empty empty 20 8 0 8 -262144
-1 -1 0 1;
#X text 893 399 min;
#X text 894 414 max;
#X obj 909 74 r mode;
#X obj 666 271 r maxi;
#X floatatom 717 293 5 0 0 0 - - -;
#X floatatom 759 294 5 0 0 0 - - -;
#X obj 743 313 latch;
#X obj 736 357 spigot;
#X obj 691 510 outlet;
#X text 744 512 to TOP slider (min);
#X text 655 233 loop end point when;
#X text 656 247 controlled by tilt;
#X text 903 54 Play/Freeze (0/1);
#X obj 409 83 r raw_length;
#X obj 909 119 sel 1;
#X text 907 151 Going into Freeze;
#X text 714 47 Sample position in Play;
#X text 907 163 captures position;
#X text 712 59 from "PD Granular";
#X text 732 21 THIS SECTION IS THE OLD "PD MINMAX";
#X obj 770 73 r trackpoint;
#X obj 771 136 /;
#X obj 776 178 * 128;
#X floatatom 794 121 5 0 0 0 - - -;
#X floatatom 769 99 5 0 0 0 - - -;
#X floatatom 776 160 5 0 0 0 - - -;
#X msg 955 272 set \$1;
#X obj 860 344 hsl 190 15 1 128 0 0 empty empty empty 20 8 0 8 -262144
-1 -1 17447 1;
#X obj 954 500 outlet;
#X obj 858 322 s-r mode;
#X obj 858 305 tgl 15 0 empty empty empty 17 7 0 10 -262144 -1 -1 0
1;
#X obj 719 268 r min;
#X obj 765 222 f;
#N canvas 86 30 847 720 minmax 0;
#X obj 448 501 * 128;
#X obj 521 394 r raw_length;
#X obj 455 392 f;
#X obj 443 292 r mode;
#X obj 441 339 sel 1;
#X obj 495 536 + 1;
#X obj 448 463 /;
#X obj 448 431 t f b;
#X obj 501 478 f;
#X obj 494 338 r trackpoint;
#X obj 422 593 outlet;
#X obj 507 579 outlet;
#X connect 0 0 5 0;
#X connect 0 0 10 0;
#X connect 1 0 8 1;
#X connect 2 0 7 0;
#X connect 3 0 4 0;
#X connect 4 0 2 0;
#X connect 5 0 11 0;
#X connect 6 0 0 0;
#X connect 7 0 6 0;
#X connect 7 1 8 0;
#X connect 8 0 6 1;
#X connect 9 0 2 1;
#X restore 619 356 pd minmax;
#X obj 115 490 + 5;
#X connect 0 0 1 0;
#X connect 1 0 63 0;
#X connect 2 0 0 0;
#X connect 2 0 20 1;
#X connect 3 0 2 0;
#X connect 4 0 7 0;
#X connect 5 0 4 0;
#X connect 6 0 5 0;
#X connect 6 0 3 0;
#X connect 6 0 23 0;
#X connect 9 0 3 1;
#X connect 9 0 11 0;
#X connect 10 0 1 1;
#X connect 10 0 4 1;
#X connect 11 0 3 0;
#X connect 19 0 25 0;
#X connect 19 0 27 0;
#X connect 20 0 23 1;
#X connect 21 0 24 0;
#X connect 22 0 20 0;
#X connect 23 0 19 0;
#X connect 24 0 19 1;
#X connect 24 1 22 0;
#X connect 27 0 16 0;
#X connect 28 0 37 0;
#X connect 31 0 35 2;
#X connect 31 0 43 0;
#X connect 32 0 36 0;
#X connect 33 0 35 0;
#X connect 34 0 35 1;
#X connect 35 0 28 0;
#X connect 35 1 36 1;
#X connect 36 0 27 0;
#X connect 42 0 10 0;
#X connect 42 0 52 0;
#X connect 43 0 61 0;
#X connect 49 0 53 0;
#X connect 50 0 54 0;
#X connect 51 0 55 0;
#X connect 51 0 61 1;
#X connect 52 0 50 1;
#X connect 53 0 50 0;
#X connect 54 0 51 0;
#X connect 55 0 56 0;
#X connect 55 0 57 0;
#X connect 56 0 28 0;
#X connect 56 0 27 0;
#X connect 58 0 59 0;
#X connect 59 0 58 0;
#X connect 60 0 33 0;
#X connect 61 0 34 0;
#X connect 62 0 28 0;
#X connect 62 1 27 0;
#X connect 63 0 8 0;
#X restore 653 105 pd slider_adjuster;
#X obj 31 74 bng 15 250 50 0 empty empty empty 17 7 0 10 -262144 -1
-1;
#X obj 789 104 r freezepos;
#X obj 462 207 s-r mode;
#X obj 462 189 tgl 15 0 empty empty empty 17 7 0 10 -262144 -1 -1 0
1;
#X floatatom 847 502 0 0 0 0 - - -;
#X floatatom 560 188 0 0 0 0 - - -;
#X floatatom 521 336 5 0 0 0 - - -;
#X floatatom 846 461 0 0 0 0 - - -;
#X obj 847 543 tgl 15 0 empty empty empty 17 7 0 10 -262144 -1 -1 0
1;
#X text 562 339 cents;
#X text 587 188 gran dur (ms);
#X obj 521 355 s-r basepitch;
#X obj 560 207 s-r duration;
#X obj 847 521 s-r pitchrand;
#X obj 846 480 s-r pitchquant;
#X obj 846 561 s-r xtrmpitch;
#X floatatom 461 511 8 0 0 0 - filterfreq -;
#X obj 464 476 hsl 128 15 0 1 0 1 filtercutoff empty filtercutoff 4
8 0 10 -262144 -1 -1 12700 1;
#X floatatom 461 494 5 0 0 0 - - -;
#X obj 463 541 hsl 128 15 0 1 0 1 filterres empty filterres 4 8 0 10
-262144 -1 -1 0 1;
#X floatatom 460 559 5 0 0 0 - - -;
#X text 528 511 Hz;
#X floatatom 760 340 5 0 0 0 - - -;
#X obj 761 360 s-r stretch;
#X obj 763 322 hsl 128 15 -2 4 0 0 empty empty empty -2 -8 0 10 -262144
-1 -1 4000 1;
#X text 822 305 |;
#X floatatom 257 642 5 0 0 0 - - gain;
#X obj 256 468 vsl 15 128 0 127 0 0 empty empty empty 0 -9 0 10 -262144
-1 -1 6400 1;
#X floatatom 257 602 5 0 0 0 - - -;
#X obj 257 621 m_autoscale 0 2;
#X obj 627 496 tgl 15 0 distoonoff empty disto_on/off 17 7 0 12 -262144
-1 -1 0 1;
#X text 479 187 Play/Freeze;
#X text 305 643 GAIN;
#X floatatom 621 561 5 0 0 0 - - distodrive;
#X floatatom 621 518 5 0 0 0 - - -;
#X text 669 562 DISTORTION;
#X obj 257 351 distortion;
#X obj 257 380 dac~;
#X text 213 602 MUTE;
#X obj 192 604 tgl 15 0 empty empty empty 17 7 0 10 -262144 -1 -1 0
1;
#N canvas 44 429 416 203 mute 0;
#X obj 115 31 inlet;
#X text 248 40 MUTE;
#X msg 247 94 \; gain 0;
#X msg 306 94 \; gain 1;
#X msg 115 123 \; gain \$1;
#X obj 115 77 flip 1;
#X obj 115 55 tgl 15 0 empty empty empty 17 7 0 10 -262144 -1 -1 0
1;
#X obj 115 102 tgl 15 0 empty empty empty 17 7 0 10 -262144 -1 -1 0
1;
#X connect 0 0 6 0;
#X connect 5 0 7 0;
#X connect 6 0 5 0;
#X connect 7 0 4 0;
#X restore 192 622 pd mute;
#X floatatom 281 48 5 0 0 0 - - -;
#X text 159 50 load in sample #;
#X obj 30 140 declare -path rj;
#X obj 30 162 declare -path abs;
#X obj 30 184 declare -path sounds;
#N canvas 107 392 1333 486 INIT 0;
#X obj 663 368 send basepitch;
#X obj 321 370 send min;
#X obj 321 266 spigot;
#X obj 116 212 r mode;
#X obj 206 265 spigot;
#X obj 388 349 + 0.01;
#X obj 388 371 send maxi;
#X obj 710 55 delay 300;
#X floatatom 445 291 5 0 0 0 - - -;
#X obj 427 249 spigot;
#X obj 427 271 + 1;
#X obj 427 310 * 5;
#X msg 631 155 0;
#X obj 321 288 + 1;
#X obj 321 307 * 64;
#X obj 663 338 r ppr;
#X obj 206 371 send stretch;
#X floatatom 206 355 5 0 0 0 - - -;
#X obj 206 288 * 2;
#X obj 206 311 + 1;
#X obj 697 4 inlet;
#X obj 697 98 bng 15 250 50 0 empty empty empty 17 7 0 10 -262144 -1
-1;
#X obj 245 228 == 0;
#X obj 360 228 tgl 15 0 empty empty empty 17 7 0 10 -262144 -1 -1 0
1;
#X obj 245 247 tgl 15 0 empty empty empty 17 7 0 10 -262144 -1 -1 1
1;
#X text 207 392 Play mode;
#X text 328 405 Freeze mode;
#X text 329 390 0-127;
#X text 325 419 Position + loop end in Slider_Adjuster;
#X text 100 196 Play/Freeze;
#X obj 466 228 tgl 15 0 empty empty empty 17 7 0 10 -262144 -1 -1 0
1;
#X obj 710 33 r loadbang;
#X msg 328 167 1;
#X obj 788 370 send pitchrand;
#X obj 967 282 * 100;
#X obj 967 372 send pitchquant;
#X obj 1174 370 send duration;
#X msg 967 160 0;
#X msg 788 161 0;
#X floatatom 891 239 5 0 0 0 - - -;
#X floatatom 1103 243 5 0 0 0 - - -;
#X obj 1103 261 / 100;
#X obj 891 258 / 100;
#X obj 735 253 / 100;
#X obj 1174 297 * 250;
#X obj 788 290 * 127;
#X obj 735 230 r rpr;
#X obj 891 217 r qpr;
#X obj 1103 222 r dpr;
#X msg 1174 160 0.36;
#X obj 1094 104 s physics-init;
#X text 1095 79 to gran_pitch;
#X connect 2 0 13 0;
#X connect 3 0 22 0;
#X connect 3 0 23 0;
#X connect 3 0 30 0;
#X connect 4 0 18 0;
#X connect 5 0 6 0;
#X connect 7 0 21 0;
#X connect 8 0 11 1;
#X connect 9 0 10 0;
#X connect 10 0 11 0;
#X connect 11 0 5 1;
#X connect 12 0 0 0;
#X connect 13 0 14 0;
#X connect 14 0 1 0;
#X connect 14 0 5 0;
#X connect 15 0 0 0;
#X connect 17 0 16 0;
#X connect 18 0 19 0;
#X connect 19 0 17 0;
#X connect 20 0 21 0;
#X connect 21 0 12 0;
#X connect 21 0 38 0;
#X connect 21 0 37 0;
#X connect 21 0 49 0;
#X connect 21 0 32 0;
#X connect 21 0 50 0;
#X connect 22 0 24 0;
#X connect 23 0 2 1;
#X connect 24 0 4 1;
#X connect 30 0 9 1;
#X connect 31 0 7 0;
#X connect 32 0 17 0;
#X connect 34 0 35 0;
#X connect 37 0 34 0;
#X connect 38 0 45 0;
#X connect 39 0 42 0;
#X connect 40 0 41 0;
#X connect 41 0 44 0;
#X connect 42 0 34 0;
#X connect 43 0 45 0;
#X connect 44 0 36 0;
#X connect 45 0 33 0;
#X connect 46 0 43 0;
#X connect 47 0 39 0;
#X connect 48 0 40 0;
#X connect 49 0 44 0;
#X restore 31 212 pd INIT;
#X text 154 322 Low Pass Filt:;
#X text 179 352 Overdrive:;
#N canvas 85 337 334 211 volume-init 0;
#X msg 121 68 input 0 127 \, 0;
#X obj 110 29 r loadbang;
#X msg 67 65 64;
#X obj 67 121 outlet;
#X obj 121 122 outlet;
#X connect 0 0 4 0;
#X connect 1 0 0 0;
#X connect 1 0 2 0;
#X connect 2 0 3 0;
#X restore 256 445 pd volume-init;
#N canvas 150 461 450 300 autoscale-init 0;
#X obj 64 47 inlet;
#X obj 64 151 outlet;
#X msg 201 76 input -1 1 \, 0;
#X obj 64 104 m_autoscale 0 100 dB;
#X obj 201 53 r loadbang;
#X connect 0 0 3 0;
#X connect 2 0 3 1;
#X connect 3 0 1 0;
#X connect 4 0 2 0;
#X restore 621 539 pd autoscale-init;
#X text 506 559 Q;
#X obj 624 475 hsl 128 15 -1 1 0 0 empty empty empty -2 -8 0 10 -262144
-1 -1 0 1;
#X text 460 417 ________________ FX SECTION ________________;
#X text 460 439 ________LPF________ ______OVERDRIVE_____;
#X text 190 262 ________SYNTH ENGINE________;
#X obj 524 319 hsl 128 15 -1200 1200 0 0 empty empty empty -2 -8 0
10 -262144 -1 -1 7300 1;
#X msg 655 303 0;
#X text 583 302 |;
#X msg 894 306 1;
#X text 987 126 pos;
#X text 784 75 ______________SCRUB______________;
#X text 465 74 ______________PLAYBACK______________;
#X text 516 268 ________TRANSPOSE_________;
#X text 826 645 Adam Parkinson / RJDJ iOS / 2010;
#X text 825 628 nobuyasu sakodna / MaxMSP / 1999;
#X text 188 417 __________OUTPUT___________;
#X text 841 416 ______PITCH______;
#X text 876 460 quantization;
#X text 876 502 randomness;
#X text 874 542 extreme range;
#X text 714 662 Atau Tanaka & BBDMI team / OWL & Organelle / 2023;
#X text 759 267 _________STRETCH_________;
#X msg 281 26 0;
#X msg 312 26 1;
#X msg 346 26 2;
#X msg 377 26 3;
#X text 158 26 CLICK to select;
#X text 708 188 pos random;
#X text 918 211 --SEQ ENGINE HERE--;
#X text 713 674 22050 to 44100 correction made by hack in pd sampleloader
and pd time_stretcher (* and / 2);
#X connect 3 0 2 0;
#X connect 6 0 15 0;
#X connect 7 0 19 1;
#X connect 8 0 19 0;
#X connect 12 0 56 0;
#X connect 12 1 56 1;
#X connect 13 0 12 0;
#X connect 13 1 12 1;
#X connect 18 0 8 0;
#X connect 18 0 7 0;
#X connect 19 0 6 0;
#X connect 19 1 3 0;
#X connect 19 2 8 0;
#X connect 19 3 7 0;
#X connect 19 4 18 0;
#X connect 20 0 14 0;
#X connect 21 0 18 0;
#X connect 22 0 23 0;
#X connect 23 0 22 0;
#X connect 24 0 33 0;
#X connect 25 0 32 0;
#X connect 26 0 31 0;
#X connect 27 0 34 0;
#X connect 28 0 35 0;
#X connect 31 0 26 0;
#X connect 32 0 25 0;
#X connect 33 0 24 0;
#X connect 34 0 27 0;
#X connect 35 0 28 0;
#X connect 37 0 38 0;
#X connect 39 0 40 0;
#X connect 42 0 43 0;
#X connect 43 0 44 0;
#X connect 44 0 42 0;
#X connect 47 0 48 0;
#X connect 48 0 49 0;
#X connect 49 0 46 0;
#X connect 54 0 70 0;
#X connect 56 0 57 0;
#X connect 56 1 57 1;
#X connect 59 0 60 0;
#X connect 61 0 11 0;
#X connect 69 0 47 0;
#X connect 69 1 49 1;
#X connect 70 0 53 0;
#X connect 72 0 54 0;
#X connect 76 0 26 0;
#X connect 77 0 76 0;
#X connect 79 0 44 0;
#X connect 93 0 61 0;
#X connect 94 0 61 0;
#X connect 95 0 61 0;
#X connect 96 0 61 0;
