#N canvas 149 54 1097 669 12;
#X declare -path .;
#X declare -path rj;
#N canvas 0 22 588 274 LICENSE 0;
#X text 79 84 (c) 2008 Reality Jockey;
#X text 57 36 Released under the GNU General Public License ver. 3
or later. See the file LICENSE.txt for the full text.;
#X restore 18 -119 pd LICENSE;
#X obj 18 -100 OVERVIEW;
#X obj 18 -160 declare -path .;
#X obj 18 -139 declare -path rj;
#X obj 19 -71 accelerate;
#X obj 19 -52 touch;
#X obj 734 -3 s rndm;
#X obj 734 -44 + 5;
#X floatatom 734 -24 0 0 0 0 - - -;
#X text 5 403 msp Granular Synthesis;
#X text 4 433 nobuyasu sakodna / Jan 1999;
#X text 2 420 (adapted from);
#N canvas 0 22 450 300 (subpatch) 0;
#X array playobject 263042 float 0;
#X coords 0 1 263041 -1 200 140 1;
#X restore 168 -193 graph;
#X floatatom 607 -64 10 0 0 0 - - -;
#X obj 771 -89 hsl 190 15 1 128 0 0 empty empty empty 20 8 0 8 -262144
-1 -1 0 1;
#X obj 767 -110 hsl 190 15 1 128 0 0 empty empty empty 20 8 0 8 -262144
-1 -1 0 1;
#X text 962 -110 min;
#X text 962 -92 max;
#N canvas 105 58 703 548 sampleloader 1;
#X obj 92 295 s raw_length;
#X obj 102 338 r rndm;
#X obj 71 428 s sample_length;
#X obj 77 239 soundfiler;
#N canvas 72 242 678 310 windowstuff 0;
#X text 445 123 window shape;
#X obj 20 16 loadbang;
#X obj 20 65 soundfiler;
#N canvas 0 22 450 300 (subpatch) 0;
#X array wndw 516 float 0;
#X coords 0 1 515 -1 200 140 1;
#X restore 399 146 graph;
#X msg 21 40 read -resize tri wndw;
#X obj 20 95 s trisize;
#X connect 1 0 4 0;
#X connect 2 0 5 0;
#X connect 4 0 2 0;
#X restore 155 264 pd windowstuff;
#X obj 76 264 sampstoms;
#X obj 71 396 -;
#X obj 103 360 t b f;
#X obj 44 335 f;
#X msg 57 10 read -resize mouse.wav playobject;
#X obj 198 382 s sfiler;
#X obj 16 199 r sfiler;
#X obj 253 36 inlet;
#X obj 486 396 list split 2;
#X obj 526 424 list split 1;
#X msg 526 450 set \$1;
#X obj 526 476 outlet;
#X obj 629 78 select 0 1 2 3 4 5;
#X obj 606 338 s sfiler;
#X msg 550 152 read -resize c3.at1.wav playobject;
#X msg 609 183 read -resize b.taprep1.wav playobject;
#X msg 639 218 read -resize f1.at1.wav playobject;
#X msg 603 261 read -resize waterbubblestream1.wav playobject;
#X msg 603 294 read -resize waterwadinglp1.wav playobject;
#X obj 506 353 r sfiler;
#X connect 1 0 7 0;
#X connect 3 0 5 0;
#X connect 5 0 0 0;
#X connect 5 0 6 0;
#X connect 5 0 8 1;
#X connect 6 0 2 0;
#X connect 7 0 8 0;
#X connect 7 1 6 1;
#X connect 8 0 6 0;
#X connect 9 0 3 0;
#X connect 11 0 3 0;
#X connect 12 0 17 0;
#X connect 13 1 14 0;
#X connect 14 0 15 0;
#X connect 15 0 16 0;
#X connect 17 0 19 0;
#X connect 17 1 20 0;
#X connect 17 2 21 0;
#X connect 17 3 23 0;
#X connect 17 4 22 0;
#X connect 19 0 18 0;
#X connect 20 0 18 0;
#X connect 21 0 18 0;
#X connect 22 0 18 0;
#X connect 23 0 18 0;
#X connect 24 0 13 0;
#X restore 216 24 pd sampleloader;
#N canvas 751 355 450 300 presets 0;
#X obj 162 59 inlet;
#X obj 161 104 select 0 1 2 3 4 5;
#X obj 184 228 send qpr;
#X obj 257 229 send ppr;
#X obj 330 231 send dpr;
#X obj 113 227 send rpr;
#X floatatom 226 64 5 0 0 0 - - -;
#X obj 163 196 s gain;
#X msg 161 150 1;
#X msg 343 152 2;
#X msg 210 150 1.25;
#X msg 259 152 1.5;
#X msg 302 154 1.75;
#X connect 0 0 1 0;
#X connect 1 0 8 0;
#X connect 1 1 10 0;
#X connect 1 2 11 0;
#X connect 1 3 12 0;
#X connect 1 4 9 0;
#X connect 6 0 1 0;
#X connect 8 0 7 0;
#X connect 9 0 7 0;
#X connect 10 0 7 0;
#X connect 11 0 7 0;
#X connect 12 0 7 0;
#X restore 303 -13 pd presets;
#X text 718 14 position randomness;
#X obj 6 168 fx;
#N canvas 1 23 450 300 granular 0;
#X obj 36 156 grain2~;
#X obj 104 100 grain2~;
#X obj 36 101 grain2~;
#X obj 105 157 grain2~;
#X obj 265 158 grain2~;
#X obj 186 158 grain2~;
#X obj 265 103 grain2~;
#X obj 189 103 grain2~;
#X obj 223 6 catch~ gdur;
#X obj 52 3 catch~ control;
#X msg 35 77 0;
#X msg 104 77 0.25;
#X msg 265 78 0.375;
#X msg 190 78 0.125;
#X msg 35 132 0.5;
#X msg 104 130 0.75;
#X msg 187 131 0.625;
#X msg 267 134 0.875;
#X obj 159 4 loadbang;
#X obj -84 119 snapshot~;
#X obj -85 77 metro 100;
#X obj -102 77 tgl 15 0 empty empty empty 17 7 0 10 -262144 -1 -1 0
1;
#X obj -85 56 loadbang;
#X obj -84 146 s trackpoint;
#X obj 152 213 thru;
#X obj 124 252 outlet~;
#X obj 183 252 outlet~;
#X connect 0 0 24 0;
#X connect 1 0 24 0;
#X connect 2 0 24 0;
#X connect 3 0 24 0;
#X connect 4 0 24 1;
#X connect 5 0 24 1;
#X connect 6 0 24 1;
#X connect 7 0 24 1;
#X connect 8 0 6 2;
#X connect 8 0 4 2;
#X connect 8 0 7 2;
#X connect 8 0 5 2;
#X connect 8 0 1 2;
#X connect 8 0 3 2;
#X connect 8 0 2 2;
#X connect 8 0 0 2;
#X connect 9 0 2 1;
#X connect 9 0 1 1;
#X connect 9 0 7 1;
#X connect 9 0 6 1;
#X connect 9 0 0 1;
#X connect 9 0 3 1;
#X connect 9 0 5 1;
#X connect 9 0 4 1;
#X connect 9 0 19 0;
#X connect 10 0 2 0;
#X connect 11 0 1 0;
#X connect 12 0 6 0;
#X connect 13 0 7 0;
#X connect 14 0 0 0;
#X connect 15 0 3 0;
#X connect 16 0 5 0;
#X connect 17 0 4 0;
#X connect 18 0 14 0;
#X connect 18 0 15 0;
#X connect 18 0 16 0;
#X connect 18 0 17 0;
#X connect 18 0 10 0;
#X connect 18 0 11 0;
#X connect 18 0 13 0;
#X connect 18 0 12 0;
#X connect 19 0 23 0;
#X connect 20 0 19 0;
#X connect 21 0 20 0;
#X connect 22 0 20 0;
#X connect 24 0 25 0;
#X connect 24 1 26 0;
#X restore 6 140 pd granular;
#N canvas 0 22 518 311 LOADBANGS 0;
#X obj 182 -34 s gain;
#X msg 182 -55 1;
#X msg 20 -35 move 160 160;
#X obj 20 -56 t b b;
#X msg 52 -15 visible 1;
#X msg 300 -53 0;
#X obj 300 -32 s mode;
#X text 332 -58 start in Play mode;
#X text 332 -47 not Freeze mode;
#X obj 164 -160 loadbang;
#X obj 164 -117 s loadbang;
#X obj 164 -138 bng 15 250 50 0 empty empty empty 17 7 0 10 -262144
-1 -1;
#X obj 300 -74 r loadbang;
#X obj 182 -76 r loadbang;
#X obj 20 -78 r loadbang;
#X obj 118 -161 inlet;
#X obj 19 8 rj_image back2.png;
#X connect 1 0 0 0;
#X connect 2 0 16 0;
#X connect 3 0 2 0;
#X connect 3 1 4 0;
#X connect 4 0 16 0;
#X connect 5 0 6 0;
#X connect 9 0 11 0;
#X connect 11 0 10 0;
#X connect 12 0 5 0;
#X connect 13 0 1 0;
#X connect 14 0 3 0;
#X connect 15 0 11 0;
#X restore 18 -189 pd LOADBANGS;
#X obj 374 -212 bng 15 250 50 0 empty empty empty 17 7 0 10 -262144
-1 -1;
#X text 392 -213 Reset Physics;
#N canvas 141 25 570 329 selectionmode 0;
#X obj 99 140 outlet;
#X obj 174 141 outlet;
#X obj 99 25 r chooser;
#X obj 99 102 spigot;
#X obj 174 105 spigot;
#X obj 173 48 sel 0 1 2;
#X msg 109 79 0;
#X msg 138 79 1;
#X msg 194 83 0;
#X msg 223 83 1;
#X obj 173 25 r presetmode;
#X obj 0 115 s-r chooser;
#X obj -107 113 s-r presetmode;
#X obj -1 137 outlet;
#X obj -107 140 outlet;
#X connect 2 0 3 0;
#X connect 2 0 4 0;
#X connect 3 0 0 0;
#X connect 4 0 1 0;
#X connect 5 0 7 0;
#X connect 5 0 8 0;
#X connect 5 1 6 0;
#X connect 5 1 9 0;
#X connect 5 2 7 0;
#X connect 5 2 9 0;
#X connect 6 0 3 1;
#X connect 7 0 3 1;
#X connect 8 0 4 1;
#X connect 9 0 4 1;
#X connect 10 0 5 0;
#X connect 11 0 13 0;
#X connect 12 0 14 0;
#X restore 168 -51 pd selectionmode;
#N canvas 26 383 452 280 time_stretcher 0;
#X msg 207 106 \$1 5;
#X obj 160 161 r rndm;
#X obj 78 197 +~;
#X obj 207 126 line~;
#X obj 78 218 throw~ control;
#N canvas 469 128 656 461 seq_engine 0;
#X obj -35 184 sel 0;
#X obj 7 422 outlet~;
#X obj 132 66 r sample_length;
#X obj 7 394 *~ 1000;
#X obj -35 162 * 1;
#X obj 5 274 phasor~;
#X obj -35 138 t b f;
#X obj -107 51 sel 0;
#X obj -107 26 inlet;
#X obj -3 209 t b f;
#X obj 5 254 /;
#X obj -75 76 t b f;
#X obj -75 120 /;
#X msg -75 98 1;
#X msg 3 231 1000;
#X obj 114 307 snapshot~;
#X floatatom 114 328 5 0 0 0 - - -;
#X obj 96 354 f;
#X obj 114 261 r mode;
#X obj 114 282 sel 1 0;
#X obj 51 122 r bangz;
#X msg 51 166 0;
#X obj 51 144 sel 1;
#X obj 220 249 inlet;
#X obj 238 305 r raw_length;
#X obj 220 338 /;
#X text 217 222 helps make sure sample starts;
#X text 217 232 at right place when switching modes;
#X text 82 166 reset to sample start;
#X text 101 241 Play/Freeze;
#X text -60 27 stretch factor;
#X text -40 98 reciprocal;
#X text -152 265 MASTER CLOCK;
#X text -153 277 FOR SAMPLE PLAYBACK;
#X connect 0 1 9 0;
#X connect 2 0 6 0;
#X connect 2 0 3 1;
#X connect 3 0 1 0;
#X connect 4 0 0 0;
#X connect 5 0 3 0;
#X connect 5 0 15 0;
#X connect 6 0 4 0;
#X connect 6 1 4 1;
#X connect 7 1 11 0;
#X connect 8 0 7 0;
#X connect 9 0 14 0;
#X connect 9 1 10 1;
#X connect 10 0 5 0;
#X connect 11 0 13 0;
#X connect 11 1 12 1;
#X connect 12 0 4 0;
#X connect 13 0 12 0;
#X connect 14 0 10 0;
#X connect 15 0 16 0;
#X connect 16 0 17 1;
#X connect 17 0 5 1;
#X connect 18 0 19 0;
#X connect 19 0 15 0;
#X connect 19 1 17 0;
#X connect 20 0 22 0;
#X connect 21 0 5 1;
#X connect 22 0 21 0;
#X connect 23 0 25 0;
#X connect 24 0 25 1;
#X connect 25 0 17 1;
#X restore 108 125 pd seq_engine;
#X floatatom 108 105 0 0 0 0 - - -;
#N canvas 378 62 450 300 switch 0;
#X obj 116 135 *~;
#X obj 121 181 +~;
#X obj 156 137 *~;
#X obj 135 27 inlet;
#X obj 128 78 < 1;
#X obj 123 249 outlet~;
#X obj 241 26 inlet~;
#X obj 180 26 inlet~;
#X connect 0 0 1 0;
#X connect 1 0 5 0;
#X connect 2 0 1 1;
#X connect 3 0 4 0;
#X connect 3 0 2 1;
#X connect 4 0 0 1;
#X connect 6 0 2 0;
#X connect 7 0 0 0;
#X restore 78 169 pd switch;
#X obj 59 146 tgl 15 0 empty empty empty 17 7 0 10 -262144 -1 -1 0
1;
#X obj 59 125 r mode;
#X obj 108 84 r stretch;
#N canvas 58 80 262 182 pos_rndm 0;
#X obj 60 83 +~ 1;
#X obj 60 108 *~ 0;
#X obj 60 60 noise~;
#X obj 102 82 / 2;
#X obj 108 31 inlet;
#X obj 60 143 outlet~;
#X connect 0 0 1 0;
#X connect 1 0 5 0;
#X connect 2 0 0 0;
#X connect 3 0 1 1;
#X connect 4 0 3 0;
#X restore 160 181 pd pos_rndm;
#X text 194 219 to Granvoice;
#X obj 207 15 inlet;
#X text 95 67 Stretch factor;
#X text 95 56 PLAY mode;
#X text 255 108 FREEZE position;
#X text -17 139 Play (0);
#X text -17 149 Freeze (1);
#X connect 0 0 3 0;
#X connect 1 0 11 0;
#X connect 2 0 4 0;
#X connect 3 0 7 2;
#X connect 5 0 7 1;
#X connect 6 0 5 0;
#X connect 7 0 2 0;
#X connect 8 0 7 0;
#X connect 9 0 8 0;
#X connect 10 0 6 0;
#X connect 11 0 2 1;
#X connect 13 0 0 0;
#X connect 13 0 5 1;
#X restore 607 -44 pd time_stretcher;
#X text 680 -64 freeze position (ms);
#N canvas 108 233 681 481 gran_pitch 0;
#X floatatom 405 313 0 0 0 0 - - -;
#N canvas 329 117 680 446 random_pitch 0;
#X obj 47 58 loadbang;
#X floatatom 431 165 0 0 0 0 - - -;
#X msg 500 244 2;
#X msg 500 223 bang;
#X msg 431 239 1;
#X obj 431 201 sel 0;
#X floatatom 240 77 0 0 0 0 - - -;
#X obj 431 340 * 1;
#X text 78 19 duration;
#X text 257 58 random width;
#X text 240 104 0 ~ 3;
#X text 470 167 0 ~1.0;
#X text 326 182 pitch quantize;
#N canvas 192 270 548 310 switch 0;
#X obj 41 187 spigot;
#X obj 132 188 spigot;
#X obj 240 187 spigot;
#X obj 361 187 spigot;
#X obj 44 19 inlet;
#X obj 78 106 i 1;
#X obj 400 105 i 1;
#X obj 278 106 i 1;
#X obj 169 105 i 1;
#X obj 247 6 inlet;
#X obj 89 136 i 0;
#X obj 180 135 i 0;
#X obj 289 136 i 0;
#X obj 411 135 i 0;
#X obj 45 236 outlet;
#X obj 133 232 outlet;
#X obj 240 233 outlet;
#X obj 361 236 outlet;
#X obj 247 56 select 1 2 3 4;
#X connect 0 0 14 0;
#X connect 1 0 15 0;
#X connect 2 0 16 0;
#X connect 3 0 17 0;
#X connect 4 0 0 0;
#X connect 4 0 1 0;
#X connect 4 0 2 0;
#X connect 4 0 3 0;
#X connect 5 0 0 1;
#X connect 6 0 3 1;
#X connect 7 0 2 1;
#X connect 8 0 1 1;
#X connect 9 0 18 0;
#X connect 10 0 0 1;
#X connect 11 0 1 1;
#X connect 12 0 2 1;
#X connect 13 0 3 1;
#X connect 18 0 5 0;
#X connect 18 0 11 0;
#X connect 18 0 12 0;
#X connect 18 0 13 0;
#X connect 18 1 8 0;
#X connect 18 1 10 0;
#X connect 18 1 12 0;
#X connect 18 1 13 0;
#X connect 18 2 7 0;
#X connect 18 2 10 0;
#X connect 18 2 11 0;
#X connect 18 2 13 0;
#X connect 18 3 6 0;
#X connect 18 3 10 0;
#X connect 18 3 11 0;
#X connect 18 3 12 0;
#X restore 433 275 pd switch;
#X obj 28 16 inlet;
#X obj 240 23 inlet;
#X obj 431 30 inlet;
#X obj 431 364 outlet;
#X obj 52 88 tgl 15 0 empty empty empty 20 8 0 8 -262144 -1 -1 1 1
;
#X obj 55 111 metro 0;
#N canvas 0 22 450 300 expr 0;
#X obj 310 132 /;
#X obj 308 194 *;
#X obj 331 164 int;
#X obj 273 94 inlet;
#X obj 351 99 inlet;
#X obj 313 263 outlet;
#X connect 0 0 2 0;
#X connect 1 0 5 0;
#X connect 2 0 1 0;
#X connect 3 0 0 0;
#X connect 4 0 0 1;
#X connect 4 0 1 1;
#X restore 459 311 pd expr;
#X obj 105 191 random 2000;
#X obj 105 215 - 1000;
#X obj 105 241 / 1000;
#X obj 116 271 *;
#X obj 99 306 t b f;
#X obj 104 371 pow;
#X msg 90 339 2;
#X connect 0 0 18 0;
#X connect 0 0 4 0;
#X connect 1 0 5 0;
#X connect 2 0 13 1;
#X connect 3 0 2 0;
#X connect 4 0 13 1;
#X connect 5 0 4 0;
#X connect 5 1 3 0;
#X connect 5 1 20 1;
#X connect 6 0 24 1;
#X connect 7 0 17 0;
#X connect 13 0 7 0;
#X connect 13 1 20 0;
#X connect 14 0 7 1;
#X connect 15 0 6 0;
#X connect 16 0 1 0;
#X connect 18 0 19 0;
#X connect 19 0 21 0;
#X connect 20 0 7 0;
#X connect 21 0 22 0;
#X connect 22 0 23 0;
#X connect 23 0 24 0;
#X connect 24 0 25 0;
#X connect 25 0 27 0;
#X connect 25 1 26 1;
#X connect 26 0 13 0;
#X connect 27 0 26 0;
#X restore 352 379 pd random_pitch;
#X obj 352 398 sig~;
#X obj 56 350 s gfreq;
#X floatatom 109 205 0 0 0 0 - - -;
#X floatatom 56 255 0 0 0 0 - - -;
#X obj 352 419 throw~ gdur;
#X obj 405 338 / 40;
#X floatatom 401 361 5 0 0 0 - - -;
#X obj 454 358 / 100;
#N canvas 0 22 831 413 exprA 0;
#X floatatom 477 54 5 0 0 0 - - -;
#X floatatom 347 51 5 0 0 0 - - -;
#X obj 644 141 t b f;
#X msg 647 191 1000;
#X obj 647 231 *;
#X obj 645 287 /;
#X floatatom 660 326 5 0 0 0 - - -;
#X obj 591 170 f;
#X obj 592 145 t b;
#X obj 346 8 inlet;
#X obj 475 7 inlet;
#X obj 655 366 outlet;
#X connect 0 0 2 0;
#X connect 0 0 7 1;
#X connect 1 0 5 1;
#X connect 1 0 8 0;
#X connect 2 0 3 0;
#X connect 2 1 4 1;
#X connect 3 0 4 0;
#X connect 4 0 5 0;
#X connect 5 0 6 0;
#X connect 6 0 11 0;
#X connect 7 0 2 0;
#X connect 8 0 7 0;
#X connect 9 0 1 0;
#X connect 10 0 0 0;
#X restore 56 277 pd exprA;
#X obj 56 234 r duration;
#X obj 109 55 r basepitch;
#X obj 405 272 r pitchrand;
#X obj 455 295 r pitchquant;
#X floatatom 56 298 5 0 0 0 - - -;
#X floatatom 109 77 5 0 0 0 - - -;
#X obj 109 94 / 1200;
#X obj 109 159 pow;
#X obj 109 115 t b f;
#X msg 109 136 2;
#X floatatom 455 317 0 0 0 0 - - -;
#X obj 224 55 r physics-reset;
#X msg 298 165 1;
#X obj 109 181 * 1;
#X msg 328 165 100;
#X obj 298 137 sel 0 1;
#X obj 343 54 r xtrmpitch;
#X obj 355 137 tgl 15 0 empty empty empty 17 7 0 10 -262144 -1 -1 0
1;
#X obj 56 316 * 0.5;
#X text 150 77 cents;
#X text 149 160 12th root of 2;
#X text 174 208 frequency multiple;
#X text 83 255 gran dur (ms);
#X text 347 36 Extreme pitch button makes freq swing wider;
#X text 103 317 multiplier for 22050 SR;
#X text 53 371 drives phasor~ in granvoice;
#X text 369 234 NEED TO LOOK AT DIVIDER (40) BELOW;
#X connect 0 0 7 0;
#X connect 1 0 2 0;
#X connect 2 0 6 0;
#X connect 4 0 10 1;
#X connect 5 0 1 0;
#X connect 5 0 10 0;
#X connect 7 0 8 0;
#X connect 8 0 1 1;
#X connect 9 0 1 2;
#X connect 10 0 15 0;
#X connect 11 0 5 0;
#X connect 12 0 16 0;
#X connect 13 0 0 0;
#X connect 14 0 21 0;
#X connect 15 0 29 0;
#X connect 16 0 17 0;
#X connect 17 0 19 0;
#X connect 18 0 24 0;
#X connect 19 0 20 0;
#X connect 19 1 18 1;
#X connect 20 0 18 0;
#X connect 21 0 9 0;
#X connect 22 0 23 0;
#X connect 23 0 24 1;
#X connect 24 0 4 0;
#X connect 25 0 24 1;
#X connect 26 0 23 0;
#X connect 26 1 25 0;
#X connect 27 0 26 0;
#X connect 27 0 28 0;
#X connect 29 0 3 0;
#X restore 6 120 pd gran_pitch;
#X obj 774 -129 hsl 190 15 1 128 0 0 empty empty empty 20 8 0 8 -262144
-1 -1 0 1;
#X text 963 -130 move together;
#N canvas 65 37 1049 561 slider_adjuster 0;
#X obj 88 -53 / 127;
#X obj 88 31 * 1;
#X obj 88 -127 abs;
#X obj 88 -148 -;
#X obj 19 31 * 1;
#X obj 19 -50 / 127;
#X obj 19 -225 inlet;
#X obj 19 55 outlet;
#X obj 88 55 outlet;
#X obj 106 -202 inlet;
#X floatatom 383 1 5 0 0 0 - - -;
#X obj 88 -173 bng 15 250 50 0 empty empty empty 20 8 0 8 -262144 -1
-1;
#X text 142 -47 range 0-1.0;
#X text 429 0 sample length;
#X text 67 -225 top slider (min);
#X text 151 -201 bottom slider (max);
#X obj 687 21 outlet;
#X text 740 23 to bottom slider (max);
#X text 128 -147 slider difference (loop length);
#X obj 437 -62 spigot;
#X obj 455 -111 f;
#X obj 476 -192 r lock;
#X obj 508 -148 sel 1;
#X obj 437 -87 +;
#X obj 476 -170 t f f;
#X obj 437 -39 s lockdmax;
#X text 431 -215 THIS IS THE OLD "PD LOCK";
#X obj 669 -34 hsl 190 15 1 128 0 0 empty empty empty 20 8 0 8 -262144
-1 -1 0 1;
#X obj 669 -51 hsl 190 15 1 128 0 0 empty empty empty 20 8 0 8 -262144
-1 -1 0 1;
#X text 867 -49 min;
#X text 868 -34 max;
#X obj 691 -176 r min;
#X obj 883 -374 r mode;
#X obj 640 -177 r maxi;
#X floatatom 691 -155 5 0 0 0 - - -;
#X floatatom 733 -154 5 0 0 0 - - -;
#X obj 717 -135 latch;
#X obj 710 -91 spigot;
#X obj 666 43 outlet;
#X text 719 45 to TOP slider (min);
#X text 629 -215 loop end point when;
#X text 630 -201 controlled by tilt;
#X text 877 -394 Play/Freeze (0/1);
#X obj 383 -365 r raw_length;
#X obj 883 -329 sel 1;
#X text 881 -297 Going into Freeze;
#X text 688 -401 Sample position in Play;
#X text 881 -285 captures position;
#X text 686 -389 from "PD Granular";
#X text 706 -427 THIS SECTION IS THE OLD "PD MINMAX";
#X obj 750 -369 r trackpoint;
#X obj 750 -307 /;
#X obj 750 -270 * 128;
#X floatatom 768 -327 5 0 0 0 - - -;
#X floatatom 750 -348 5 0 0 0 - - -;
#X floatatom 750 -288 5 0 0 0 - - -;
#X obj 732 -249 f;
#X msg 929 -176 set \$1;
#X obj 834 -104 hsl 190 15 1 128 0 0 empty empty empty 20 8 0 8 -262144
-1 -1 0 1;
#X obj 929 33 outlet;
#X obj 832 -126 s-r mode;
#X obj 832 -143 tgl 15 0 empty empty empty 17 7 0 10 -262144 -1 -1
0 1;
#X connect 0 0 1 0;
#X connect 1 0 8 0;
#X connect 2 0 0 0;
#X connect 2 0 20 1;
#X connect 3 0 2 0;
#X connect 4 0 7 0;
#X connect 5 0 4 0;
#X connect 6 0 5 0;
#X connect 6 0 3 0;
#X connect 6 0 23 0;
#X connect 9 0 3 1;
#X connect 9 0 11 0;
#X connect 10 0 1 1;
#X connect 10 0 4 1;
#X connect 11 0 3 0;
#X connect 19 0 25 0;
#X connect 19 0 27 0;
#X connect 20 0 23 1;
#X connect 21 0 24 0;
#X connect 22 0 20 0;
#X connect 23 0 19 0;
#X connect 24 0 19 1;
#X connect 24 1 22 0;
#X connect 27 0 16 0;
#X connect 28 0 38 0;
#X connect 31 0 34 0;
#X connect 32 0 36 2;
#X connect 32 0 44 0;
#X connect 33 0 37 0;
#X connect 34 0 36 0;
#X connect 35 0 36 1;
#X connect 36 0 28 0;
#X connect 36 1 37 1;
#X connect 37 0 27 0;
#X connect 43 0 10 0;
#X connect 43 0 53 0;
#X connect 44 0 56 0;
#X connect 50 0 54 0;
#X connect 51 0 55 0;
#X connect 52 0 56 1;
#X connect 52 0 57 0;
#X connect 53 0 51 1;
#X connect 54 0 51 0;
#X connect 55 0 52 0;
#X connect 56 0 35 0;
#X connect 57 0 58 0;
#X connect 57 0 59 0;
#X connect 58 0 28 0;
#X connect 58 0 27 0;
#X connect 60 0 61 0;
#X connect 61 0 60 0;
#X restore 601 -152 pd slider_adjuster;
#X obj 18 -209 bng 15 250 50 0 empty empty empty 17 7 0 10 -262144
-1 -1;
#N canvas 122 73 1113 455 GUI 0;
#X obj 708 26 r physics-reset;
#X obj 438 305 send pitchrand;
#X obj 708 214 * 100;
#X obj 708 304 send pitchquant;
#X obj 988 303 send duration;
#X msg 708 92 0;
#X msg 438 93 0;
#X msg 988 93 0.5;
#X obj 285 305 s 4-physics-slider;
#X obj 855 304 s 5-physics-slider;
#X obj 575 304 s 3-physics-slider;
#X obj 284 168 20pxsliderS 4;
#X floatatom 548 171 5 0 0 0 - - -;
#X floatatom 863 171 5 0 0 0 - - -;
#X obj 863 189 / 100;
#X obj 548 190 / 100;
#X obj 230 193 / 100;
#X obj 988 230 * 250;
#X obj 438 225 * 127;
#X obj 610 168 * 2;
#X obj 610 149 20pxsliderS 3;
#X obj 936 156 20pxsliderS 5;
#X obj 230 170 r rpr;
#X obj 548 149 r qpr;
#X obj 863 150 r dpr;
#X obj 285 220 * 240;
#X obj 285 253 + 80;
#X msg 508 93 80;
#X obj 575 247 * 240;
#X obj 575 269 + 80;
#X obj 575 226 / 2;
#X obj 863 254 * 240;
#X obj 863 276 + 80;
#X msg 801 91 200;
#N canvas 92 22 1024 720 buttons 0;
#X obj 448 112 r 8-physics-slider;
#X obj 494 134 r 9-physics-slider;
#X obj 490 211 i;
#X obj 191 240 loadbang;
#X obj 265 540 rj_image p-64.png;
#X obj 363 431 * 288;
#X msg 321 479 move \$2 \$1;
#X obj 326 458 pack 0 32;
#X obj 407 426 * 288;
#X msg 407 481 move \$2 \$1;
#X obj 407 454 pack 0 96;
#X obj 491 183 / 64;
#X obj 175 394 t b b;
#X msg 485 285 1;
#X msg 528 285 1;
#X msg 577 285 1;
#X obj 490 238 select 0 1 2 3 4 5;
#X obj 1323 578 + 1;
#X msg 1323 662 move \$2 \$1;
#X obj 1321 547 == 0;
#X obj 1282 695 rj_image r-64.png;
#X obj 1168 484 tgl 15 0 empty empty empty 17 7 0 10 -262144 -1 -1
0 1;
#X msg 1234 644 visible \$1;
#X obj 1076 546 + 1;
#X msg 1076 630 move \$2 \$1;
#X obj 1074 515 == 0;
#X obj 989 484 tgl 15 0 empty empty empty 17 7 0 10 -262144 -1 -1 0
1;
#X msg 987 612 visible \$1;
#X obj 1035 663 rj_image s-64.png;
#X obj 857 564 + 1;
#X msg 857 648 move \$2 \$1;
#X obj 855 533 == 0;
#X obj 857 475 tgl 15 0 empty empty empty 17 7 0 10 -262144 -1 -1 0
1;
#X msg 768 630 visible \$1;
#X obj 816 681 rj_image q-64.png;
#X obj 1191 645 s fx;
#X obj 1004 575 s pitchz;
#X obj 1026 407 loadbang;
#X msg 1027 433 0;
#X obj 532 432 * 288;
#X msg 490 480 move \$2 \$1;
#X obj 576 427 * 288;
#X msg 576 482 move \$2 \$1;
#X obj 495 459 pack 0 160;
#X obj 576 455 pack 0 224;
#X obj 672 424 * 288;
#X msg 672 479 move \$2 \$1;
#X obj 672 452 pack 0 288;
#X msg 622 286 1;
#X msg 671 287 1;
#X obj 844 218 i;
#X obj 845 190 / 64;
#X obj 844 245 select 0 1 2 3 4 5;
#X obj 802 119 r 7-physics-slider;
#X obj 848 141 r 6-physics-slider;
#X obj 1076 575 * 224;
#X obj 1323 607 * 224;
#X obj 857 621 pack 0 32;
#X obj 1076 603 pack 0 96;
#X obj 1323 635 pack 0 160;
#X obj 770 305 loadbang;
#X msg 765 376 visible 0;
#X obj 1102 89 + 1;
#X msg 1102 173 move \$2 \$1;
#X obj 1100 58 == 0;
#X msg 1003 167 visible \$1;
#X obj 1102 118 * 224;
#X obj 1061 206 rj_image p-64.png;
#X obj 1020 276 tgl 15 0 empty empty empty 17 7 0 10 -262144 -1 -1
0 1;
#X msg 172 450 visible 0;
#X msg 258 385 visible 1;
#X obj 285 448 print;
#X floatatom 418 140 5 0 0 0 - - -;
#X obj 857 593 * 224;
#X obj 78 184 i;
#X obj 79 156 / 64;
#X obj 92 117 r 5-physics-slider;
#N canvas 0 22 1179 720 presetselecs 0;
#X msg 301 954 move \$2 \$1;
#X obj 232 1002 rj_image q-64.png;
#X obj 310 774 counter 2;
#X obj 306 800 sel 0 1 2;
#X msg 303 859 1;
#X obj 402 998 rj_image s-64.png;
#X msg 220 931 visible 1;
#X msg 138 932 visible 0;
#X obj 147 1151 rj_image PRESETS.png;
#X msg 251 1112 visible 1;
#X msg 169 1113 visible 0;
#X obj 138 854 s presetmode;
#X msg 547 1105 visible 1;
#X msg 465 1106 visible 0;
#X obj 448 1150 rj_image LNK.png;
#X msg 394 951 move \$2 \$1;
#X msg 396 856 1;
#X msg 572 944 visible 1;
#X msg 490 945 visible 0;
#X obj 298 707 inlet;
#X msg 58 1110 move 160 288;
#X msg 205 772 visible 1;
#X msg 116 770 visible 0;
#X msg 12 770 move 160 288;
#X obj 101 811 rj_image SAMPLES.png;
#X obj 301 899 * 224;
#X obj 394 896 * 224;
#X msg 354 1103 move 160 288;
#X obj 394 924 pack 0 224;
#X obj 301 927 pack 0 224;
#X connect 0 0 1 0;
#X connect 2 0 3 0;
#X connect 2 0 11 0;
#X connect 3 0 10 0;
#X connect 3 0 7 0;
#X connect 3 0 13 0;
#X connect 3 0 18 0;
#X connect 3 0 21 0;
#X connect 3 0 23 0;
#X connect 3 1 4 0;
#X connect 3 1 6 0;
#X connect 3 1 9 0;
#X connect 3 1 20 0;
#X connect 3 1 18 0;
#X connect 3 1 22 0;
#X connect 3 2 16 0;
#X connect 3 2 7 0;
#X connect 3 2 10 0;
#X connect 3 2 12 0;
#X connect 3 2 17 0;
#X connect 3 2 27 0;
#X connect 3 2 22 0;
#X connect 4 0 25 0;
#X connect 6 0 1 0;
#X connect 7 0 1 0;
#X connect 9 0 8 0;
#X connect 10 0 8 0;
#X connect 12 0 14 0;
#X connect 13 0 14 0;
#X connect 15 0 5 0;
#X connect 16 0 26 0;
#X connect 17 0 5 0;
#X connect 18 0 5 0;
#X connect 19 0 2 0;
#X connect 20 0 8 0;
#X connect 21 0 24 0;
#X connect 22 0 24 0;
#X connect 23 0 24 0;
#X connect 25 0 29 0;
#X connect 26 0 28 0;
#X connect 27 0 14 0;
#X connect 28 0 15 0;
#X connect 29 0 0 0;
#X restore 1059 344 pd presetselecs;
#X obj 1102 146 pack 0 288;
#X obj 65 96 r 4-physics-slider;
#X obj 78 211 select 0;
#X obj 136 340 s mode;
#X obj 82 325 + 1;
#X msg 82 409 move \$2 \$1;
#X obj 80 294 == 0;
#X obj 82 236 tgl 15 0 empty empty empty 17 7 0 10 -262144 -1 -1 0
1;
#X msg -7 391 visible \$1;
#X obj 82 382 pack 0 32;
#X obj 911 579 s xtrmpitch;
#X obj 1060 310 s physics-reset;
#X obj 1243 178 metro 50;
#X obj 1243 245 sel 5;
#X obj 1242 275 t b b;
#X msg 1351 199 stop;
#X msg 1231 312 0;
#X obj 340 237 s chooser;
#X floatatom 418 275 5 0 0 0 - - -;
#X obj 7 155 loadbang;
#X msg 20 194 0;
#X obj 1243 212 counter 5;
#X obj 731 151 loadbang;
#X obj 749 191 delay 200;
#X msg 777 246 3;
#X obj 90 603 i;
#X obj 91 575 / 64;
#X obj 90 630 select 0;
#X obj 94 744 + 1;
#X msg 94 828 move \$2 \$1;
#X obj 92 713 == 0;
#X obj 94 655 tgl 15 0 empty empty empty 17 7 0 10 -262144 -1 -1 0
1;
#X msg 5 810 visible \$1;
#X obj 94 801 pack 0 32;
#X obj 19 574 loadbang;
#X msg 32 613 0;
#X obj 148 759 s distoonoff;
#X obj 104 536 r 3-physics-slider;
#X obj 82 354 * 160;
#X obj 94 773 * 112;
#X obj 41 442 rj_image frz.png;
#X obj 53 861 rj_image dst.png;
#X connect 0 0 11 0;
#X connect 1 0 11 0;
#X connect 2 0 16 0;
#X connect 2 0 95 0;
#X connect 2 0 96 0;
#X connect 3 0 12 0;
#X connect 5 0 7 0;
#X connect 6 0 4 0;
#X connect 7 0 6 0;
#X connect 8 0 10 0;
#X connect 9 0 4 0;
#X connect 10 0 9 0;
#X connect 11 0 2 0;
#X connect 12 0 69 0;
#X connect 13 0 5 0;
#X connect 13 0 70 0;
#X connect 14 0 8 0;
#X connect 14 0 70 0;
#X connect 15 0 39 0;
#X connect 15 0 70 0;
#X connect 16 0 13 0;
#X connect 16 1 14 0;
#X connect 16 2 15 0;
#X connect 16 3 48 0;
#X connect 16 4 49 0;
#X connect 17 0 56 0;
#X connect 18 0 20 0;
#X connect 19 0 17 0;
#X connect 21 0 19 0;
#X connect 21 0 22 0;
#X connect 21 0 35 0;
#X connect 22 0 20 0;
#X connect 23 0 55 0;
#X connect 24 0 28 0;
#X connect 25 0 23 0;
#X connect 26 0 25 0;
#X connect 26 0 27 0;
#X connect 26 0 36 0;
#X connect 27 0 28 0;
#X connect 29 0 73 0;
#X connect 30 0 34 0;
#X connect 31 0 29 0;
#X connect 32 0 31 0;
#X connect 32 0 33 0;
#X connect 32 0 88 0;
#X connect 33 0 34 0;
#X connect 37 0 38 0;
#X connect 38 0 26 0;
#X connect 38 0 32 0;
#X connect 38 0 21 0;
#X connect 39 0 43 0;
#X connect 40 0 4 0;
#X connect 41 0 44 0;
#X connect 42 0 4 0;
#X connect 43 0 40 0;
#X connect 44 0 42 0;
#X connect 45 0 47 0;
#X connect 46 0 4 0;
#X connect 47 0 46 0;
#X connect 48 0 41 0;
#X connect 48 0 70 0;
#X connect 49 0 45 0;
#X connect 49 0 70 0;
#X connect 50 0 52 0;
#X connect 51 0 50 0;
#X connect 52 0 32 0;
#X connect 52 1 26 0;
#X connect 52 2 21 0;
#X connect 52 3 77 0;
#X connect 52 4 68 0;
#X connect 53 0 51 0;
#X connect 54 0 51 0;
#X connect 55 0 58 0;
#X connect 56 0 59 0;
#X connect 57 0 30 0;
#X connect 58 0 24 0;
#X connect 59 0 18 0;
#X connect 60 0 61 0;
#X connect 61 0 67 0;
#X connect 62 0 66 0;
#X connect 63 0 67 0;
#X connect 64 0 62 0;
#X connect 65 0 67 0;
#X connect 66 0 78 0;
#X connect 68 0 65 0;
#X connect 68 0 64 0;
#X connect 68 0 89 0;
#X connect 68 0 90 0;
#X connect 69 0 4 0;
#X connect 70 0 4 0;
#X connect 70 0 71 0;
#X connect 72 0 2 0;
#X connect 73 0 57 0;
#X connect 74 0 80 0;
#X connect 75 0 74 0;
#X connect 76 0 75 0;
#X connect 78 0 63 0;
#X connect 79 0 75 0;
#X connect 80 0 85 0;
#X connect 82 0 116 0;
#X connect 83 0 118 0;
#X connect 84 0 82 0;
#X connect 85 0 84 0;
#X connect 85 0 86 0;
#X connect 85 0 81 0;
#X connect 86 0 118 0;
#X connect 87 0 83 0;
#X connect 90 0 99 0;
#X connect 91 0 92 0;
#X connect 92 0 94 0;
#X connect 92 1 93 0;
#X connect 93 0 90 0;
#X connect 94 0 68 0;
#X connect 97 0 98 0;
#X connect 98 0 85 0;
#X connect 99 0 91 0;
#X connect 100 0 101 0;
#X connect 101 0 102 0;
#X connect 102 0 52 0;
#X connect 103 0 105 0;
#X connect 104 0 103 0;
#X connect 105 0 109 0;
#X connect 106 0 117 0;
#X connect 107 0 119 0;
#X connect 108 0 106 0;
#X connect 109 0 108 0;
#X connect 109 0 110 0;
#X connect 109 0 114 0;
#X connect 110 0 119 0;
#X connect 111 0 107 0;
#X connect 112 0 113 0;
#X connect 113 0 109 0;
#X connect 115 0 104 0;
#X connect 116 0 87 0;
#X connect 117 0 111 0;
#X restore 225 70 pd buttons;
#X obj 54 40 r #touch;
#N canvas 45 22 1200 720 fingerforcefields 0;
#X obj 668 281 loadbang;
#X msg 438 451 move \$1 \$2;
#X obj 294 229 t b a;
#X obj 145 155 route 1 2;
#X obj 235 152 route 1 2;
#X obj 293 291 t b;
#X obj 354 104 route 1 2;
#X msg 397 287 1;
#X msg 617 409 visible \$1;
#X msg 304 318 0;
#X msg 603 297 0;
#X obj 442 247 unpack 0 0;
#X obj 429 352 spigot;
#X obj 357 328 loadbang;
#X msg 349 352 1;
#X obj 593 185 t b f;
#X obj 593 234 -;
#X msg 590 210 1;
#X obj 442 303 v finger1-x;
#X obj 502 276 v finger1-y;
#X obj 313 499 s finger1-on;
#X obj 587 145 r finger1-sticky;
#X obj 147 78 inlet;
#X obj 667 66 loadbang;
#X obj 775 161 s finger1-sticky;
#X msg 694 112 1;
#X floatatom 60 507 5 0 0 0 - - -;
#X obj 79 579 pack 1 2;
#X obj 115 538 t b i;
#X floatatom 96 493 5 0 0 0 - - -;
#X obj 147 107 route up down xy tap;
#X obj 509 135 unpack 1 2;
#X floatatom 515 191 5 0 0 0 - - -;
#X obj 84 370 unpack;
#X obj 118 662 spigot;
#X obj 116 424 t f b;
#X obj 173 426 t b;
#X msg 143 464 1;
#X msg 183 462 0;
#X obj 136 716 unpack;
#X obj 126 834 s x_cont;
#X obj 197 812 s y_cont;
#X obj 195 787 avgr;
#X obj 114 799 avgr;
#X obj 632 474 rj_image ball10.png;
#X obj 116 395 moses 64;
#X obj 182 761 / 64;
#X obj 825 349 i;
#X obj 752 252 route up down xy;
#X obj 762 294 unpack 0 0 0;
#X obj 807 406 s;
#X obj 848 375 makefilename %d-physics-slider;
#X floatatom 756 340 5 0 0 0 - - -;
#X obj 852 322 / 32;
#X obj 737 204 r #touch;
#X obj 478 503 loadbang;
#X obj 56 851 s fxon;
#X floatatom 277 783 5 0 0 0 - - -;
#X msg 475 553 move 284 12;
#X obj 38 757 moses 270;
#X obj 37 792 / 20;
#X obj 24 252 loadbang;
#X obj 18 412 pack;
#X obj 17 321 t b b;
#X msg 39 378 60;
#X msg 6 377 310;
#X obj 54 619 / 64;
#X obj 8 483 - 80;
#X obj 128 765 / 320;
#X obj 0 623 / 320;
#X connect 0 0 10 0;
#X connect 1 0 44 0;
#X connect 2 0 7 0;
#X connect 2 1 11 0;
#X connect 3 0 5 0;
#X connect 4 0 2 0;
#X connect 5 0 9 0;
#X connect 6 0 11 0;
#X connect 6 0 31 0;
#X connect 6 0 33 0;
#X connect 7 0 12 0;
#X connect 8 0 44 0;
#X connect 9 0 12 0;
#X connect 10 0 8 0;
#X connect 11 0 18 0;
#X connect 11 1 19 0;
#X connect 12 0 8 0;
#X connect 12 0 20 0;
#X connect 13 0 14 0;
#X connect 14 0 12 1;
#X connect 15 0 17 0;
#X connect 15 1 16 1;
#X connect 16 0 12 1;
#X connect 17 0 16 0;
#X connect 21 0 15 0;
#X connect 21 0 8 0;
#X connect 21 0 20 0;
#X connect 22 0 30 0;
#X connect 23 0 25 0;
#X connect 25 0 24 0;
#X connect 26 0 27 0;
#X connect 27 0 34 0;
#X connect 28 0 27 0;
#X connect 28 1 27 1;
#X connect 29 0 28 0;
#X connect 30 0 3 0;
#X connect 30 1 4 0;
#X connect 30 2 6 0;
#X connect 31 0 32 0;
#X connect 33 0 26 0;
#X connect 33 1 45 0;
#X connect 34 0 1 0;
#X connect 34 0 39 0;
#X connect 35 0 29 0;
#X connect 35 1 37 0;
#X connect 36 0 38 0;
#X connect 37 0 34 1;
#X connect 38 0 34 1;
#X connect 39 0 59 0;
#X connect 39 0 68 0;
#X connect 39 1 46 0;
#X connect 39 1 57 0;
#X connect 42 0 41 0;
#X connect 43 0 40 0;
#X connect 45 0 35 0;
#X connect 45 1 36 0;
#X connect 46 0 42 0;
#X connect 47 0 51 0;
#X connect 48 1 49 0;
#X connect 48 2 49 0;
#X connect 49 1 50 0;
#X connect 49 2 53 0;
#X connect 51 0 50 1;
#X connect 52 0 50 0;
#X connect 53 0 47 0;
#X connect 54 0 48 0;
#X connect 55 0 58 0;
#X connect 58 0 44 0;
#X connect 59 0 60 0;
#X connect 60 0 56 0;
#X connect 61 0 63 0;
#X connect 62 0 1 0;
#X connect 63 0 65 0;
#X connect 63 1 64 0;
#X connect 64 0 62 1;
#X connect 64 0 66 0;
#X connect 65 0 62 0;
#X connect 65 0 67 0;
#X connect 66 0 41 0;
#X connect 67 0 69 0;
#X connect 68 0 43 0;
#X connect 69 0 40 0;
#X restore 54 68 pd fingerforcefields;
#X connect 0 0 6 0;
#X connect 0 0 27 0;
#X connect 0 0 5 0;
#X connect 0 0 33 0;
#X connect 0 0 7 0;
#X connect 2 0 3 0;
#X connect 2 0 20 1;
#X connect 5 0 2 0;
#X connect 6 0 18 0;
#X connect 7 0 17 0;
#X connect 11 0 18 0;
#X connect 12 0 15 0;
#X connect 13 0 14 0;
#X connect 14 0 17 0;
#X connect 14 0 31 0;
#X connect 15 0 2 0;
#X connect 15 0 30 0;
#X connect 16 0 18 0;
#X connect 16 0 25 0;
#X connect 17 0 4 0;
#X connect 17 0 21 1;
#X connect 18 0 1 0;
#X connect 18 0 11 1;
#X connect 19 0 2 0;
#X connect 20 0 19 0;
#X connect 21 0 17 0;
#X connect 22 0 16 0;
#X connect 23 0 12 0;
#X connect 24 0 13 0;
#X connect 25 0 26 0;
#X connect 26 0 8 0;
#X connect 27 0 8 0;
#X connect 27 0 10 0;
#X connect 28 0 29 0;
#X connect 29 0 10 0;
#X connect 30 0 28 0;
#X connect 31 0 32 0;
#X connect 32 0 9 0;
#X connect 33 0 9 0;
#X connect 35 0 36 0;
#X restore 374 -172 pd GUI;
#N canvas 51 22 861 570 TILT 0;
#X obj 297 394 send basepitch;
#X obj 41 399 send min;
#X obj -72 -51 r accelerate;
#X obj -34 4 route roll pitch magnitude x y z;
#X floatatom 68 26 5 0 0 0 - - -;
#X floatatom 112 26 5 0 0 0 - - -;
#X obj 41 295 spigot;
#X obj -164 241 r mode;
#X obj -74 294 spigot;
#X obj 108 378 + 0.01;
#X obj 150 182 u_follower;
#X obj 297 285 spigot;
#X obj 352 249 r pitchz;
#X obj -34 -16 spigot;
#X obj 21 -51 r fx;
#X obj 68 182 u_follower;
#X floatatom 150 27 5 0 0 0 - - -;
#X obj 108 400 send maxi;
#X obj -233 -4 delay 300;
#X floatatom 165 320 5 0 0 0 - - -;
#X obj 147 278 spigot;
#X obj 147 300 + 1;
#X obj 167 113 -;
#X obj 158 67 t b f;
#X floatatom 167 133 5 0 0 0 - - -;
#X msg 158 86 0;
#X obj 147 339 * 5;
#X floatatom 27 26 5 0 0 0 - - -;
#X obj 352 283 sel 1;
#X obj 297 312 * 240;
#X obj 297 365 * 10;
#X msg 259 365 0;
#X obj 297 334 latch;
#X obj 79 106 s bangz;
#X obj 41 317 + 1;
#X obj 41 336 * 64;
#X obj 357 366 r ppr;
#X obj 339 334 f;
#X obj -74 400 send stretch;
#X obj 122 66 > 2;
#X obj 79 66 > 1.8;
#X obj 79 87 tgl 15 0 empty empty empty 17 7 0 10 -262144 -1 -1 0 1
;
#X floatatom -74 384 5 0 0 0 - - -;
#X obj -74 317 * 2;
#X obj -74 340 + 1;
#X obj -246 -55 inlet;
#X obj -246 61 s physics-reset;
#X obj -246 39 bng 15 250 50 0 empty empty empty 17 7 0 10 -262144
-1 -1;
#X obj 122 87 tgl 15 0 empty empty empty 17 7 0 10 -262144 -1 -1 0
1;
#X text 273 552 comment;
#X obj -35 257 == 0;
#X obj 80 257 tgl 15 0 empty empty empty 17 7 0 10 -262144 -1 -1 0
1;
#X obj -35 276 tgl 15 0 empty empty empty 17 7 0 10 -262144 -1 -1 1
1;
#X text -40 169 X smoothed;
#X text -73 421 Play mode;
#X text 48 434 Freeze mode;
#X text -41 184 -1 to 1;
#X text -41 201 bar extremes;
#X text 49 419 0-127;
#X text 45 448 Position + loop end in Slider_Adjuster;
#X text 157 165 Z smoothed;
#X text -180 225 Play/Freeze;
#X obj 186 257 tgl 15 0 empty empty empty 17 7 0 10 -262144 -1 -1 0
1;
#X text 192 87 Y for Pitch control;
#X obj -233 -26 r loadbang;
#X text 58 -41 Tilt on/off;
#X obj 21 -31 tgl 15 0 empty empty empty 17 7 0 10 -262144 -1 -1 0
1;
#X text 415 249 Pitch on/off button;
#X obj -214 349 r physics-reset;
#X msg -214 368 1;
#X text -130 56 2 receives here;
#X text -129 68 also in "PD GUI";
#X obj 292 215 r z-simul;
#X obj 285 174 s dst;
#X connect 2 0 13 0;
#X connect 3 2 27 0;
#X connect 3 3 4 0;
#X connect 3 4 5 0;
#X connect 3 5 16 0;
#X connect 4 0 15 0;
#X connect 5 0 23 0;
#X connect 5 0 40 0;
#X connect 6 0 34 0;
#X connect 7 0 50 0;
#X connect 7 0 51 0;
#X connect 7 0 62 0;
#X connect 8 0 43 0;
#X connect 9 0 17 0;
#X connect 10 0 20 0;
#X connect 11 0 29 0;
#X connect 12 0 11 1;
#X connect 12 0 28 0;
#X connect 12 0 32 2;
#X connect 13 0 3 0;
#X connect 14 0 66 0;
#X connect 15 0 8 0;
#X connect 15 0 6 0;
#X connect 16 0 39 0;
#X connect 16 0 10 0;
#X connect 18 0 47 0;
#X connect 19 0 26 1;
#X connect 20 0 21 0;
#X connect 21 0 26 0;
#X connect 22 0 24 0;
#X connect 23 0 25 0;
#X connect 23 1 22 1;
#X connect 24 0 11 0;
#X connect 24 0 73 0;
#X connect 25 0 22 0;
#X connect 26 0 9 1;
#X connect 28 0 37 0;
#X connect 29 0 32 0;
#X connect 30 0 0 0;
#X connect 31 0 0 0;
#X connect 32 0 30 0;
#X connect 32 0 37 1;
#X connect 34 0 35 0;
#X connect 35 0 1 0;
#X connect 35 0 9 0;
#X connect 36 0 0 0;
#X connect 37 0 32 1;
#X connect 39 0 48 0;
#X connect 40 0 41 0;
#X connect 41 0 33 0;
#X connect 42 0 38 0;
#X connect 43 0 44 0;
#X connect 44 0 42 0;
#X connect 45 0 47 0;
#X connect 47 0 46 0;
#X connect 48 0 33 0;
#X connect 50 0 52 0;
#X connect 51 0 6 1;
#X connect 52 0 8 1;
#X connect 62 0 20 1;
#X connect 64 0 18 0;
#X connect 66 0 13 1;
#X connect 68 0 69 0;
#X connect 68 0 31 0;
#X connect 69 0 42 0;
#X connect 72 0 20 0;
#X restore 374 -192 pd TILT;
#X obj 764 -153 r freezepos;
#X obj 165 361 s-r mode;
#X obj 165 343 tgl 15 0 empty empty empty 17 7 0 10 -262144 -1 -1 0
1;
#X floatatom 521 341 0 0 0 0 - - -;
#X floatatom 388 341 0 0 0 0 - - -;
#X floatatom 276 344 5 0 0 0 - - -;
#X floatatom 632 341 0 0 0 0 - - -;
#X obj 752 342 tgl 15 0 empty empty empty 17 7 0 10 -262144 -1 -1 0
1;
#X text 317 344 cents;
#X text 415 341 gran dur (ms);
#X obj 276 360 s-r basepitch;
#X obj 388 360 s-r duration;
#X obj 521 360 s-r pitchrand;
#X obj 632 360 s-r pitchquant;
#X obj 751 360 s-r xtrmpitch;
#X obj 795 224 r x_cont;
#X obj 933 225 r y_cont;
#X obj 795 246 s filtercutoff;
#X obj 933 246 s filterres;
#X floatatom 795 177 8 0 0 0 - filterfreq -;
#X floatatom 934 199 5 0 0 0 - filterq -;
#X obj 798 142 hsl 128 15 0 1 0 1 filtercutoff empty filtercutoff 4
8 0 10 -262144 -1 -1 12700 1;
#X floatatom 795 160 5 0 0 0 - - -;
#X obj 937 142 hsl 128 15 1 0 0 1 filterres empty filterres 4 8 0 10
-262144 -1 -1 0 1;
#X obj 934 161 flip 1;
#X floatatom 934 182 5 0 0 0 - - -;
#X text 862 177 Hz;
#X floatatom 870 339 5 0 0 0 - - -;
#X obj 870 359 s-r stretch;
#X obj 920 340 hsl 128 15 -2 4 0 0 empty empty empty -2 -8 0 10 -262144
-1 -1 6350 1;
#X text 978 356 |;
#X msg 440 239 input 0 127 \, 0;
#X floatatom 394 283 5 0 0 0 - - gain;
#X obj 394 107 vsl 15 128 0 127 0 0 empty empty empty 0 -9 0 10 -262144
-1 -1 6400 1;
#X floatatom 394 242 5 0 0 0 - - -;
#X obj 394 261 m_autoscale 0 2;
#X msg 216 257 \; gain 0;
#X msg 275 257 \; gain 1;
#N canvas 29 119 879 524 disto 0;
#X msg 308 151 drive \$1;
#X obj 169 104 hsl 128 15 0 1 0 0 empty empty wet____________dry 5
6 1 10 -262144 -1 -1 12700 1;
#X msg 164 151 dry \$1;
#X floatatom 308 127 5 0 0 0 - - -;
#X obj 18 96 inlet~;
#X obj 75 95 inlet~;
#X obj 48 238 u_stereo e_softclip disto;
#X obj 36 381 outlet~;
#X obj 106 379 outlet~;
#X floatatom 164 127 5 0 0 0 - - -;
#X obj 166 52 tgl 15 0 empty empty empty 17 7 0 10 -262144 -1 -1 0
1;
#X obj 166 78 flip 1;
#X obj 165 23 r distoonoff;
#X obj 303 25 r distodrive;
#X obj 309 87 spigot;
#X connect 0 0 6 2;
#X connect 1 0 9 0;
#X connect 2 0 6 2;
#X connect 3 0 0 0;
#X connect 4 0 6 0;
#X connect 5 0 6 1;
#X connect 6 0 7 0;
#X connect 6 1 8 0;
#X connect 9 0 2 0;
#X connect 10 0 11 0;
#X connect 10 0 14 1;
#X connect 11 0 1 0;
#X connect 12 0 10 0;
#X connect 13 0 14 0;
#X connect 14 0 3 0;
#X restore 6 195 pd disto;
#X obj 622 195 tgl 15 0 distoonoff empty disto_on/off 17 7 0 12 -262144
-1 -1 0 1;
#X obj 440 66 r loadbang;
#X msg 394 84 64;
#X text 182 341 Play/Freeze;
#X text 442 284 GAIN;
#X obj 572 104 vsl 15 128 -1 1 0 0 empty dst empty 0 -9 0 10 -262144
-1 -1 0 1;
#X msg 622 236 input -1 1 \, 0;
#X obj 572 259 m_autoscale 0 100 dB;
#X floatatom 572 282 5 0 0 0 - - distodrive;
#X obj 622 213 r loadbang;
#X floatatom 572 239 5 0 0 0 - - -;
#X text 620 283 DISTORTION;
#X floatatom 199 -17 5 0 0 0 - - -;
#X obj 6 223 soundoutput;
#X connect 7 0 8 0;
#X connect 8 0 6 0;
#X connect 13 0 27 0;
#X connect 14 0 32 1;
#X connect 15 0 32 0;
#X connect 21 0 74 0;
#X connect 21 1 74 1;
#X connect 22 0 21 0;
#X connect 22 1 21 1;
#X connect 24 0 35 0;
#X connect 26 2 18 0;
#X connect 26 3 19 0;
#X connect 30 0 15 0;
#X connect 30 0 14 0;
#X connect 32 0 13 0;
#X connect 32 1 7 0;
#X connect 32 2 15 0;
#X connect 32 3 14 0;
#X connect 32 4 30 0;
#X connect 33 0 23 0;
#X connect 36 0 30 0;
#X connect 37 0 38 0;
#X connect 38 0 37 0;
#X connect 39 0 48 0;
#X connect 40 0 47 0;
#X connect 41 0 46 0;
#X connect 42 0 49 0;
#X connect 43 0 50 0;
#X connect 46 0 41 0;
#X connect 47 0 40 0;
#X connect 48 0 39 0;
#X connect 49 0 42 0;
#X connect 50 0 43 0;
#X connect 51 0 53 0;
#X connect 52 0 54 0;
#X connect 57 0 58 0;
#X connect 59 0 60 0;
#X connect 60 0 61 0;
#X connect 63 0 64 0;
#X connect 64 0 65 0;
#X connect 65 0 63 0;
#X connect 67 0 71 1;
#X connect 69 0 70 0;
#X connect 70 0 71 0;
#X connect 71 0 68 0;
#X connect 74 0 88 0;
#X connect 74 1 88 1;
#X connect 76 0 67 0;
#X connect 76 0 77 0;
#X connect 77 0 69 0;
#X connect 80 0 85 0;
#X connect 81 0 82 1;
#X connect 82 0 83 0;
#X connect 84 0 81 0;
#X connect 85 0 82 0;
#X connect 87 0 18 0;
