#N canvas 220 98 1920 1274 12;
#X obj 544 248 tgl 23 0 empty empty empty 17 7 0 10 #c4c4fc #000000 #000000 0 1;
#X obj 545 286 s GATE_OUT @owl Push;
#X obj 395 439 s metrobang;
#X obj 163 496 timer;
#X obj 163 466 bng 15 250 50 0 empty empty empty 17 7 0 10 #fcfcfc #000000 #000000;
#X obj 195 466 bng 15 250 50 0 empty empty empty 17 7 0 10 #fcfcfc #000000 #000000;
#X obj 163 433 sel 0 1;
#X obj 163 344 f;
#X obj 160 303 bng 23 250 50 0 empty empty empty 17 7 0 10 #e0c4fc #000000 #000000;
#X obj 163 372 + 1;
#X obj 163 400 mod 2;
#X text 204 307 taptempo;
#X msg 221 360 0;
#X obj 395 164 bng 23 250 50 0 empty empty empty 17 7 0 10 #c4c4fc #000000 #000000;
#X obj 308 110 r Button_1 @owl B1;
#X obj 262 579 nbx 5 14 -1e+37 1e+37 0 0 empty empty empty 0 -8 0 10 #fcfcfc #000000 #000000 0 256;
#X obj 163 524 min 3333;
#X obj 395 357 bng 15 250 50 0 empty empty empty 17 7 0 10 #fcfcfc #000000 #000000;
#X text 410 380 to use this button as the main clock of your algorythm you can use this bang as the main metronome [in this case metro bang];
#X text 480 110 incoming from Left button and GATE1 (CV Input 1) are doing the same \, therefore to avoid clock conflicts is much more efficient to use this button as the main clock of your algorythm;
#X text 262 532 this piece of code calculates the taptempo in your patch from the incoming CV from GATE1 (CV input 1);
#X text 596 238 This toggle activates the led in the GATE.OUT portso you can visualize the clock in it.;
#X obj 262 601 s time;
#X text 552 317 GATE OUT LED Rate;
#X text 266 700 Knob A;
#X obj 212 757 hsl 128 15 0 1 0 0 empty empty empty -2 -8 0 10 #c4c4fc #000000 #000000 0 1;
#X obj 209 724 r Pot_A @owl A;
#X obj 209 873 s valueknobA;
#X obj 401 693 hsl 128 15 0 1 0 0 empty empty empty -2 -8 0 10 #c4c4fc #000000 #000000 0 1;
#X obj 400 657 r Pot_B @owl B;
#X obj 398 809 s valueknobB;
#X obj 591 671 hsl 128 15 0 1 0 0 empty empty empty -2 -8 0 10 #c4c4fc #000000 #000000 0 1;
#X obj 780 607 hsl 128 15 0 1 0 0 empty empty empty -2 -8 0 10 #c4c4fc #000000 #000000 0 1;
#X obj 777 637 * 1;
#X obj 780 679 hsl 128 15 0 1 0 0 empty empty empty -2 -8 0 10 #c4c4fc #000000 #000000 0 1;
#X obj 588 638 r Pot_C @owl C;
#X obj 588 787 s valueknobC;
#X obj 777 723 s valueknobD;
#X obj 777 574 r Pot_D @owl D;
#X obj 217 1017 adc~ 1;
#X obj 384 1015 adc~ 2;
#X text 195 991 IN_L LICH PORT;
#X text 358 989 IN_R LICH PORT;
#X obj 220 1103 dac~ 1;
#X obj 383 1095 dac~ 2;
#X text 189 1132 out_L LICH PORT;
#X text 360 1131 out_R LICH PORT;
#X obj 592 999 hsl 128 15 0 1 0 0 empty empty empty -2 -8 0 10 #c4c4fc #000000 #000000 0 1;
#X obj 798 1022 s CV_OUT_2 @owl G;
#X obj 801 998 hsl 128 15 0 1 0 0 empty empty empty -2 -8 0 10 #c4c4fc #000000 #000000 0 1;
#X obj 590 1023 s CV_OUT_1 @owl F;
#X text 834 550 Knob D;
#X text 645 614 Knob C;
#X text 455 636 Knob B;
#X text 830 628 from 0 to 1;
#X text 632 973 from 0 to 1;
#X text 855 971 from 0 to 1;
#X obj 1062 376 bng 42 250 50 0 empty empty empty 17 7 0 10 #c4c4fc #000000 #000000;
#X obj 1062 203 bng 23 250 50 0 empty empty empty 17 7 0 10 #c4c4fc #000000 #000000;
#X obj 1051 171 r Button_2 @owl B2;
#X obj 1062 240 f;
#X obj 1062 268 + 1;
#X obj 1062 296 mod 2;
#X obj 1062 323 sel 0;
#X text 1129 261 corrector;
#X text 1119 378 any time you click on LICHs right button it will trig this bang;
#X obj 1222 923 +~;
#X obj 1295 865 osc~;
#X obj 1295 906 *~;
#X obj 1295 825 *~;
#X obj 1375 872 *~;
#X obj 1222 949 osc~;
#X obj 1222 1221 dac~ 1 2;
#X obj 1559 548 send~ amplitude;
#X obj 1270 949 receive~ amplitude;
#X obj 1222 1006 *~;
#X obj 1559 517 lop~ 10;
#X obj 1101 1017 line~;
#X obj 1222 1166 *~;
#X msg 1101 982 \$1 200;
#X obj 1158 582 send~ frequency;
#X obj 1222 700 receive~ frequency;
#X obj 1454 516 *~ 100;
#X obj 1295 582 send~ harmonicity;
#X obj 1306 744 receive~ harmonicity;
#X obj 1454 580 send~ ratio;
#X obj 1375 818 receive~ ratio;
#X obj 1295 518 *~ 10;
#X obj 1295 549 +~ 0.1;
#X obj 1158 518 *~ 200;
#X obj 1158 549 +~ 20;
#X obj 1828 516 lop~ 10;
#X obj 1692 547 send~ rate;
#X obj 1803 547 send~ depth;
#X obj 1692 516 *~ 100;
#X obj 1158 487 r valueknobA;
#X obj 1295 487 r valueknobB;
#X obj 1454 486 r valueknobC;
#X obj 1559 486 r valueknobD;
#X obj 1101 949 r Button_1 @owl B1;
#X obj 1529 835 osc~;
#X obj 1555 746 receive~ rate, f 14;
#X obj 1529 873 *~;
#X obj 1596 796 receive~ depth;
#X obj 1529 917 *~ 0.5;
#X obj 1529 950 +~ 0.5;
#X obj 1604 950 lop~ 10;
#X text 1581 916 make it unipolar;
#X obj 867 798 r Channel-E;
#X obj 977 797 r Channel-Push;
#X connect 0 0 1 0;
#X connect 3 0 16 0;
#X connect 4 0 3 0;
#X connect 5 0 3 1;
#X connect 6 0 4 0;
#X connect 6 1 5 0;
#X connect 7 0 9 0;
#X connect 8 0 7 0;
#X connect 9 0 10 0;
#X connect 9 0 7 1;
#X connect 10 0 6 0;
#X connect 12 0 7 1;
#X connect 13 0 0 0;
#X connect 13 0 17 0;
#X connect 13 0 8 0;
#X connect 14 0 13 0;
#X connect 15 0 22 0;
#X connect 16 0 15 0;
#X connect 17 0 2 0;
#X connect 25 0 27 0;
#X connect 26 0 25 0;
#X connect 28 0 30 0;
#X connect 29 0 28 0;
#X connect 31 0 36 0;
#X connect 32 0 33 0;
#X connect 33 0 34 0;
#X connect 34 0 37 0;
#X connect 35 0 31 0;
#X connect 38 0 32 0;
#X connect 47 0 50 0;
#X connect 49 0 48 0;
#X connect 58 0 60 0;
#X connect 59 0 58 0;
#X connect 60 0 61 0;
#X connect 61 0 60 1;
#X connect 61 0 62 0;
#X connect 62 0 63 0;
#X connect 63 0 57 0;
#X connect 66 0 71 0;
#X connect 67 0 68 0;
#X connect 68 0 66 1;
#X connect 69 0 67 0;
#X connect 69 0 70 0;
#X connect 70 0 68 1;
#X connect 71 0 75 0;
#X connect 74 0 75 1;
#X connect 75 0 78 0;
#X connect 76 0 73 0;
#X connect 77 0 78 1;
#X connect 78 0 72 1;
#X connect 78 0 72 0;
#X connect 79 0 77 0;
#X connect 81 0 66 0;
#X connect 81 0 69 0;
#X connect 82 0 85 0;
#X connect 84 0 69 1;
#X connect 86 0 70 1;
#X connect 87 0 88 0;
#X connect 88 0 83 0;
#X connect 89 0 90 0;
#X connect 90 0 80 0;
#X connect 94 0 92 0;
#X connect 95 0 89 0;
#X connect 96 0 87 0;
#X connect 97 0 82 0;
#X connect 98 0 76 0;
#X connect 99 0 79 0;
#X connect 100 0 102 0;
#X connect 101 0 100 0;
#X connect 102 0 104 0;
#X connect 103 0 102 1;
#X connect 104 0 105 0;
