#N canvas 5898 994 949 766 12;
#X obj 46 410 r PadA1_press @hv_param;
#X obj 46 495 s led_Key_A1 @hv_param;
#X obj 226 496 s led_Key_A2 @hv_param;
#X obj 47 530 r PadA3_press @hv_param;
#X obj 47 615 s led_Key_A3 @hv_param;
#X obj 227 531 r PadA4_press @hv_param;
#X obj 227 616 s led_Key_A4 @hv_param;
#X obj 47 648 r PadA5_press @hv_param;
#X obj 47 733 s led_Key_A5 @hv_param;
#X obj 227 649 r PadA6_press @hv_param;
#X obj 227 734 s led_Key_A6 @hv_param;
#X obj 48 768 r PadA7_press @hv_param;
#X obj 48 853 s led_Key_A7 @hv_param;
#X obj 228 769 r PadA8_press @hv_param;
#X obj 228 854 s led_Key_A8 @hv_param;
#X obj 403 412 r PadB1_press @hv_param;
#X obj 583 413 r PadB2_press @hv_param;
#X obj 403 497 s led_Key_B1 @hv_param;
#X obj 583 498 s led_Key_B2 @hv_param;
#X obj 584 533 r PadB4_press @hv_param;
#X obj 404 532 r PadB3_press @hv_param;
#X obj 404 617 s led_Key_B3 @hv_param;
#X obj 584 617 s led_Key_B4 @hv_param;
#X obj 404 650 r PadB5_press @hv_param;
#X obj 584 651 r PadB6_press @hv_param;
#X obj 404 735 s led_Key_B5 @hv_param;
#X obj 584 736 s led_Key_B6 @hv_param;
#X obj 405 770 r PadB7_press @hv_param;
#X obj 585 771 r PadB8_press @hv_param;
#X obj 405 855 s led_Key_B7 @hv_param;
#X obj 585 856 s led_Key_B8 @hv_param;
#X obj 844 339 s gateout @hv_param;
#X obj 578 297 r gatein @hv_param;
#X obj 226 411 r PadA2_press @hv_param;
#X text 46 52 —————————————————————————————, f 53;
#X text 46 42 Daisy Field – Template;
#X obj 46 141 s CV1;
#X obj 308 143 s CV2;
#X obj 46 97 r knob1 @hv_param;
#X obj 308 98 r knob2 @hv_param;
#X obj 844 500 dac~ 1 2;
#X obj 844 413 adc~ 1 2;
#X text 911 412 Audio Inputs;
#X text 910 499 Audio Inputs;
#X obj 108 141 s led_knob_1 @hv_param;
#X obj 374 143 s led_knob_2 @hv_param;
#X obj 576 98 r knob3 @hv_param;
#X obj 576 143 s CV3;
#X obj 643 143 s led_knob_3 @hv_param;
#X obj 845 143 s CV4;
#X obj 912 143 s led_knob_4 @hv_param;
#X obj 845 98 r knob4 @hv_param;
#X obj 46 174 r knob5 @hv_param;
#X obj 312 176 r knob6 @hv_param;
#X obj 578 176 r knob7 @hv_param;
#X obj 844 176 r knob8 @hv_param;
#X obj 46 218 s CV5;
#X obj 110 218 s led_knob_5 @hv_param;
#X obj 312 220 s CV6;
#X obj 377 220 s led_knob_6 @hv_param;
#X obj 578 220 s CV7;
#X obj 642 220 s led_knob_7 @hv_param;
#X obj 844 220 s CV8;
#X obj 909 220 s led_knob_8 @hv_param;
#X obj 46 297 r sw1 @hv_param;
#X obj 46 339 s SW1;
#X obj 312 339 s SW2, f 7;
#X obj 312 297 r sw2 @hv_param, f 16;
#X text 162 296 Switches;
#X obj 578 339 s GATE_IN1;
#X obj 844 298 r GATE_OUT1;
#X obj 150 465 s BUT1;
#X obj 331 465 s BUT2;
#X obj 151 583 s BUT3;
#X obj 333 583 s BUT4;
#X obj 151 698 s BUT5;
#X obj 332 698 s BUT6;
#X obj 152 816 s BUT7;
#X obj 333 816 s BUT8;
#X obj 505 465 s BUT9;
#X obj 682 465 s BUT10;
#X obj 507 583 s BUT11;
#X obj 686 583 s BUT12;
#X obj 503 698 s BUT13;
#X obj 683 698 s BUT14;
#X obj 505 816 s BUT15;
#X obj 684 816 s BUT16;
#X connect 0 0 1 0 32.................g.........PH.........HD....;
#X connect 0 0 71 0 32.................L....fF....C....nA...PB....;
#X connect 3 0 4 0 32.................g.........PH.........HD....;
#X connect 3 0 73 0 32.................Q....fF...PD....nA...HB....;
#X connect 5 0 6 0 32.................g.........PH.........HD....;
#X connect 5 0 74 0 32.................Q....nF...PD....pA...DB....;
#X connect 7 0 8 0 32.................g.........PH.........HD....;
#X connect 7 0 75 0 32.................P....fF....D....nA...7A....;
#X connect 9 0 10 0 32.................g.........PH.........HD....;
#X connect 9 0 76 0 32.................J....jF...fB....oA...3A....;
#X connect 11 0 12 0 32.................g.........PH.........HD....;
#X connect 11 0 77 0 32.................J....fF...fB....nA...zA....;
#X connect 13 0 14 0 32.................g.........PH.........HD....;
#X connect 13 0 78 0 32.................N....jF...fC....oA...vA....;
#X connect 15 0 17 0 32.................g.........PH.........HD....;
#X connect 15 0 79 0 32.................Q....XF...PD....lA...HB....;
#X connect 16 0 18 0 32.................g.........PH.........HD....;
#X connect 16 0 80 0 32.................K....LF...vB....iA...DB....;
#X connect 19 0 22 0 32.................g.........PH.........DD....;
#X connect 19 0 82 0 32.................P....XF....D....lA...7A....;
#X connect 20 0 21 0 32.................g.........PH.........HD....;
#X connect 20 0 81 0 32.................P....bF....D....mA....B....;
#X connect 23 0 25 0 32.................g.........PH.........HD....;
#X connect 23 0 83 0 32.................J....LF...fB....iA...zA....;
#X connect 24 0 26 0 32.................g.........PH.........HD....;
#X connect 24 0 84 0 32.................N....LF...fC....iA...vA....;
#X connect 27 0 29 0 32.................g.........PH.........HD....;
#X connect 27 0 85 0 32.................N....PF...fC....jA...rA....;
#X connect 28 0 30 0 32.................g.........PH.........HD....;
#X connect 28 0 86 0 32.................I....LF...PB....iA...nA....;
#X connect 32 0 69 0 32.................L..........C.........bA....;
#X connect 33 0 2 0 32.................g.........PH.........HD....;
#X connect 33 0 72 0 32.................L....jF....C....oA...LB....;
#X connect 38 0 36 0 32.................M.........PC.........jA....;
#X connect 38 0 44 0 32.................M....3C...PC....9....jA....;
#X connect 39 0 37 0 32.................M.........PC.........nA....;
#X connect 39 0 45 0 32.................M....HD...PC....BA...nA....;
#X connect 46 0 47 0 32.................M.........PC.........nA....;
#X connect 46 0 48 0 32.................M....LD...PC....CA...nA....;
#X connect 51 0 49 0 32.................M.........PC.........nA....;
#X connect 51 0 50 0 32.................M....LD...PC....CA...nA....;
#X connect 52 0 56 0 32.................M.........PC.........jA....;
#X connect 52 0 57 0 32.................M.....D...PC.....A...jA....;
#X connect 53 0 58 0 32.................M.........PC.........jA....;
#X connect 53 0 59 0 32.................M....DD...PC....AA...jA....;
#X connect 54 0 60 0 32.................M.........PC.........jA....;
#X connect 54 0 61 0 32.................M.....D...PC.....A...jA....;
#X connect 55 0 62 0 32.................M.........PC.........jA....;
#X connect 55 0 63 0 32.................M....DD...PC....AA...jA....;
#X connect 64 0 65 0 32.................L..........C.........bA....;
#X connect 67 0 66 0 32.................L..........C.........bA....;
#X connect 70 0 31 0 32.................K.........vB.........XA....;
