#N canvas 675 60 572 757 12;
#X obj 24 728 outlet~;
#X obj 25 354 +~, f 6;
#X obj 26 426 tabread~ playobject;
#X obj 26 387 *~ 44.1;
#X obj 64 316 *~ 50, f 8;
#X obj 26 608 *~;
#X obj 45 564 tabread~ wndw;
#X obj 44 520 *~ 1;
#X obj 70 482 r trisize;
#X text 150 564 gain multiplided by tri window;
#X obj 47 263 oneshot~ 20;
#X obj 28 101 unpack 0 0 0;
#X floatatom 197 158 5 0 0 0 - - - 0;
#X floatatom 27 156 5 0 0 0 - - - 0;
#X floatatom 117 156 5 0 0 0 - - - 0;
#X text 121 178 gdur;
#X text 31 178 position;
#X text 31 16 Trigger gain with message: position (ms) \, grandur \, transposition (cts), f 71;
#X obj 132 291 tgl 19 0 empty empty empty 0 -10 0 12 #fcfcfc #000000 #000000 0 1;
#X obj 401 80 spigot;
#X obj 398 663 outlet;
#X text 449 662 overflow;
#X obj 28 43 inlet;
#X obj 25 688 *~ 0.5;
#X text 137 690 set gain for each grain here;
#N canvas 561 132 909 523 ramp-calc 0;
#X floatatom 95 236 0 0 0 0 - - - 0;
#N canvas 790 313 680 446 random_pitch 0;
#X obj 47 58 loadbang;
#X floatatom 431 165 0 0 0 0 - - - 0;
#X msg 500 244 2;
#X msg 500 223 bang;
#X msg 431 239 1;
#X obj 431 201 sel 0;
#X floatatom 240 77 0 0 0 0 - - - 0;
#X obj 431 340 * 1;
#X text 78 19 duration;
#X text 257 58 random width;
#X text 240 104 0 ~ 3;
#X text 470 167 0 ~1.0;
#X text 326 182 pitch quantize;
#N canvas 192 270 548 310 switch 0;
#X obj 41 187 spigot;
#X obj 132 188 spigot;
#X obj 240 187 spigot;
#X obj 361 187 spigot;
#X obj 44 19 inlet;
#X obj 78 106 i 1;
#X obj 400 105 i 1;
#X obj 278 106 i 1;
#X obj 169 105 i 1;
#X obj 247 6 inlet;
#X obj 89 136 i 0;
#X obj 180 135 i 0;
#X obj 289 136 i 0;
#X obj 411 135 i 0;
#X obj 45 236 outlet;
#X obj 133 232 outlet;
#X obj 240 233 outlet;
#X obj 361 236 outlet;
#X obj 247 56 select 1 2 3 4;
#X connect 0 0 14 0;
#X connect 1 0 15 0;
#X connect 2 0 16 0;
#X connect 3 0 17 0;
#X connect 4 0 0 0;
#X connect 4 0 1 0;
#X connect 4 0 2 0;
#X connect 4 0 3 0;
#X connect 5 0 0 1;
#X connect 6 0 3 1;
#X connect 7 0 2 1;
#X connect 8 0 1 1;
#X connect 9 0 18 0;
#X connect 10 0 0 1;
#X connect 11 0 1 1;
#X connect 12 0 2 1;
#X connect 13 0 3 1;
#X connect 18 0 5 0;
#X connect 18 0 11 0;
#X connect 18 0 12 0;
#X connect 18 0 13 0;
#X connect 18 1 8 0;
#X connect 18 1 10 0;
#X connect 18 1 12 0;
#X connect 18 1 13 0;
#X connect 18 2 7 0;
#X connect 18 2 10 0;
#X connect 18 2 11 0;
#X connect 18 2 13 0;
#X connect 18 3 6 0;
#X connect 18 3 10 0;
#X connect 18 3 11 0;
#X connect 18 3 12 0;
#X restore 433 275 pd switch;
#X obj 28 16 inlet;
#X obj 240 23 inlet;
#X obj 431 30 inlet;
#X obj 431 364 outlet;
#X obj 52 88 tgl 15 0 empty empty empty 20 8 0 8 #fcfcfc #000000 #000000 0 1;
#X obj 55 111 metro 0;
#N canvas 92 129 450 300 expr 0;
#X obj 310 132 /;
#X obj 308 194 *;
#X obj 331 164 int;
#X obj 273 94 inlet;
#X obj 351 99 inlet;
#X obj 313 263 outlet;
#X connect 0 0 2 0;
#X connect 1 0 5 0;
#X connect 2 0 1 0;
#X connect 3 0 0 0;
#X connect 4 0 0 1;
#X connect 4 0 1 1;
#X restore 459 311 pd expr;
#X obj 105 191 random 2000;
#X obj 105 215 - 1000;
#X obj 105 241 / 1000;
#X obj 116 271 *;
#X obj 99 306 t b f;
#X obj 104 371 pow;
#X msg 90 339 2;
#X connect 0 0 18 0;
#X connect 0 0 4 0;
#X connect 1 0 5 0;
#X connect 2 0 13 1;
#X connect 3 0 2 0;
#X connect 4 0 13 1;
#X connect 5 0 4 0;
#X connect 5 1 3 0;
#X connect 5 1 20 1;
#X connect 6 0 24 1;
#X connect 7 0 17 0;
#X connect 13 0 7 0;
#X connect 13 1 20 0;
#X connect 14 0 7 1;
#X connect 15 0 6 0;
#X connect 16 0 1 0;
#X connect 18 0 19 0;
#X connect 19 0 21 0;
#X connect 20 0 7 0;
#X connect 21 0 22 0;
#X connect 22 0 23 0;
#X connect 23 0 24 0;
#X connect 24 0 25 0;
#X connect 25 0 27 0;
#X connect 25 1 26 1;
#X connect 26 0 13 0;
#X connect 27 0 26 0;
#X restore 40 313 pd random_pitch;
#X floatatom 322 211 0 0 0 0 - - - 0;
#X floatatom 269 213 0 0 0 0 - - - 0;
#X floatatom 91 284 5 0 0 0 - - - 0;
#X floatatom 269 323 5 0 0 0 - - - 0;
#X floatatom 322 83 5 0 0 0 - - - 0;
#X obj 322 100 / 1200;
#X obj 322 165 pow;
#X obj 322 121 t b f;
#X msg 322 142 2;
#X floatatom 143 251 0 0 0 0 - - - 0;
#X msg 504 169 1;
#X obj 322 187 * 1;
#X msg 534 169 100;
#X obj 504 141 sel 0 1;
#X obj 561 141 tgl 15 0 empty empty empty 17 7 0 10 #fcfcfc #000000 #000000 0 1;
#X text 363 83 cents;
#X text 362 166 12th root of 2;
#X text 352 211 frequency multiple;
#X text 221 38 gran dur (ms);
#X text 612 114 Extreme pitch button makes freq swing wider;
#X text 587 184 NEED TO LOOK AT DIVIDER (40) BELOW;
#X text 499 35 from INIT;
#X obj 95 261 * 3;
#X obj 499 59 r \$1-physics-reset;
#X obj 504 113 r \$1-xtrmpitch;
#X obj 95 195 r \$1-pitchrand;
#X obj 143 229 r \$1-pitchquant;
#X obj 269 356 outlet;
#X obj 40 337 outlet;
#X text 325 38 basepitch;
#X obj 322 61 inlet;
#X obj 266 59 inlet;
#X obj 322 234 t b f;
#X obj 269 292 /;
#X text 266 378 pitch adjusted ramp time;
#X connect 0 0 24 0;
#X connect 1 0 30 0;
#X connect 2 0 34 0;
#X connect 3 0 1 0;
#X connect 3 0 35 0;
#X connect 4 0 1 1;
#X connect 5 0 29 0;
#X connect 6 0 7 0;
#X connect 7 0 9 0;
#X connect 8 0 13 0;
#X connect 9 0 10 0;
#X connect 9 1 8 1;
#X connect 10 0 8 0;
#X connect 11 0 1 2;
#X connect 12 0 13 1;
#X connect 13 0 2 0;
#X connect 14 0 13 1;
#X connect 15 0 12 0;
#X connect 15 1 14 0;
#X connect 24 0 4 0;
#X connect 25 0 12 0;
#X connect 26 0 15 0;
#X connect 26 0 16 0;
#X connect 27 0 0 0;
#X connect 28 0 11 0;
#X connect 32 0 6 0;
#X connect 33 0 3 0;
#X connect 34 0 35 0;
#X connect 34 1 35 1;
#X connect 35 0 5 0;
#X restore 117 130 pd ramp-calc;
#X text 192 180 linetime;
#X obj 260 321 samplerate~;
#X obj 260 345 / 1000;
#X floatatom 260 369 5 0 0 0 - - - 0;
#X obj 260 296 loadbang;
#X obj 198 514 print triangle;
#X obj 28 74 spigot;
#X obj 132 315 flip 1;
#X obj 132 339 tgl 19 0 empty empty empty 0 -10 0 12 #fcfcfc #000000 #000000 0 1;
#X obj 419 199 float \$1;
#X obj 419 170 bng 19 250 50 0 empty empty empty 17 7 0 10 #dfdfdf #000000 #000000;
#X floatatom 419 228 5 0 0 0 - - - 0;
#X text 445 170 instance number;
#X obj 419 141 loadbang;
#X connect 1 0 3 0;
#X connect 2 0 5 0;
#X connect 3 0 2 0;
#X connect 4 0 1 1;
#X connect 5 0 23 0;
#X connect 6 0 5 1;
#X connect 7 0 6 0;
#X connect 8 0 7 1;
#X connect 8 0 31 0;
#X connect 10 0 7 0;
#X connect 10 0 4 0;
#X connect 10 1 18 0;
#X connect 11 0 13 0;
#X connect 11 1 25 0;
#X connect 11 2 25 1;
#X connect 12 0 10 0;
#X connect 13 0 1 0;
#X connect 14 0 4 1;
#X connect 18 0 19 1;
#X connect 18 0 33 0;
#X connect 19 0 20 0;
#X connect 22 0 19 0;
#X connect 22 0 32 0;
#X connect 23 0 0 0;
#X connect 25 0 14 0;
#X connect 25 1 12 0;
#X connect 27 0 28 0;
#X connect 28 0 29 0;
#X connect 29 0 3 1;
#X connect 30 0 27 0;
#X connect 32 0 11 0;
#X connect 33 0 34 0;
#X connect 34 0 32 1;
#X connect 35 0 37 0;
#X connect 36 0 35 0;
#X connect 39 0 36 0;
