#N canvas 4 700 1834 636 12;
#X text 151 204 "set" message permits you to switch between arrays;
#X text 224 356 creation argument initializes array name;
#X msg 93 279 0 44100;
#X msg 87 254 44100;
#X text 104 229 "bang" or 0 plays whole sample;
#X text 134 253 play starting at 44100th sample;
#X text 151 277 play starting at beginning for 44100 samples;
#X msg 98 304 44100 1000;
#X text 176 303 play from 44100 through 45099 (1000 samples);
#X msg 105 329 stop;
#X text 141 330 stop playing (outputs zeros when stopped);
#X obj 190 401 bng 23 250 50 0 empty empty empty 17 7 0 10 #dfdfdf #000000 #000000;
#X msg 66 204 set sample;
#X obj 66 401 output~;
#X obj 80 230 bng 17 250 50 0 empty empty empty 17 7 0 10 #dfdfdf #000000 #000000;
#X obj 66 356 tabplay~ playobject;
#X obj 269 123 unpack;
#X obj 309 158 *;
#X obj 360 60 samplerate~;
#X floatatom 360 84 9 0 0 0 - - - 0;
#X obj 361 30 loadbang;
#X obj 268 183 pack;
#N canvas 0 22 450 300 (subpatch) 0;
#X array doublebuf 220500 float 0;
#X coords 0 1 220499 -1 200 140 1 0 0;
#X restore 955 384 graph;
#X text 962 328 220500 samples = 5 sec @ 44.1Khz;
#X text 961 347 Each half = 2.5 sec;
#X obj 626 25 tgl 19 0 empty empty empty 0 -10 0 12 #fcfcfc #000000 #000000 0 1;
#X floatatom 692 23 10 0 0 0 - - - 0;
#X obj 360 107 / 1000;
#X msg 269 96 0 5000;
#X obj 631 377 tabwrite~ doublebuf;
#X obj 1456 418 bng 23 250 50 0 empty empty empty 17 7 0 10 #dfdfdf #000000 #000000;
#X obj 1562 428 output~;
#X obj 1126 65 bng 19 250 50 0 empty empty empty 0 -10 0 12 #fcfcfc #000000 #000000;
#X obj 1129 13 tgl 19 0 empty empty empty 0 -10 0 12 #fcfcfc #000000 #000000 0 1;
#X obj 626 54 metro 2500;
#X obj 775 378 tabwrite~ doublebuf;
#X obj 262 32 tgl 19 0 empty empty empty 0 -10 0 12 #fcfcfc #000000 #000000 0 1;
#X obj 259 59 metro 5000;
#X msg 385 540 2500;
#X obj 405 567 *;
#X obj 423 466 samplerate~;
#X floatatom 423 490 9 0 0 0 - - - 0;
#X obj 424 436 loadbang;
#X obj 423 513 / 1000;
#X floatatom 405 591 7 0 0 0 - - - 0;
#X msg 405 614 start \$1;
#X text 953 537 buffer contains two copies of 2500ms, f 24;
#X obj 626 78 tgl 19 0 empty empty empty 0 -10 0 12 #fcfcfc #000000 #000000 0 1;
#X obj 626 102 select 0 1;
#X obj 626 126 bng 19 250 50 0 empty empty empty 0 -10 0 12 #fcfcfc #000000 #000000;
#X obj 659 126 bng 19 250 50 0 empty empty empty 0 -10 0 12 #fcfcfc #000000 #000000;
#X obj 1126 40 metro 2000;
#X floatatom 1185 10 5 0 0 0 - - - 0;
#X obj 683 177 timer;
#X floatatom 683 201 5 0 0 0 - - - 0;
#X obj 715 127 tgl 19 0 empty empty empty 0 -10 0 12 #fcfcfc #000000 #000000 0 1;
#X obj 715 151 metro 1;
#X obj 683 224 *;
#X floatatom 1588 97 5 0 0 0 - - - 0;
#X obj 1588 120 *;
#X text 1584 70 play length;
#X obj 1532 167 i;
#X text 782 335 start second recording half buffer later from beginning, f 23;
#X text 638 335 start first recording, f 17;
#X msg 776 436 44100 44100;
#X obj 1533 191 + 100;
#X floatatom 1566 168 5 0 0 0 - - - 0;
#X text 1609 169 delay in samples;
#X text 1609 189 to be > block size;
#X obj 1560 328 line~;
#X obj 1544 251 +;
#X obj 1533 215 t f f;
#X obj 1544 275 pack;
#X obj 1561 358 tabread4~ doublebuf;
#X floatatom 1662 295 5 0 0 0 - - - 0;
#X text 723 188 record head position (ms), f 17;
#X floatatom 1325 138 5 0 0 0 - - - 0;
#X obj 1277 156 *;
#X text 1321 111 play length;
#X obj 1269 208 i;
#X obj 1270 232 + 100;
#X floatatom 1303 209 5 0 0 0 - - - 0;
#X text 1346 210 delay in samples;
#X text 1346 230 to be > block size;
#X obj 1311 280 pack;
#X obj 1650 393 tabread~ doublebuf;
#X obj 1335 391 tabplay~ doublebuf;
#X floatatom 1277 180 5 0 0 0 - - - 0;
#X obj 1340 457 output~;
#X obj 1273 46 + 100;
#X floatatom 1315 13 5 0 0 0 - - - 0;
#X connect 2 0 15 0;
#X connect 3 0 15 0;
#X connect 7 0 15 0;
#X connect 9 0 15 0;
#X connect 12 0 15 0;
#X connect 14 0 15 0;
#X connect 15 0 13 0;
#X connect 15 0 29 0;
#X connect 15 0 35 0;
#X connect 15 1 11 0;
#X connect 16 0 21 0;
#X connect 16 1 17 0;
#X connect 17 0 21 1;
#X connect 18 0 19 0;
#X connect 19 0 27 0;
#X connect 20 0 18 0;
#X connect 21 0 15 0;
#X connect 25 0 34 0;
#X connect 26 0 34 1;
#X connect 27 0 17 1;
#X connect 27 0 57 1;
#X connect 27 0 59 1;
#X connect 27 0 77 1;
#X connect 28 0 16 0;
#X connect 32 0 61 0;
#X connect 32 0 79 0;
#X connect 33 0 51 0;
#X connect 34 0 47 0;
#X connect 36 0 37 0;
#X connect 37 0 28 0;
#X connect 38 0 39 0;
#X connect 39 0 44 0;
#X connect 40 0 41 0;
#X connect 41 0 43 0;
#X connect 42 0 40 0;
#X connect 43 0 39 1;
#X connect 44 0 45 0;
#X connect 47 0 48 0;
#X connect 48 0 49 0;
#X connect 48 1 50 0;
#X connect 49 0 29 0;
#X connect 49 0 53 0;
#X connect 50 0 53 0;
#X connect 50 0 35 0;
#X connect 51 0 32 0;
#X connect 52 0 51 1;
#X connect 52 0 89 0;
#X connect 53 0 54 0;
#X connect 54 0 57 0;
#X connect 55 0 56 0;
#X connect 56 0 53 1;
#X connect 57 0 61 1;
#X connect 57 0 79 1;
#X connect 58 0 59 0;
#X connect 58 0 72 1;
#X connect 59 0 70 1;
#X connect 61 0 65 0;
#X connect 65 0 71 0;
#X connect 66 0 65 1;
#X connect 69 0 73 0;
#X connect 70 0 72 0;
#X connect 71 0 70 0;
#X connect 71 1 69 0;
#X connect 72 0 69 0;
#X connect 73 0 31 0;
#X connect 74 0 73 1;
#X connect 76 0 77 0;
#X connect 77 0 87 0;
#X connect 79 0 80 0;
#X connect 80 0 84 0;
#X connect 81 0 80 1;
#X connect 84 0 86 0;
#X connect 86 0 88 0;
#X connect 86 1 30 0;
#X connect 87 0 84 1;
#X connect 89 0 58 0;
#X connect 89 0 76 0;
#X connect 90 0 89 1;
