#N canvas 532 390 461 570 12;
#X obj 154 37 loadbang;
#X obj 154 61 bng 19 250 50 0 empty empty empty 0 -10 0 12 #fcfcfc #000000 #000000;
#X obj 291 149 * 0.5;
#X msg 290 120 1000;
#X floatatom 290 200 10 0 0 0 - - - 0;
#X obj 290 176 expr 1/$f1;
#X obj 239 54 inlet;
#X text 237 30 Density;
#X floatatom 239 78 5 0 0 0 - - - 0;
#X obj 242 243 *;
#X floatatom 242 295 10 0 0 0 - - - 0;
#X obj 242 271 expr 1 - $f1;
#X obj 90 249 random 1000;
#X obj 86 161 tgl 19 0 empty empty empty 0 -10 0 12 #fcfcfc #000000 #000000 0 1;
#X obj 85 186 metro 1;
#X obj 186 368 select 1;
#X obj 186 443 bng 19 250 50 0 empty empty empty 0 -10 0 12 #fcfcfc #000000 #000000;
#X obj 90 273 / 1000;
#X floatatom 61 328 5 0 0 0 - - - 0;
#X obj 186 344 >;
#X obj 186 467 outlet;
#X obj 186 421 spigot;
#X obj 225 393 > 0;
#X connect 0 0 1 0;
#X connect 1 0 3 0;
#X connect 1 0 13 0;
#X connect 2 0 5 0;
#X connect 3 0 2 0;
#X connect 4 0 9 1;
#X connect 5 0 4 0;
#X connect 6 0 8 0;
#X connect 8 0 9 0;
#X connect 8 0 22 0;
#X connect 9 0 11 0;
#X connect 10 0 19 1;
#X connect 11 0 10 0;
#X connect 12 0 17 0;
#X connect 13 0 14 0;
#X connect 14 0 12 0;
#X connect 15 0 21 0;
#X connect 16 0 20 0;
#X connect 17 0 18 0;
#X connect 17 0 19 0;
#X connect 19 0 15 0;
#X connect 21 0 16 0;
#X connect 22 0 21 1;
