#N canvas 316 580 896 193 10;
#X obj 44 377 outlet;
#X text 966 226 Read buttons with debounce;
#X obj 348 377 outlet;
#X obj 44 342 change;
#X obj 348 342 change;
#X obj 45 36 r Button_1 @owl B1;
#X obj 337 36 r Button_2 @owl B2;
#X obj 887 265 delay 3;
#X obj 858 363 change;
#X obj 858 314 i;
#X obj 859 192 r testBut1;
#X obj 604 668 change;
#X obj 654 586 bng 42 250 50 0 empty empty empty 17 7 0 10 #c4c4fc #000000 #000000;
#X obj 604 394 bng 23 250 50 0 empty empty empty 17 7 0 10 #c4c4fc #000000 #000000;
#X obj 604 431 f;
#X obj 604 459 + 1;
#X obj 604 487 mod 2;
#X obj 654 533 sel 0;
#X text 671 451 corrector;
#X text 711 587 any time you click on LICHs right button it will trig this bang;
#X obj 733 537 tgl 25 0 empty empty empty 17 7 0 10 #e4e4e4 #4d4d4d #373737 0 1;
#X obj 593 362 r testBut2;
#X connect 3 0 0 0;
#X connect 4 0 2 0;
#X connect 5 0 3 0;
#X connect 6 0 4 0;
#X connect 7 0 9 0;
#X connect 9 0 8 0;
#X connect 10 0 7 0;
#X connect 10 0 9 1;
#X connect 13 0 14 0;
#X connect 14 0 15 0;
#X connect 15 0 14 1;
#X connect 15 0 16 0;
#X connect 16 0 17 0;
#X connect 16 0 20 0;
#X connect 16 0 11 0;
#X connect 17 0 12 0;
#X connect 21 0 13 0;
