#N canvas 72 418 823 385 12;
#X obj 401 150 r CV0;
#X obj 422 12 r button1;
#N canvas 3 520 450 396 led3 0;
#X floatatom 43 85 5 0 0 0 - - - 0;
#X obj 43 134 i;
#X floatatom 43 213 5 0 0 0 - - - 0;
#X obj 43 108 - 0.5;
#X obj 43 187 + 1;
#X msg 44 276 1;
#X obj 44 300 tgl 19 0 empty empty empty 0 -10 0 12 #fcfcfc #000000 #000000 0 1;
#X msg 76 276 0;
#X obj 44 251 sel 1;
#X msg 109 275 1;
#X obj 109 299 tgl 19 0 empty empty empty 0 -10 0 12 #fcfcfc #000000 #000000 0 1;
#X msg 141 275 0;
#X msg 175 274 1;
#X obj 175 298 tgl 19 0 empty empty empty 0 -10 0 12 #fcfcfc #000000 #000000 0 1;
#X msg 207 274 0;
#X obj 109 250 sel 2;
#X obj 175 249 sel 3;
#X obj 43 31 inlet;
#X obj 44 329 outlet;
#X obj 109 329 outlet;
#X obj 175 329 outlet;
#X obj 43 61 map 1 3;
#X obj 43 160 change;
#X connect 0 0 3 0;
#X connect 1 0 22 0;
#X connect 2 0 8 0;
#X connect 2 0 15 0;
#X connect 2 0 16 0;
#X connect 3 0 1 0;
#X connect 4 0 2 0;
#X connect 5 0 6 0;
#X connect 6 0 18 0;
#X connect 7 0 6 0;
#X connect 8 0 5 0;
#X connect 8 1 7 0;
#X connect 9 0 10 0;
#X connect 10 0 19 0;
#X connect 11 0 10 0;
#X connect 12 0 13 0;
#X connect 13 0 20 0;
#X connect 14 0 13 0;
#X connect 15 0 9 0;
#X connect 15 1 11 0;
#X connect 16 0 12 0;
#X connect 16 1 14 0;
#X connect 17 0 21 0;
#X connect 21 0 0 0;
#X connect 22 0 4 0;
#X restore 510 43 pd led3;
#X obj 422 60 sel 1;
#N canvas 82 285 471 457 led2 0;
#X floatatom 43 85 5 0 0 0 - - - 0;
#X obj 43 134 i;
#X floatatom 43 216 5 0 0 0 - - - 0;
#X obj 43 108 - 0.5;
#X obj 43 190 + 1;
#X msg 50 303 1;
#X obj 66 342 tgl 19 0 empty empty empty 0 -10 0 12 #fcfcfc #000000 #000000 0 1;
#X msg 82 303 0;
#X msg 115 302 1;
#X obj 131 341 tgl 19 0 empty empty empty 0 -10 0 12 #fcfcfc #000000 #000000 0 1;
#X msg 147 302 0;
#X obj 43 31 inlet;
#X obj 66 371 outlet;
#X obj 131 371 outlet;
#X obj 43 61 map 1 3;
#X obj 44 254 sel 1 2 3, f 17;
#X obj 43 163 change;
#X connect 0 0 3 0;
#X connect 1 0 16 0;
#X connect 2 0 15 0;
#X connect 3 0 1 0;
#X connect 4 0 2 0;
#X connect 5 0 6 0;
#X connect 6 0 12 0;
#X connect 7 0 6 0;
#X connect 8 0 9 0;
#X connect 9 0 13 0;
#X connect 10 0 9 0;
#X connect 11 0 14 0;
#X connect 14 0 0 0;
#X connect 15 0 5 0;
#X connect 15 0 10 0;
#X connect 15 1 5 0;
#X connect 15 1 8 0;
#X connect 15 2 8 0;
#X connect 15 2 7 0;
#X connect 16 0 4 0;
#X restore 529 101 pd led2;
#N canvas 3 520 450 396 led3 0;
#X floatatom 43 85 5 0 0 0 - - - 0;
#X obj 43 134 i;
#X floatatom 43 213 5 0 0 0 - - - 0;
#X obj 43 108 - 0.5;
#X obj 43 187 + 1;
#X msg 44 276 1;
#X obj 44 300 tgl 19 0 empty empty empty 0 -10 0 12 #fcfcfc #000000 #000000 0 1;
#X msg 76 276 0;
#X obj 44 251 sel 1;
#X msg 109 275 1;
#X obj 109 299 tgl 19 0 empty empty empty 0 -10 0 12 #fcfcfc #000000 #000000 0 1;
#X msg 141 275 0;
#X msg 175 274 1;
#X obj 175 298 tgl 19 0 empty empty empty 0 -10 0 12 #fcfcfc #000000 #000000 0 1;
#X msg 207 274 0;
#X obj 109 250 sel 2;
#X obj 175 249 sel 3;
#X obj 43 31 inlet;
#X obj 44 329 outlet;
#X obj 109 329 outlet;
#X obj 175 329 outlet;
#X obj 43 61 map 1 3;
#X obj 43 160 change;
#X connect 0 0 3 0;
#X connect 1 0 22 0;
#X connect 2 0 8 0;
#X connect 2 0 15 0;
#X connect 2 0 16 0;
#X connect 3 0 1 0;
#X connect 4 0 2 0;
#X connect 5 0 6 0;
#X connect 6 0 18 0;
#X connect 7 0 6 0;
#X connect 8 0 5 0;
#X connect 8 1 7 0;
#X connect 9 0 10 0;
#X connect 10 0 19 0;
#X connect 11 0 10 0;
#X connect 12 0 13 0;
#X connect 13 0 20 0;
#X connect 14 0 13 0;
#X connect 15 0 9 0;
#X connect 15 1 11 0;
#X connect 16 0 12 0;
#X connect 16 1 14 0;
#X connect 17 0 21 0;
#X connect 21 0 0 0;
#X connect 22 0 4 0;
#X restore 652 27 pd led3;
#X msg 424 94 0;
#X obj 422 36 change;
#N canvas 421 209 746 660 CV-inputs 1;
#X text 57 131 avoid zipper noise;
#X text 15 107 analog input (range 0-1);
#X obj 187 202 s CV0;
#X obj 311 202 s CV1;
#X obj 186 329 s CV2;
#X obj 310 329 s CV3;
#X obj 458 56 inlet;
#X obj 458 91 tgl 19 0 empty empty empty 0 -10 0 12 #fcfcfc #000000 #000000 0 1;
#X obj 458 139 tgl 19 0 empty empty empty 0 -10 0 12 #fcfcfc #000000 #000000 0 1;
#X obj 458 115 flip 1;
#X text 418 27 debug mode on shuts off CV inputs;
#X obj 187 179 spigot 1;
#X obj 311 179 spigot 1;
#X obj 309 304 spigot 1;
#X obj 185 304 spigot 1;
#X obj 569 82 loadbang;
#X msg 569 106 0;
#X text 184 74 LICH KNOBS and CV;
#X obj 187 106 r Pot_A @owl A;
#X obj 311 106 r Pot_B @owl B;
#X obj 185 231 r Pot_C @owl C;
#X obj 309 231 r Pot_D @owl D;
#X connect 6 0 7 0;
#X connect 7 0 9 0;
#X connect 8 0 11 1;
#X connect 8 0 12 1;
#X connect 8 0 13 1;
#X connect 8 0 14 1;
#X connect 9 0 8 0;
#X connect 11 0 2 0;
#X connect 12 0 3 0;
#X connect 13 0 5 0;
#X connect 14 0 4 0;
#X connect 15 0 16 0;
#X connect 16 0 7 0;
#X connect 18 0 11 0;
#X connect 19 0 12 0;
#X connect 20 0 14 0;
#X connect 21 0 13 0;
#X restore 67 219 pd CV-inputs;
#X obj 68 251 buttons, f 14;
#N canvas 411 448 589 172 button-sends 0;
#X obj 49 80 print Button 1:;
#X obj 161 80 print Button 2:;
#X obj 49 50 inlet;
#X obj 161 49 inlet;
#X obj 49 108 s button1;
#X obj 161 108 s button2;
#X connect 2 0 0 0;
#X connect 2 0 4 0;
#X connect 3 0 1 0;
#X connect 3 0 5 0;
#X restore 68 279 pd button-sends;
#X obj 258 200 tgl 19 0 empty empty empty 0 -10 0 12 #fcfcfc #000000 #000000 0 1;
#X text 280 199 DEBUG;
#X text 182 219 click to operate patch manually, f 19;
#X obj 259 60 inlet;
#N canvas 3 520 450 396 led3 0;
#X floatatom 43 85 5 0 0 0 - - - 0;
#X obj 43 134 i;
#X floatatom 43 213 5 0 0 0 - - - 0;
#X obj 43 108 - 0.5;
#X obj 43 187 + 1;
#X msg 44 276 1;
#X obj 44 300 tgl 19 0 empty empty empty 0 -10 0 12 #fcfcfc #000000 #000000 0 1;
#X msg 76 276 0;
#X obj 44 251 sel 1;
#X msg 109 275 1;
#X obj 109 299 tgl 19 0 empty empty empty 0 -10 0 12 #fcfcfc #000000 #000000 0 1;
#X msg 141 275 0;
#X msg 175 274 1;
#X obj 175 298 tgl 19 0 empty empty empty 0 -10 0 12 #fcfcfc #000000 #000000 0 1;
#X msg 207 274 0;
#X obj 109 250 sel 2;
#X obj 175 249 sel 3;
#X obj 43 31 inlet;
#X obj 44 329 outlet;
#X obj 109 329 outlet;
#X obj 175 329 outlet;
#X obj 43 61 map 1 3;
#X obj 43 160 change;
#X connect 0 0 3 0;
#X connect 1 0 22 0;
#X connect 2 0 8 0;
#X connect 2 0 15 0;
#X connect 2 0 16 0;
#X connect 3 0 1 0;
#X connect 4 0 2 0;
#X connect 5 0 6 0;
#X connect 6 0 18 0;
#X connect 7 0 6 0;
#X connect 8 0 5 0;
#X connect 8 1 7 0;
#X connect 9 0 10 0;
#X connect 10 0 19 0;
#X connect 11 0 10 0;
#X connect 12 0 13 0;
#X connect 13 0 20 0;
#X connect 14 0 13 0;
#X connect 15 0 9 0;
#X connect 15 1 11 0;
#X connect 16 0 12 0;
#X connect 16 1 14 0;
#X connect 17 0 21 0;
#X connect 21 0 0 0;
#X connect 22 0 4 0;
#X restore 595 26 pd led3;
#X obj 372 245 s cv0;
#N canvas 121 158 1081 239 cv-processor 0;
#X obj 170 74 inlet;
#X obj 276 74 inlet;
#X obj 382 74 inlet;
#X obj 488 74 inlet;
#X obj 170 128 outlet;
#X obj 276 128 outlet;
#X obj 382 128 outlet;
#X obj 488 128 outlet;
#X obj 170 99 cv-smoother 20;
#X obj 276 99 cv-smoother 20;
#X obj 382 99 cv-smoother 20;
#X obj 488 99 cv-smoother 20;
#X obj 98 11 inlet;
#X obj 98 127 outlet;
#X obj 98 40 flip 1;
#X obj 98 80 tgl 19 0 empty empty empty 0 -10 0 12 #fcfcfc #000000 #000000 0 1;
#X text 168 37 turn off metro sampling of CV;
#X connect 0 0 8 0;
#X connect 1 0 9 0;
#X connect 2 0 10 0;
#X connect 3 0 11 0;
#X connect 8 0 4 0;
#X connect 9 0 5 0;
#X connect 10 0 6 0;
#X connect 11 0 7 0;
#X connect 12 0 14 0;
#X connect 14 0 15 0;
#X connect 15 0 8 2;
#X connect 15 0 9 2;
#X connect 15 0 10 2;
#X connect 15 0 11 2;
#X restore 329 219 pd cv-processor;
#X f 27;
#X obj 443 150 r CV1;
#X obj 486 150 r CV2;
#X obj 528 150 r CV3;
#X obj 414 245 s cv1;
#X obj 457 245 s cv2;
#X obj 499 245 s cv3;
#X obj 790 150 tgl 23 0 empty empty empty 17 7 0 10 #c4c4fc #000000 #000000 0 1;
#X obj 791 188 s GATE_OUT @owl Push;
#X text 842 140 This toggle activates the led in the GATE.OUT portso you can visualize the clock in it.;
#X text 798 219 GATE OUT LED Rate;
#X obj 122 372 adc~ 1;
#X obj 289 370 adc~ 2;
#X text 100 346 IN_L LICH PORT;
#X text 263 344 IN_R LICH PORT;
#X obj 125 458 dac~ 1;
#X obj 288 450 dac~ 2;
#X text 94 487 out_L LICH PORT;
#X text 265 486 out_R LICH PORT;
#X obj 497 354 hsl 128 15 0 1 0 0 empty empty empty -2 -8 0 10 #c4c4fc #000000 #000000 0 1;
#X obj 703 377 s CV_OUT_2 @owl G;
#X obj 706 353 hsl 128 15 0 1 0 0 empty empty empty -2 -8 0 10 #c4c4fc #000000 #000000 0 1;
#X obj 495 378 s CV_OUT_1 @owl F;
#X text 537 328 from 0 to 1;
#X text 760 326 from 0 to 1;
#X connect 0 0 16 0;
#X connect 1 0 7 0;
#X connect 3 0 6 0;
#X connect 7 0 3 0;
#X connect 7 0 24 0;
#X connect 9 0 10 0;
#X connect 9 1 10 1;
#X connect 11 0 8 0;
#X connect 11 0 17 0;
#X connect 14 0 11 0;
#X connect 17 1 16 0;
#X connect 17 2 21 0;
#X connect 17 3 22 0;
#X connect 17 4 23 0;
#X connect 18 0 21 0;
#X connect 19 0 22 0;
#X connect 20 0 23 0;
#X connect 24 0 25 0;
#X connect 36 0 39 0;
#X connect 38 0 37 0;
