#N canvas 97 371 770 815 12;
#X obj 231 394 phasor~ 20;
#X obj 362 624 *~ 50;
#X obj 343 652 +~;
#X obj 343 736 *~;
#X obj 387 464 tabread~ wndw;
#X obj 343 708 tabread~ playobject;
#X text 422 669 play position in sample (ms);
#X floatatom 154 252 0 0 0 0 - - -;
#X floatatom 101 302 0 0 0 0 - - -;
#N canvas 0 23 831 413 exprA 0;
#X floatatom 479 86 5 0 0 0 - - -;
#X floatatom 373 50 5 0 0 0 - - -;
#X obj 301 120 t b f;
#X msg 304 170 1000;
#X obj 304 210 *;
#X obj 302 266 /;
#X floatatom 302 303 5 0 0 0 - - -;
#X obj 248 149 f;
#X obj 249 124 t b;
#X obj 372 7 inlet;
#X obj 475 7 inlet;
#X obj 301 342 outlet;
#X connect 0 0 2 0;
#X connect 0 0 7 1;
#X connect 1 0 5 1;
#X connect 1 0 8 0;
#X connect 2 0 3 0;
#X connect 2 1 4 1;
#X connect 3 0 4 0;
#X connect 4 0 5 0;
#X connect 5 0 6 0;
#X connect 6 0 11 0;
#X connect 7 0 2 0;
#X connect 8 0 7 0;
#X connect 9 0 1 0;
#X connect 10 0 0 0;
#X restore 101 333 pd exprA;
#X floatatom 101 364 5 0 0 0 - - -;
#X floatatom 155 114 5 0 0 0 - - -;
#X obj 154 141 / 1200;
#X obj 154 206 pow;
#X obj 154 162 t b f;
#X msg 154 183 2;
#X obj 154 228 * 1;
#X text 195 124 cents;
#X text 194 207 12th root of 2;
#X text 128 302 gran dur (ms);
#X obj 438 327 sig~;
#X msg 81 97 90;
#X obj 387 439 *~ 512;
#X text 56 364 gfreq;
#X text 295 45 phase;
#X text 347 45 catch~ control;
#X obj 155 72 inlet;
#X text 387 416 trisize;
#X obj 297 72 inlet;
#X obj 354 72 inlet~;
#X obj 343 764 outlet~;
#X obj 346 535 samphold~;
#X obj 436 567 samphold~;
#X obj 436 593 snapshot~;
#X obj 530 592 metro 0;
#X obj 588 593 tgl 15 0 empty empty empty 17 7 0 10 -262144 -1 -1 1
1;
#X obj 588 571 loadbang;
#X obj 82 72 loadbang;
#X obj 343 680 *~ 22.05;
#X text 431 687 this sample = 22050 Hz;
#X connect 0 0 1 0;
#X connect 0 0 22 0;
#X connect 0 0 31 1;
#X connect 0 0 32 1;
#X connect 1 0 2 1;
#X connect 2 0 38 0;
#X connect 3 0 30 0;
#X connect 4 0 3 1;
#X connect 5 0 3 0;
#X connect 7 0 9 1;
#X connect 8 0 9 0;
#X connect 8 0 20 0;
#X connect 9 0 10 0;
#X connect 10 0 0 0;
#X connect 11 0 12 0;
#X connect 12 0 14 0;
#X connect 13 0 16 0;
#X connect 14 0 15 0;
#X connect 14 1 13 1;
#X connect 15 0 13 0;
#X connect 16 0 7 0;
#X connect 20 0 32 0;
#X connect 21 0 8 0;
#X connect 22 0 4 0;
#X connect 26 0 11 0;
#X connect 28 0 0 1;
#X connect 29 0 31 0;
#X connect 31 0 2 0;
#X connect 32 0 33 0;
#X connect 33 0 1 1;
#X connect 34 0 33 0;
#X connect 35 0 34 0;
#X connect 36 0 35 0;
#X connect 37 0 21 0;
#X connect 38 0 5 0;
