#N canvas 675 60 572 757 12;
#X obj 25 728 outlet~;
#X obj 25 354 +~, f 6;
#X obj 64 316 *~ 50, f 8;
#X obj 26 608 *~;
#X obj 44 564 tabread~ wndw;
#X obj 70 482 r trisize;
#X text 150 564 gain multiplided by tri window;
#X floatatom 198 156 5 0 0 0 - - - 0;
#X floatatom 27 156 5 0 0 0 - - - 0;
#X floatatom 117 156 5 0 0 0 - - - 0;
#X text 31 178 position;
#X text 31 16 Trigger gain with message: position (ms) \, grandur \, transposition (cts), f 71;
#X obj 132 291 tgl 19 0 empty empty empty 0 -10 0 12 #fcfcfc #000000 #000000 0 1;
#X obj 28 43 inlet;
#X obj 25 688 *~ 0.5;
#X text 137 690 set gain for each grain here;
#N canvas 306 163 438 417 ramp-calc 0;
#X floatatom 246 197 0 0 0 0 - - - 0;
#X floatatom 193 199 0 0 0 0 - - - 0;
#X floatatom 193 309 5 0 0 0 - - - 0;
#X floatatom 246 69 5 0 0 0 - - - 0;
#X obj 246 86 / 1200;
#X obj 246 151 pow;
#X obj 246 107 t b f;
#X msg 246 128 2;
#X text 287 69 cents;
#X text 286 152 12th root of 2;
#X text 276 197 frequency multiple;
#X text 145 24 gran dur (ms);
#X obj 193 342 outlet;
#X obj 128 341 outlet;
#X text 249 24 basepitch;
#X obj 246 47 inlet;
#X obj 190 45 inlet;
#X obj 246 220 t b f;
#X obj 128 278 *;
#X text 30 368 pitch adjusted gran dur;
#X connect 0 0 17 0;
#X connect 1 0 18 0;
#X connect 1 0 2 0;
#X connect 2 0 12 0;
#X connect 3 0 4 0;
#X connect 4 0 6 0;
#X connect 5 0 0 0;
#X connect 6 0 7 0;
#X connect 6 1 5 1;
#X connect 7 0 5 0;
#X connect 15 0 3 0;
#X connect 16 0 1 0;
#X connect 17 0 18 0;
#X connect 17 1 18 1;
#X connect 18 0 13 0;
#X restore 117 130 pd ramp-calc;
#X obj 260 321 samplerate~;
#X obj 260 345 / 1000;
#X floatatom 260 369 5 0 0 0 - - - 0;
#X obj 260 296 loadbang;
#X obj 28 74 spigot;
#X obj 132 315 flip 1;
#X obj 132 339 tgl 19 0 empty empty empty 0 -10 0 12 #fcfcfc #000000 #000000 0 1;
#X obj 87 729 outlet~;
#X obj 87 689 *~ 0.5;
#X obj 26 426 tabread~ doublebuf;
#X text 121 178 dur;
#X text 192 178 ramp time;
#X obj 47 263 oneshot1~ 20;
#X obj 28 101 unpack f f f;
#X obj 26 387 *~ 16;
#X obj 44 520 *~ 512;
#X connect 1 0 31 0;
#X connect 2 0 1 1;
#X connect 3 0 14 0;
#X connect 3 0 25 0;
#X connect 4 0 3 1;
#X connect 5 0 32 1;
#X connect 7 0 29 0;
#X connect 8 0 1 0;
#X connect 9 0 2 1;
#X connect 12 0 22 0;
#X connect 13 0 21 0;
#X connect 14 0 0 0;
#X connect 16 0 9 0;
#X connect 16 1 7 0;
#X connect 17 0 18 0;
#X connect 18 0 19 0;
#X connect 19 0 31 1;
#X connect 20 0 17 0;
#X connect 21 0 30 0;
#X connect 22 0 23 0;
#X connect 23 0 21 1;
#X connect 25 0 24 0;
#X connect 26 0 3 0;
#X connect 29 0 2 0;
#X connect 29 0 32 0;
#X connect 29 1 12 0;
#X connect 30 0 8 0;
#X connect 30 1 16 0;
#X connect 30 2 16 1;
#X connect 31 0 26 0;
#X connect 32 0 4 0;
