#N canvas 827 239 527 327 12;
#X obj 211 373 < 0.1;
#X obj 116 413 change;
#X obj 211 413 change;
#X obj 116 561 outlet;
#X obj 183 561 outlet;
#X obj 336 312 f \$1;
#X obj 336 367 f \$2;
#X obj 391 383 f \$3;
#X obj 452 387 f \$4;
#X obj 321 219 loadbang;
#X obj 318 252 bng 25 250 50 0 empty empty empty 17 7 0 10 #e4e4e4 #4d4d4d #373737;
#X obj 70 506 bng 25 250 50 0 empty empty empty 17 7 0 10 #e4e4e4 #4d4d4d #373737;
#X obj 309 455 tgl 25 0 empty empty empty 17 7 0 10 #e4e4e4 #4d4d4d #373737 0 1;
#X obj 59 417 tgl 25 0 empty empty empty 17 7 0 10 #e4e4e4 #4d4d4d #373737 0 1;
#X obj 116 457 sel 1;
#X obj 193 465 sel 1;
#X obj 285 516 bng 25 250 50 0 empty empty empty 17 7 0 10 #e4e4e4 #4d4d4d #373737;
#X obj 116 506 delay 0;
#X obj 193 506 delay 0;
#X obj 183 157 inlet;
#X obj 116 373 >= 0.9;
#X connect 0 0 2 0;
#X connect 0 0 12 0;
#X connect 1 0 14 0;
#X connect 2 0 15 0;
#X connect 5 0 20 1;
#X connect 6 0 17 1;
#X connect 7 0 0 1;
#X connect 8 0 18 1;
#X connect 9 0 10 0;
#X connect 10 0 5 0;
#X connect 10 0 6 0;
#X connect 10 0 7 0;
#X connect 10 0 8 0;
#X connect 14 0 11 0;
#X connect 14 0 17 0;
#X connect 15 0 16 0;
#X connect 15 0 18 0;
#X connect 17 0 3 0;
#X connect 18 0 4 0;
#X connect 19 0 0 0;
#X connect 19 0 20 0;
#X connect 20 0 1 0;
#X connect 20 0 13 0;
