#N canvas 225 96 559 427 12;
#X msg 136 173 0;
#X msg 168 173 0;
#X obj 136 121 bng 19 250 50 0 empty empty empty 0 -10 0 12 #fcfcfc #000000 #000000;
#X obj 136 145 t b b;
#X obj 15 46 inlet;
#X obj 65 356 outlet~;
#X text 421 15 Atau Tanaka 2024;
#X obj 167 328 tgl 19 0 empty empty empty 0 -10 0 12 #fcfcfc #000000 #000000 0 1;
#X obj 167 356 outlet;
#X obj 178 274 bng 19 250 50 0 empty empty empty 0 -10 0 12 #fcfcfc #000000 #000000;
#X msg 178 298 1;
#X text 69 46 ramptime in;
#X msg 68 109 0 \, 1 \$1;
#X text 199 122 when ramp reaches top;
#X text 195 327 busy flag;
#X obj 335 152 loadbang;
#X text 400 148 initialise as not busy, f 15;
#X text 196 138 reset line to zero;
#X text 18 11 ONE SHOT RAMP - instead of repeating phasor;
#X obj 15 70 select 0;
#X obj 133 93 threshold1~ 1 0 0.1 0;
#X obj 24 223 line~;
#X obj 178 250 threshold1~ 0.001 0 0.1 0;
#X obj 78 223 line;
#X connect 0 0 21 0;
#X connect 0 0 23 0;
#X connect 1 0 7 0;
#X connect 2 0 3 0;
#X connect 3 0 0 0;
#X connect 3 1 1 0;
#X connect 4 0 19 0;
#X connect 7 0 8 0;
#X connect 9 0 10 0;
#X connect 10 0 7 0;
#X connect 12 0 21 0;
#X connect 12 0 23 0;
#X connect 15 0 1 0;
#X connect 19 1 12 0;
#X connect 20 0 2 0;
#X connect 21 0 5 0;
#X connect 22 0 9 0;
#X connect 23 0 20 0;
#X connect 23 0 22 0;
