#N canvas 1298 47 1262 1163 10;
#X text 869 115 Analog (CV) inputs;
#X text 869 165 Analog (CV) outputs;
#X text 65 80 —————————————————————————————, f 61;
#X text 66 70 Template – Bela Pepper;
#X obj 124 1051 throw~ outL;
#X obj 219 1052 throw~ outR;
#X obj 67 374 s screenLine1;
#X obj 372 326 loadbang;
#X obj 372 374 s screenLine4;
#X msg 372 349 blah blah;
#X obj 175 380 s screenLine2;
#X obj 281 379 s screenLine3;
#X msg 274 346 Three here;
#X text 491 373 OLED screen;
#X obj 515 114 r knob1;
#X obj 571 115 r knob2;
#X obj 625 114 r knob3;
#X obj 179 172 r notes;
#X obj 179 194 unpack;
#X floatatom 179 216 5 0 0 0 - - - 0;
#X obj 179 237 mtof;
#X floatatom 180 262 5 0 0 0 - - - 0;
#X obj 231 215 sel 0;
#X text 879 256 Keyboard (wooden button) input as MIDI;
#X obj 661 878 send~ amplitude;
#X obj 661 762 lop~ 10;
#X obj 188 683 adc~ 3;
#X obj 188 878 send~ frequency;
#X obj 497 762 *~ 100;
#X obj 339 878 send~ harmonicity;
#X obj 497 878 send~ ratio;
#X obj 339 764 *~ 10;
#X obj 339 683 adc~ 5;
#X obj 497 682 adc~ 7;
#X obj 661 682 adc~ 9;
#X obj 339 795 +~ 0.1;
#X obj 188 764 *~ 200;
#X obj 188 795 +~ 20;
#X obj 819 878 send~ rate;
#X obj 983 878 send~ depth;
#X obj 819 762 *~ 100;
#X obj 819 681 adc~ 8;
#X obj 983 681 adc~ 10;
#X obj 133 606 hsl 128 17 0 1 0 0 empty empty empty -2 -8 0 10 #191919 #e1e1e1 #e1e1e1 0 0;
#X obj 290 606 hsl 128 17 0 1 0 0 empty empty empty -2 -8 0 10 #191919 #e1e1e1 #e1e1e1 0 0;
#X obj 130 948 tgl 25 0 empty empty empty 17 7 0 10 #191919 #e1e1e1 #e1e1e1 0 1;
#X obj 130 683 line~;
#X msg 130 650 \$1 100;
#X obj 287 683 line~;
#X msg 287 650 \$1 100;
#X obj 447 606 hsl 128 17 0 1 0 0 empty empty empty -2 -8 0 10 #191919 #e1e1e1 #e1e1e1 0 0;
#X obj 444 681 line~;
#X msg 444 648 \$1 100;
#X obj 605 606 hsl 128 17 0 1 0 0 empty empty empty -2 -8 0 10 #191919 #e1e1e1 #e1e1e1 0 0;
#X obj 602 683 line~;
#X msg 602 650 \$1 100;
#X obj 762 606 hsl 128 17 0 1 0 0 empty empty empty -2 -8 0 10 #191919 #e1e1e1 #e1e1e1 0 0;
#X obj 759 683 line~;
#X msg 759 650 \$1 100;
#X obj 920 606 hsl 128 17 0 1 0 0 empty empty empty -2 -8 0 10 #191919 #e1e1e1 #e1e1e1 0 0;
#X obj 917 682 line~;
#X msg 917 649 \$1 100;
#N canvas 733 172 450 300 fm 0;
#X obj 272 313 +~;
#X obj 345 213 osc~;
#X obj 345 262 *~;
#X obj 345 135 *~;
#X obj 425 213 *~;
#X obj 272 339 osc~;
#X obj 318 375 receive~ amplitude;
#X obj 272 452 *~;
#X obj 75 151 line~;
#X obj 272 589 *~;
#X msg 75 116 \$1 200;
#X obj 272 48 receive~ frequency;
#X obj 356 85 receive~ harmonicity;
#X obj 436 135 receive~ ratio;
#X obj 506 267 osc~;
#X obj 506 213 receive~ rate, f 14;
#X obj 506 347 *~;
#X obj 558 267 receive~ depth;
#X obj 506 391 *~ 0.5;
#X obj 506 424 +~ 0.5;
#X obj 272 525 *~;
#X obj 75 48 inlet;
#X obj 272 644 outlet~;
#X obj 125 48 receive PUSH;
#X connect 0 0 5 0;
#X connect 1 0 2 0;
#X connect 2 0 0 1;
#X connect 3 0 1 0;
#X connect 3 0 4 0;
#X connect 4 0 2 1;
#X connect 5 0 7 0;
#X connect 6 0 7 1;
#X connect 7 0 20 0;
#X connect 8 0 9 1;
#X connect 9 0 22 0;
#X connect 10 0 8 0;
#X connect 11 0 0 0;
#X connect 11 0 3 0;
#X connect 12 0 3 1;
#X connect 13 0 4 1;
#X connect 14 0 16 0;
#X connect 15 0 14 0;
#X connect 16 0 18 0;
#X connect 17 0 16 1;
#X connect 18 0 19 0;
#X connect 19 0 20 1;
#X connect 20 0 9 0;
#X connect 21 0 10 0;
#X connect 23 0 10 0;
#X restore 130 1000 pd fm;
#X text 163 950 on/off;
#X text 127 574 frequency;
#X text 284 574 harmonicity;
#X text 441 574 ratio;
#X text 598 574 amplitude;
#X text 756 574 rate (amplitude);
#X text 913 574 depth (amplitude);
#X obj 983 762 *~ 1;
#X obj 66 922 loadbang;
#X obj 677 115 r knob4;
#X msg 632 506 1;
#X obj 625 444 loadbang;
#X msg 66 346 1: Note \$1;
#X msg 169 347 2: Velocity \$1;
#X connect 7 0 9 0;
#X connect 9 0 8 0;
#X connect 12 0 11 0;
#X connect 14 0 43 0;
#X connect 15 0 50 0;
#X connect 16 0 56 0;
#X connect 17 0 18 0;
#X connect 18 0 19 0;
#X connect 18 0 75 0;
#X connect 18 1 22 0;
#X connect 18 1 76 0;
#X connect 19 0 20 0;
#X connect 20 0 21 0;
#X connect 25 0 24 0;
#X connect 26 0 36 0;
#X connect 28 0 30 0;
#X connect 31 0 35 0;
#X connect 32 0 31 0;
#X connect 33 0 28 0;
#X connect 34 0 25 0;
#X connect 35 0 29 0;
#X connect 36 0 37 0;
#X connect 37 0 27 0;
#X connect 40 0 38 0;
#X connect 41 0 40 0;
#X connect 42 0 70 0;
#X connect 43 0 47 0;
#X connect 44 0 49 0;
#X connect 45 0 62 0;
#X connect 46 0 36 0;
#X connect 47 0 46 0;
#X connect 48 0 31 0;
#X connect 49 0 48 0;
#X connect 50 0 52 0;
#X connect 51 0 28 0;
#X connect 52 0 51 0;
#X connect 53 0 55 0;
#X connect 54 0 25 0;
#X connect 55 0 54 0;
#X connect 56 0 58 0;
#X connect 57 0 40 0;
#X connect 58 0 57 0;
#X connect 59 0 61 0;
#X connect 60 0 70 0;
#X connect 61 0 60 0;
#X connect 62 0 4 0;
#X connect 62 0 5 0;
#X connect 70 0 39 0;
#X connect 71 0 45 0;
#X connect 72 0 59 0;
#X connect 73 0 53 0;
#X connect 74 0 73 0;
#X connect 75 0 6 0;
#X connect 76 0 10 0;
