#N canvas 343 342 450 300 12;
#X obj 160 36 inlet;
#X obj 160 126 *;
#X obj 276 38 loadbang;
#X obj 276 86 - \$1;
#X obj 160 150 + \$1;
#X obj 160 174 outlet;
#X obj 276 62 f \$2;
#X connect 0 0 1 0;
#X connect 1 0 4 0;
#X connect 2 0 6 0;
#X connect 3 0 1 1;
#X connect 4 0 5 0;
#X connect 6 0 3 0;
