#N canvas 1374 372 750 691 12;
#X floatatom 244 101 5 0 0 0 - - - 0;
#X text 229 70 center value;
#X floatatom 352 100 5 0 100 0 - - - 0;
#X text 336 70 variation %;
#X obj 352 123 / 100;
#X obj 245 185 pack;
#X obj 352 147 t b f;
#X floatatom 451 464 5 0 0 0 - - - 0;
#X floatatom 249 464 5 0 0 0 - - - 0;
#X text 506 538 min;
#X text 298 460 max;
#X obj 104 427 random 1000;
#X obj 104 452 / 1000;
#X obj 464 514 -;
#X floatatom 466 541 5 0 0 0 - - - 0;
#X obj 102 93 bng 19 250 50 0 empty empty empty 0 -10 0 12 #fcfcfc #000000 #000000;
#X obj 445 591 *;
#X obj 450 487 t f f;
#X obj 420 679 +;
#X floatatom 420 703 5 0 0 0 - - - 0;
#X obj 445 615 t b f;
#X obj 404 647 f;
#X obj 244 45 inlet;
#X obj 353 47 inlet;
#X obj 102 49 inlet;
#X text 92 16 generate output;
#X obj 420 726 outlet;
#X obj 245 217 unpack;
#X obj 245 292 t f f;
#X obj 264 351 *;
#X obj 245 407 +;
#X text 523 291 expr $f1 - ($f1*$f2);
#X text 309 291 expr $f1 + ($f1*$f2);
#X obj 447 292 t f f;
#X obj 466 351 *;
#X obj 447 407 -;
#X obj 447 217 unpack;
#X connect 0 0 5 0;
#X connect 2 0 4 0;
#X connect 4 0 6 0;
#X connect 5 0 27 0;
#X connect 5 0 36 0;
#X connect 6 0 5 0;
#X connect 6 1 5 1;
#X connect 7 0 17 0;
#X connect 8 0 13 0;
#X connect 11 0 12 0;
#X connect 12 0 16 0;
#X connect 13 0 14 0;
#X connect 14 0 16 1;
#X connect 15 0 11 0;
#X connect 16 0 20 0;
#X connect 17 0 21 1;
#X connect 17 1 13 1;
#X connect 18 0 19 0;
#X connect 19 0 26 0;
#X connect 20 0 21 0;
#X connect 20 1 18 1;
#X connect 21 0 18 0;
#X connect 22 0 0 0;
#X connect 23 0 2 0;
#X connect 24 0 15 0;
#X connect 27 0 28 0;
#X connect 27 1 29 1;
#X connect 28 0 30 0;
#X connect 28 1 29 0;
#X connect 29 0 30 1;
#X connect 30 0 8 0;
#X connect 33 0 35 0;
#X connect 33 1 34 0;
#X connect 34 0 35 1;
#X connect 35 0 7 0;
#X connect 36 0 33 0;
#X connect 36 1 34 1;
