#N canvas 4227 1072 1440 679 10;
#X obj 786 733 dac~ 1 2;
#X obj 638 391 send~ amplitude;
#X obj 638 325 lop~ 10;
#X obj 48 391 send~ frequency;
#X obj 439 325 *~ 100;
#X obj 252 391 send~ harmonicity;
#X obj 439 391 send~ ratio;
#X obj 252 327 *~ 10;
#X obj 252 358 +~ 0.1;
#X obj 48 327 *~ 200;
#X obj 48 358 +~ 20;
#X obj 439 733 send~ rate;
#X obj 608 733 send~ depth;
#X obj 439 667 *~ 100;
#X obj 51 144 hsl 128 17 0 1 0 0 empty empty empty -2 -8 0 10 #ebebeb #000000 #e1e1e1 0 0;
#X obj 255 144 hsl 128 17 0 1 0 0 empty empty empty -2 -8 0 10 #ebebeb #000000 #e1e1e1 0 0;
#X obj 48 271 line~;
#X msg 48 238 \$1 100;
#X obj 252 271 line~;
#X msg 252 238 \$1 100;
#X obj 442 144 hsl 128 17 0 1 0 0 empty empty empty -2 -8 0 10 #ebebeb #000000 #e1e1e1 0 0;
#X obj 439 271 line~;
#X msg 439 236 \$1 100;
#X obj 641 144 hsl 128 17 0 1 0 0 empty empty empty -2 -8 0 10 #ebebeb #000000 #e1e1e1 0 0;
#X obj 638 271 line~;
#X msg 638 238 \$1 100;
#X obj 442 486 hsl 128 17 0 1 0 0 empty empty empty -2 -8 0 10 #ebebeb #000000 #e1e1e1 0 0;
#X obj 439 613 line~;
#X msg 439 580 \$1 100;
#X obj 611 486 hsl 128 17 0 1 0 0 empty empty empty -2 -8 0 10 #ebebeb #000000 #e1e1e1 0 0;
#X obj 608 612 line~;
#X msg 608 579 \$1 100;
#X text 48 49 —————————————————————————————, f 61;
#X text 48 39 FM synthesizer;
#N canvas 733 172 450 300 fm 0;
#X obj 272 288 +~;
#X obj 345 188 osc~;
#X obj 345 237 *~;
#X obj 345 135 *~;
#X obj 425 188 *~;
#X obj 272 325 osc~;
#X obj 319 325 receive~ amplitude;
#X obj 272 399 *~;
#X obj 75 151 line~;
#X obj 272 536 *~;
#X msg 75 116 \$1 200;
#X obj 272 48 receive~ frequency;
#X obj 356 85 receive~ harmonicity;
#X obj 436 135 receive~ ratio;
#X obj 506 242 osc~;
#X obj 506 188 receive~ rate, f 14;
#X obj 506 325 *~;
#X obj 558 242 receive~ depth;
#X obj 506 366 *~ 0.5;
#X obj 506 399 +~ 0.5;
#X obj 272 472 *~;
#X obj 75 48 inlet;
#X obj 272 591 outlet~;
#X obj 126 48 r PUSH1;
#X connect 0 0 5 0 32.................D..........A.........b.....;
#X connect 1 0 2 0 32.................O.........vC.........3A....;
#X connect 2 0 0 1 32.................P....L7+++OD....C++++CB....;
#X connect 3 0 4 0 32.................Q.....E...PD....PA...HB....;
#X connect 3 0 1 0 32.................Q.........PD.........HB....;
#X connect 4 0 2 1 32.................O....v6++++C....79+++6A....;
#X connect 5 0 7 0 32.................g.........PH.........HD....;
#X connect 6 0 7 1 32.................g....z8+++eH....c++++KD....;
#X connect 7 0 20 0 32.................a.........vF.........XC....;
#X connect 8 0 9 1 32.................VE....M...fUA...PC...3V....;
#X connect 9 0 22 0 32.................R.........fD.........PB....;
#X connect 10 0 8 0 32.................H..........B..........A....;
#X connect 11 0 3 0 32.................y....jD...vL....IA...PD....;
#X connect 11 0 0 0 32.................uA........va.........zM....;
#X connect 12 0 3 1 32.................P..........D.........7A....;
#X connect 13 0 4 1 32.................Q.........PD.........HB....;
#X connect 14 0 16 0 32.................a.........vF.........TC....;
#X connect 15 0 14 0 32.................R.........fD.........LB....;
#X connect 16 0 18 0 32.................Q.........PD.........DB....;
#X connect 17 0 16 1 32.................a....f8++++F....X++++WC....;
#X connect 18 0 19 0 32.................G.........vA.........3.....;
#X connect 19 0 20 1 32.................a....Hx++++F....h7+++aC....;
#X connect 20 0 9 0 32.................W.........vE.........zB....;
#X connect 21 0 10 0 32.................Y.........PF.........DC....;
#X connect 23 0 10 0 32.................Y....j7+++eF....I++++GC....;
#X restore 786 671 pd fm;
#X text 777 592 on/off;
#X text 48 116 frequency;
#X text 252 116 harmonicity;
#X text 439 116 ratio;
#X text 637 116 amplitude;
#X text 439 458 rate (amplitude);
#X text 607 458 depth (amplitude);
#X obj 608 667 *~ 1;
#X msg 768 486 0.4;
#X msg 814 511 0.8;
#X obj 768 425 loadbang;
#X obj 790 621 tgl 18 0 empty empty empty 0 -9 0 10 #fcfcfc #000000 #000000 0 1;
#X obj 489 178 r CV3;
#X text 541 49 < replace with target platform;
#X obj 782 83 loadbang;
#X obj 94 178 r CV1;
#X obj 302 178 r CV2;
#X msg 782 144 0.8;
#X obj 439 50 template-pod;
#X connect 2 0 1 0 32.................X..........F.........7B....;
#X connect 4 0 6 0 32.................X..........F.........7B....;
#X connect 7 0 8 0 32.................F.........fA.........v.....;
#X connect 8 0 5 0 32.................G.........vA.........3.....;
#X connect 9 0 10 0 32.................F.........fA.........v.....;
#X connect 10 0 3 0 32.................G.........vA.........3.....;
#X connect 13 0 11 0 32.................X..........F.........7B....;
#X connect 14 0 17 0 32.................m.........vI.........zD....;
#X connect 15 0 19 0 32.................m.........vI.........zD....;
#X connect 16 0 9 0 32.................S.........vD.........TB....;
#X connect 17 0 16 0 32.................G.........vA.........3.....;
#X connect 18 0 7 0 32.................S.........vD.........TB....;
#X connect 19 0 18 0 32.................G.........vA.........3.....;
#X connect 20 0 22 0 32.................l.........fI.........rD....;
#X connect 21 0 4 0 32.................R.........fD.........LB....;
#X connect 22 0 21 0 32.................H..........B..........A....;
#X connect 23 0 25 0 32.................m.........vI.........zD....;
#X connect 24 0 2 0 32.................R.........fD.........LB....;
#X connect 25 0 24 0 32.................G.........vA.........3.....;
#X connect 26 0 28 0 32.................m.........vI.........zD....;
#X connect 27 0 13 0 32.................R.........fD.........LB....;
#X connect 28 0 27 0 32.................G.........vA.........3.....;
#X connect 29 0 31 0 32.................l.........fI.........vD....;
#X connect 30 0 42 0 32.................R.........fD.........PB....;
#X connect 31 0 30 0 32.................G.........vA.........3.....;
#X connect 34 0 0 1 32.................V....PB...fE....j....rB....;
#X connect 34 0 0 0 32.................V.........fE.........rB....;
#X connect 42 0 12 0 32.................X..........F.........7B....;
#X connect 43 0 28 0 32.................Y....fq+++eF....35+++uD....;
#X connect 44 0 31 0 32.................Y....Ly+++eF....y7+++GC....;
#X connect 45 0 44 0 32.................h....3B...fH....t....LD....;
#X connect 45 0 43 0 32.................U.........PE.........nB....;
#X connect 46 0 34 0 32.................P..........D..........B....;
#X connect 47 0 22 0 32.................T....77+++OE....O++++eB....;
#X connect 49 0 52 0 32.................U.........PE.........nB....;
#X connect 50 0 17 0 32.................N....T5+++uC....k9+++mB....;
#X connect 51 0 19 0 32.................U....77+++eE....O++++mB....;
#X connect 52 0 25 0 32.................Y....D2+++eF....w8+++uD....;
