#N canvas 4227 1072 1440 679 10;
#X obj 343 366 r Button2 @hv_param;
#X obj 102 366 r Button1 @hv_param;
#X obj 102 130 r Knob1 @hv_param;
#X obj 658 366 r EncSwitch @hv_param;
#X obj 658 132 r Encoder @hv_param;
#X msg 589 132 1;
#X msg 616 132 -1;
#X obj 102 515 r button1_press @hv_param;
#X obj 343 515 r button2_press @hv_param;
#X obj 794 643 s led1 @hv_param;
#X obj 929 643 s led2 @hv_param;
#X text 54 53 —————————————————————————————, f 61;
#X obj 794 603 dac~ 1 2;
#X text 758 163 change multiplier;
#X floatatom 717 251 5 0 0 0 - - - 12;
#X obj 60 103 hsl 128 17 0 1 0 0 empty empty empty -2 -8 0 10 #ebebeb #000000 #e1e1e1 0 0;
#X floatatom 57 251 5 0 0 0 - - - 12;
#X text 758 184 Default = 1;
#X obj 304 105 hsl 128 17 0 1 0 0 empty empty empty -2 -8 0 10 #ebebeb #000000 #e1e1e1 0 0;
#X floatatom 301 251 5 0 0 0 - - - 12;
#X obj 102 299 s CV1;
#X obj 343 301 s CV2;
#X obj 794 515 adc~ 1 2;
#N canvas 733 172 450 300 toggle 0;
#X obj 106 157 + 1;
#X obj 106 193 % 2;
#X obj 69 59 inlet;
#X obj 69 252 outlet;
#X obj 69 115 1;
#X connect 0 0 1 0 32.................I.........PB.........DA....;
#X connect 1 0 4 1 48.................J....LB...fB....i....X4++++4++++V9+++e9+++On++++;
#X connect 2 0 4 0 32.................S.........vD.........TB....;
#X connect 4 0 0 0 32.................L....TB....C....k....bA....;
#X connect 4 0 3 0 32.................6.........vN.........XG....;
#X restore 658 515 pd toggle;
#X text 860 514 Audio Inputs;
#X obj 343 442 s GATE_OUT2;
#X obj 102 442 s GATE_OUT1;
#X text 1053 642 LEDs;
#X obj 102 604 s PUSH1;
#X obj 343 603 s PUSH2;
#X text 524 514 Push buttons;
#X text 814 365 Encoder push;
#X floatatom 717 164 5 0 0 0 - - - 12;
#X obj 658 299 s CV3;
#X obj 719 442 s GATE_OUT3;
#X obj 658 603 s PUSH3;
#X text 800 131 Encoder cv;
#N canvas 733 172 450 300 multiplier 0;
#X obj 81 194 f;
#X obj 58 157 +;
#X obj 58 51 inlet;
#X obj 58 244 outlet;
#X obj 58 108 * 1;
#X obj 114 51 inlet;
#X connect 0 0 1 1 48.................J....DB...fB....g....36+++e8++++99+++W++++ex++++;
#X connect 1 0 0 0 32.................I....bA...PB....W....HA....;
#X connect 1 0 3 0;
#X connect 2 0 4 0;
#X connect 4 0 1 0;
#X connect 5 0 4 1 32.................S....P8++++D....T++++aB....;
#X restore 658 200 pd multiplier;
#X obj 343 132 r Knob2 @hv_param;
#X text 860 602 Audio Outputs;
#X obj 662 556 tgl 18 0 empty empty empty 0 -9 0 10 #fcfcfc #000000 #000000 0 1;
#X obj 298 515 tgl 18 0 empty empty empty 0 -9 0 10 #fcfcfc #000000 #000000 0 1;
#X obj 57 515 tgl 18 0 empty empty empty 0 -9 0 10 #fcfcfc #000000 #000000 0 1;
#X obj 57 366 bng 19 250 50 0 empty empty empty 17 7 0 10 #fcfcfc #000000 #000000;
#X obj 301 366 bng 19 250 50 0 empty empty empty 17 7 0 10 #fcfcfc #000000 #000000;
#X obj 589 366 bng 19 250 50 0 empty empty empty 17 7 0 10 #fcfcfc #000000 #000000;
#X text 54 43 Daisy Pod – Template;
#X connect 0 0 25 0 32.................c.........PG.........jC....;
#X connect 1 0 26 0 32.................c.........PG.........jC....;
#X connect 2 0 20 0 32.................KA........vR.........XI....;
#X connect 3 0 23 0 32.................AA........PP.........HH....;
#X connect 3 0 34 0 32.................c....zC...PG....8....jC....;
#X connect 4 0 37 0 32.................Y.........PF.........DC....;
#X connect 5 0 37 0 32.................Y....fD...PF....HA...DC....;
#X connect 6 0 37 0 32.................Y....rB...PF....q....DC....;
#X connect 7 0 28 0 32.................i.........vH.........XD....;
#X connect 8 0 29 0 32.................i.........vH.........TD....;
#X connect 15 0 16 0 32.................BA........fP.........LH....;
#X connect 15 0 20 0 32.................ZA...zB...fV....s....LK....;
#X connect 18 0 19 0 32.................AA........PP.........DH....;
#X connect 18 0 21 0 32.................ZA...nB...fV....p....LK....;
#X connect 23 0 40 0 32.................K.........vB.........XA....;
#X connect 32 0 37 1 32.................I.........PB.........HA....;
#X connect 37 0 14 0 32.................P....rC....D....6.....B....;
#X connect 37 0 33 0 32.................n..........J..........E....;
#X connect 38 0 21 0 32.................KA........vR.........XI....;
#X connect 40 0 35 0 32.................O.........vC.........zA....;
#X connect 41 0 29 0 32.................i....DC...vH....w....XD....;
#X connect 42 0 28 0 32.................j....DC....I....w....bD....;
#X connect 43 0 26 0 32.................c.....C...PG....v....jC....;
#X connect 44 0 25 0 32.................c....zB...PG....s....jC....;
#X connect 45 0 34 0 32.................c....TH...PG....EB...jC....;
#X connect 45 0 23 0 32.................AA...fD...PP....HA...HH....;
