#N canvas 79 22 1134 537 10;
#X obj 501 514 led-bargraph, f 60;
#X text 874 514 LEDs;
#X obj 501 483 tgl 25 0 empty empty empty 17 7 0 10 #191919 #e1e1e1 #e1e1e1 0 1;
#X obj 538 483 tgl 25 0 empty empty empty 17 7 0 10 #191919 #e1e1e1 #e1e1e1 0 1;
#X obj 576 483 tgl 25 0 empty empty empty 17 7 0 10 #191919 #e1e1e1 #e1e1e1 0 1;
#X obj 614 483 tgl 25 0 empty empty empty 17 7 0 10 #191919 #e1e1e1 #e1e1e1 0 1;
#X obj 651 483 tgl 25 0 empty empty empty 17 7 0 10 #191919 #e1e1e1 #e1e1e1 0 1;
#X obj 689 483 tgl 25 0 empty empty empty 17 7 0 10 #191919 #e1e1e1 #e1e1e1 0 1;
#X obj 727 483 tgl 25 0 empty empty empty 17 7 0 10 #191919 #e1e1e1 #e1e1e1 0 1;
#X obj 764 483 tgl 25 0 empty empty empty 17 7 0 10 #191919 #e1e1e1 #e1e1e1 0 1;
#X obj 802 483 tgl 25 0 empty empty empty 17 7 0 10 #191919 #e1e1e1 #e1e1e1 0 1;
#X obj 840 483 tgl 25 0 empty empty empty 17 7 0 10 #191919 #e1e1e1 #e1e1e1 0 1;
#X obj 501 116 adc~ 3 4 5 6 7 8 9 10, f 60;
#X obj 501 166 dac~ 3 4 5 6 7 8 9 10, f 60;
#X obj 501 368 adc~ 1 2, f 11;
#X obj 501 417 dac~ 1 2, f 11;
#X text 574 367 Audio inputs;
#X text 574 416 Audio outputs;
#X obj 501 238 buttons, f 58;
#X obj 501 290 print Button 1:;
#X obj 609 290 print Button 2:;
#X obj 717 417 bela_scope~;
#X text 806 416 Bela scope;
#X obj 503 71 initialise_digitals;
#X text 614 70 Initialise LEDs \, buttons and trigger inputs;
#X text 853 238 Read from all buttons;
#X text 869 115 Analog (CV) inputs;
#X text 869 165 Analog (CV) outputs;
#X obj 717 291 print Button 3:;
#X obj 825 291 print Button 4:;
#X text 65 80 —————————————————————————————, f 61;
#X obj 501 261 tgl 25 0 empty empty empty 17 7 0 10 #191919 #e1e1e1 #e1e1e1 0 1;
#X obj 609 261 tgl 25 0 empty empty empty 17 7 0 10 #191919 #e1e1e1 #e1e1e1 0 1;
#X obj 717 261 tgl 25 0 empty empty empty 17 7 0 10 #191919 #e1e1e1 #e1e1e1 0 1;
#X obj 825 261 tgl 25 0 empty empty empty 17 7 0 10 #191919 #e1e1e1 #e1e1e1 0 1;
#X text 65 70 Template – Bela Pepper;
#X connect 2 0 0 0;
#X connect 3 0 0 1;
#X connect 4 0 0 2;
#X connect 5 0 0 3;
#X connect 6 0 0 4;
#X connect 7 0 0 5;
#X connect 8 0 0 6;
#X connect 9 0 0 7;
#X connect 10 0 0 8;
#X connect 11 0 0 9;
#X connect 18 0 31 0;
#X connect 18 1 32 0;
#X connect 18 2 33 0;
#X connect 18 3 34 0;
#X connect 31 0 19 0;
#X connect 32 0 20 0;
#X connect 33 0 28 0;
#X connect 34 0 29 0;
