#N canvas 64 96 750 540 12;
#X obj 50 30 r carrier;
#X obj 50 55 pack f 80;
#X obj 50 80 line~;
#X obj 200 30 r ratio;
#X obj 200 55 pack f 80;
#X obj 200 80 line~;
#X obj 125 110 *~;
#X obj 350 30 r index;
#X obj 350 55 pack f 80;
#X obj 350 80 line~;
#X obj 250 110 *~;
#X obj 125 140 osc~;
#X obj 125 170 *~;
#X obj 50 200 +~;
#X obj 50 230 osc~;
#X obj 500 30 r amp;
#X obj 500 55 pack f 80;
#X obj 500 80 line~;
#X obj 50 260 *~;
#X obj 620 30 r gate;
#X obj 620 55 sel 0 1;
#X msg 570 80 0 300;
#X msg 670 80 1 50;
#X obj 620 110 line~;
#X obj 50 290 *~;
#X obj 50 350 clip~ -1 1;
#X obj 50 395 dac~;
#X obj 50 320 hip~ 5;
#X connect 0 0 1 0;
#X connect 1 0 2 0;
#X connect 2 0 6 0;
#X connect 2 0 10 0;
#X connect 2 0 13 0;
#X connect 3 0 4 0;
#X connect 4 0 5 0;
#X connect 5 0 6 1;
#X connect 6 0 11 0;
#X connect 7 0 8 0;
#X connect 8 0 9 0;
#X connect 9 0 10 1;
#X connect 10 0 12 1;
#X connect 11 0 12 0;
#X connect 12 0 13 1;
#X connect 13 0 14 0;
#X connect 14 0 18 0;
#X connect 15 0 16 0;
#X connect 16 0 17 0;
#X connect 17 0 18 1;
#X connect 18 0 24 0;
#X connect 19 0 20 0;
#X connect 20 0 21 0;
#X connect 20 1 22 0;
#X connect 21 0 23 0;
#X connect 22 0 23 0;
#X connect 23 0 24 1;
#X connect 24 0 27 0;
#X connect 25 0 26 0;
#X connect 25 0 26 1;
#X connect 27 0 25 0;
