#N canvas 8 22 1021 720 10;
#X obj 427 469 rj_image p-slider20.png;
#X msg 429 404 move \$1 \$2;
#X obj 563 263 f \$1;
#X obj 555 194 loadbang;
#X obj 429 377 pack 0 0;
#X obj 202 119 r \$1-physics-slider;
#X text 665 169 \$1: 1 2 3 etc (row);
#X obj 564 307 * 32;
#X obj 558 342 + 16;
#X obj 528 224 t b b;
#X msg 485 307 160;
#X obj 255 250 / 320;
#X obj 213 582 outlet;
#X msg 768 326 text \$1;
#X obj 850 448 loadbang;
#X msg 850 477 size 12;
#X msg 651 490 move \$1 \$2;
#X obj 634 463 pack 0 0;
#X obj 623 404 t b f;
#X obj 751 297 makefilename %g;
#X obj 832 528 rj_text lala;
#X msg 607 238 0;
#X obj 325 119 inlet;
#X obj 816 129 inlet;
#X msg 572 688 visible \$1;
#X msg 569 603 1;
#X obj 570 576 t b;
#X obj 606 576 t b;
#X obj 571 539 sel 1;
#X msg 605 603 0;
#X obj 325 148 * 320;
#X msg 616 433 360;
#X msg 626 536 360;
#X msg 657 546 860;
#X obj 532 491 loadbang;
#X msg 553 516 1;
#X obj 480 433 t b;
#X connect 1 0 0 0;
#X connect 1 0 36 0;
#X connect 2 0 7 0;
#X connect 3 0 9 0;
#X connect 4 0 1 0;
#X connect 5 0 4 0;
#X connect 5 0 11 0;
#X connect 7 0 8 0;
#X connect 8 0 4 1;
#X connect 8 0 18 0;
#X connect 9 0 10 0;
#X connect 9 1 2 0;
#X connect 9 1 21 0;
#X connect 10 0 4 0;
#X connect 11 0 12 0;
#X connect 13 0 20 0;
#X connect 14 0 15 0;
#X connect 15 0 20 0;
#X connect 16 0 20 0;
#X connect 17 0 16 0;
#X connect 18 0 31 0;
#X connect 18 1 17 1;
#X connect 19 0 13 0;
#X connect 21 0 19 0;
#X connect 22 0 30 0;
#X connect 23 0 19 0;
#X connect 24 0 0 0;
#X connect 24 0 20 0;
#X connect 25 0 24 0;
#X connect 26 0 25 0;
#X connect 26 0 32 0;
#X connect 27 0 29 0;
#X connect 27 0 33 0;
#X connect 28 0 26 0;
#X connect 28 1 27 0;
#X connect 29 0 24 0;
#X connect 30 0 4 0;
#X connect 30 0 11 0;
#X connect 31 0 17 0;
#X connect 32 0 17 0;
#X connect 33 0 17 0;
#X connect 34 0 35 0;
#X connect 35 0 28 0;
#X connect 36 0 25 0;
