#N canvas 92 130 875 622 10;
#X msg 264 273 drive \$1;
#X obj 336 274 hsl 128 15 0 1 0 0 empty empty wet____________dry 5 6 1 10 #fcfcfc #000000 #000000 0 1;
#X msg 333 334 dry \$1;
#X floatatom 319 60 5 0 0 0 - - - 0;
#X obj 92 401 inlet~;
#X obj 178 402 inlet~;
#X obj 92 442 u_stereo e_softclip disto;
#X obj 92 480 outlet~;
#X obj 264 475 outlet~;
#X floatatom 333 310 5 0 0 0 - - - 0;
#X obj 419 58 tgl 15 0 empty empty empty 17 7 0 10 #fcfcfc #000000 #000000 0 1;
#X obj 419 23 r distoonoff;
#X obj 319 26 r distodrive;
#X obj 333 114 moses 2;
#X obj 333 169 t b f;
#X obj 333 226 -;
#X msg 333 198 1;
#X obj 333 140 - 1;
#X obj 319 80 spigot;
#X obj 419 87 sel 0;
#X msg 418 201 1;
#X msg 386 146 0;
#X obj 460 146 loadbang;
#X connect 0 0 6 2;
#X connect 1 0 9 0;
#X connect 2 0 6 2;
#X connect 3 0 18 0;
#X connect 4 0 6 0;
#X connect 5 0 6 1;
#X connect 6 0 7 0;
#X connect 6 1 8 0;
#X connect 9 0 2 0;
#X connect 10 0 18 1;
#X connect 10 0 19 0;
#X connect 11 0 10 0;
#X connect 12 0 3 0;
#X connect 13 0 17 0;
#X connect 13 1 21 0;
#X connect 14 0 16 0;
#X connect 14 1 15 1;
#X connect 15 0 1 0;
#X connect 16 0 15 0;
#X connect 17 0 14 0;
#X connect 18 0 13 0;
#X connect 18 0 0 0;
#X connect 19 0 20 0;
#X connect 20 0 1 0;
#X connect 21 0 1 0;
#X connect 22 0 20 0;
