#N canvas 16 76 658 514 10;
#X obj 223 377 e_lop2;
#X floatatom 445 332 5 0 0 2 Q - -;
#X obj 152 435 c_cpfade;
#X obj 223 436 c_cpfade;
#X obj 223 461 outlet~;
#X obj 152 462 outlet~;
#X obj 149 334 inlet~;
#X obj 221 335 inlet~;
#X floatatom 207 202 5 0 0 0 - - -;
#X obj 271 122 * 160;
#X obj 152 377 e_lop2;
#X obj 271 199 moses 124;
#X floatatom 490 169 5 0 0 0 - - -;
#X obj 437 198 t b f;
#X msg 442 234 2;
#X obj 451 256 -;
#X obj 437 170 + 0.85;
#X floatatom 331 330 5 0 0 0 - - -;
#X obj 331 276 - 124;
#X obj 331 306 / 50;
#X obj 152 411 *~ 0.7;
#X obj 223 404 *~ 0.7;
#X obj 451 279 * 24;
#X floatatom 271 236 5 0 0 0 - - -;
#X floatatom 220 15 5 0 0 0 - - -;
#X obj 220 44 / 100;
#X obj 271 255 mtof;
#X floatatom 271 277 5 0 0 0 - - -;
#X obj 53 53 hsl 128 15 0 127 0 0 empty empty empty -2 -8 0 10 -262144
-1 -1 0 1;
#X obj 75 89 / 127;
#X obj 271 44 r filtercutoff;
#X obj 320 461 s filterfreq;
#X obj 414 461 s filterq;
#X obj 437 46 r filterres;
#X obj 437 106 flip 1;
#X connect 0 0 21 0;
#X connect 1 0 0 2;
#X connect 1 0 10 2;
#X connect 1 0 32 0;
#X connect 2 0 5 0;
#X connect 3 0 4 0;
#X connect 6 0 2 1;
#X connect 6 0 10 0;
#X connect 7 0 0 0;
#X connect 7 0 3 1;
#X connect 9 0 8 0;
#X connect 9 0 11 0;
#X connect 10 0 20 0;
#X connect 11 0 23 0;
#X connect 11 1 18 0;
#X connect 13 0 14 0;
#X connect 13 1 15 1;
#X connect 14 0 15 0;
#X connect 15 0 22 0;
#X connect 16 0 13 0;
#X connect 18 0 19 0;
#X connect 19 0 3 2;
#X connect 19 0 2 2;
#X connect 19 0 17 0;
#X connect 20 0 2 0;
#X connect 21 0 3 0;
#X connect 22 0 1 0;
#X connect 23 0 26 0;
#X connect 24 0 25 0;
#X connect 25 0 9 0;
#X connect 26 0 27 0;
#X connect 27 0 10 1;
#X connect 27 0 0 1;
#X connect 27 0 31 0;
#X connect 28 0 29 0;
#X connect 29 0 9 0;
#X connect 30 0 9 0;
#X connect 33 0 12 0;
#X connect 33 0 34 0;
#X connect 34 0 16 0;
