#N canvas 660 246 450 300 10;
#X obj 97 2 r #accelerate;
#X obj 103 41 unpack 1 2 3;
#X obj 143 74 abs;
#X obj 184 66 abs;
#X obj 143 96 pow 2;
#X obj 190 97 pow 2;
#X obj 143 130 +;
#X obj 143 159 pow 0.5;
#X obj 104 204 /;
#X obj 104 234 atan;
#X obj 104 257 outlet;
#X connect 0 0 1 0;
#X connect 1 0 2 0;
#X connect 1 1 8 0;
#X connect 1 2 3 0;
#X connect 2 0 4 0;
#X connect 3 0 5 0;
#X connect 4 0 6 0;
#X connect 5 0 6 1;
#X connect 6 0 7 0;
#X connect 7 0 8 1;
#X connect 8 0 9 0;
#X connect 9 0 10 0;
