#N canvas 185 195 450 300 10;
#X obj 145 22 inlet;
#X obj 197 24 inlet;
#X obj 261 25 inlet;
#X obj 153 78 pow 2;
#X obj 202 76 pow 2;
#X obj 155 124 +;
#X obj 259 144 /;
#X obj 250 186 atan;
#X obj 270 238 outlet;
#X obj 150 54 abs;
#X obj 206 53 abs;
#X floatatom 209 246 5 0 0 0 - - -;
#X obj 155 145 sqrt;
#X connect 0 0 9 0;
#X connect 1 0 10 0;
#X connect 2 0 6 0;
#X connect 3 0 5 0;
#X connect 4 0 5 1;
#X connect 5 0 12 0;
#X connect 6 0 7 0;
#X connect 7 0 8 0;
#X connect 7 0 11 0;
#X connect 9 0 3 0;
#X connect 10 0 4 0;
#X connect 12 0 6 1;
